M48
; DRILL file {KiCad 9.0.9-9.0.9~ubuntu24.04.1} date 2026-06-08T02:19:56+0800
; FORMAT={-:-/ absolute / metric / decimal}
; #@! TF.CreationDate,2026-06-08T02:19:56+08:00
; #@! TF.GenerationSoftware,Kicad,Pcbnew,9.0.9-9.0.9~ubuntu24.04.1
; #@! TF.FileFunction,MixedPlating,1,2
FMAT,2
METRIC
; #@! TA.AperFunction,Plated,PTH,ViaDrill
T1C0.300
; #@! TA.AperFunction,Plated,PTH,ComponentDrill
T2C0.600
; #@! TA.AperFunction,Plated,PTH,ComponentDrill
T3C1.000
; #@! TA.AperFunction,NonPlated,NPTH,ComponentDrill
T4C0.650
%
G90
G05
T1
X0.61Y-43.194
X1.0Y-1.0
X1.0Y-99.0
X1.179Y-24.965
X2.0Y-17.5
X2.047Y-96.712
X2.777Y-74.618
X2.9Y-2.3
X3.465Y-23.401
X3.6Y-17.5
X3.612Y-59.707
X3.62Y-76.091
X3.712Y-3.062
X3.8Y-9.1
X3.872Y-96.709
X3.963Y-95.724
X4.4Y-61.496
X4.6Y-4.2
X4.6Y-8.3
X5.941Y-25.03
X6.292Y-17.481
X6.361Y-7.721
X6.649Y-85.591
X6.656Y-4.299
X6.758Y-19.532
X6.784Y-76.075
X6.798Y-77.33
X7.03Y-50.148
X7.267Y-45.471
X7.906Y-13.965
X7.92Y-18.005
X8.09Y-20.014
X8.573Y-15.176
X9.046Y-10.84
X9.128Y-80.898
X9.511Y-86.839
X9.757Y-41.559
X10.001Y-42.638
X10.356Y-80.888
X10.64Y-33.787
X10.882Y-9.06
X10.887Y-13.953
X10.9Y-15.4
X11.236Y-84.567
X11.452Y-75.692
X11.561Y-30.266
X11.719Y-35.35
X11.826Y-77.355
X12.0Y-5.7
X12.0Y-8.3
X12.126Y-25.026
X12.32Y-34.788
X14.12Y-34.14
X14.605Y-80.911
X16.103Y-76.301
X17.225Y-79.763
X18.14Y-32.168
X18.63Y-34.787
X18.675Y-48.052
X19.0Y-41.04
X19.368Y-28.293
X20.421Y-57.518
X20.522Y-77.257
X20.852Y-72.185
X21.627Y-83.525
X22.99Y-30.58
X23.657Y-89.49
X23.738Y-62.632
X23.985Y-74.921
X23.985Y-80.344
X24.254Y-36.237
X24.26Y-49.152
X24.408Y-81.415
X24.411Y-84.131
X24.723Y-11.319
X25.45Y-65.478
X25.633Y-22.899
X25.927Y-9.697
X26.01Y-27.804
X26.12Y-78.632
X26.742Y-80.682
X26.752Y-87.604
X26.997Y-12.228
X27.026Y-76.267
X27.557Y-91.261
X28.37Y-16.189
X28.47Y-45.816
X29.0Y-1.0
X29.0Y-99.0
X29.483Y-92.224
T3
X15.0Y-92.8
X15.0Y-96.0
T4
X3.45Y-22.175
X9.23Y-22.175
T2
X2.02Y-21.125G85X2.02Y-22.225
G05
X2.02Y-25.555G85X2.02Y-26.155
G05
X10.66Y-21.125G85X10.66Y-22.225
G05
X10.66Y-25.555G85X10.66Y-26.155
G05
M30
