%TF.GenerationSoftware,KiCad,Pcbnew,9.0.9-9.0.9~ubuntu24.04.1*%
%TF.CreationDate,2026-06-08T02:19:56+08:00*%
%TF.ProjectId,moskill,6d6f736b-696c-46c2-9e6b-696361645f70,rev?*%
%TF.SameCoordinates,Original*%
%TF.FileFunction,Copper,L2,Bot*%
%TF.FilePolarity,Positive*%
%FSLAX46Y46*%
G04 Gerber Fmt 4.6, Leading zero omitted, Abs format (unit mm)*
G04 Created by KiCad (PCBNEW 9.0.9-9.0.9~ubuntu24.04.1) date 2026-06-08 02:19:56*
%MOMM*%
%LPD*%
G01*
G04 APERTURE LIST*
%TA.AperFunction,ComponentPad*%
%ADD10O,1.000000X2.100000*%
%TD*%
%TA.AperFunction,ComponentPad*%
%ADD11O,1.000000X1.600000*%
%TD*%
%TA.AperFunction,ComponentPad*%
%ADD12R,1.600000X1.600000*%
%TD*%
%TA.AperFunction,ComponentPad*%
%ADD13C,1.600000*%
%TD*%
%TA.AperFunction,ViaPad*%
%ADD14C,0.600000*%
%TD*%
%TA.AperFunction,Conductor*%
%ADD15C,0.200000*%
%TD*%
%TA.AperFunction,Conductor*%
%ADD16C,0.300000*%
%TD*%
%TA.AperFunction,Conductor*%
%ADD17C,0.250000*%
%TD*%
G04 APERTURE END LIST*
D10*
%TO.P,J1,S1*%
%TO.N,GND*%
X2020000Y-21675000D03*
D11*
X2020000Y-25855000D03*
D10*
X10660000Y-21675000D03*
D11*
X10660000Y-25855000D03*
%TD*%
D12*
%TO.P,BZ1,1*%
%TO.N,N/C*%
X15000000Y-96000000D03*
D13*
%TO.P,BZ1,2*%
X15000000Y-92800000D03*
%TD*%
D14*
%TO.N,+3V3*%
X20421100Y-57518200D03*
X10356000Y-80887600D03*
X25927300Y-9697000D03*
X3600000Y-17500000D03*
X6798000Y-77329600D03*
X3712100Y-3062400D03*
X19000500Y-41040000D03*
X2000000Y-17500000D03*
X10881800Y-9060000D03*
%TO.N,+5V_PROT*%
X23737700Y-62632200D03*
X23985000Y-74921100D03*
X21626500Y-83525200D03*
X26742500Y-80681600D03*
%TO.N,+BATT*%
X17224700Y-79762600D03*
X23985000Y-80344000D03*
X6292200Y-17481200D03*
X4400000Y-61496200D03*
%TO.N,ADC_SENSE*%
X6360500Y-7720800D03*
X9046300Y-10840500D03*
X26010000Y-27804200D03*
%TO.N,BLD_7*%
X2047500Y-96712400D03*
X29483500Y-92223900D03*
%TO.N,BLD_8*%
X3872500Y-96708900D03*
X12320400Y-34787600D03*
%TO.N,BOOT*%
X7906100Y-13964700D03*
X3464600Y-23401500D03*
%TO.N,BTN_IN*%
X9128300Y-80897800D03*
X19368300Y-28293400D03*
%TO.N,BUZ_GATE*%
X28470000Y-45815700D03*
X25632500Y-22899200D03*
%TO.N,CC2*%
X1179300Y-24964700D03*
X8090000Y-20014000D03*
%TO.N,CW_N2*%
X10001200Y-42638400D03*
X25450000Y-65478300D03*
X24260000Y-49152500D03*
%TO.N,CW_N4*%
X9757100Y-41558800D03*
X18675400Y-48052300D03*
%TO.N,DISCH_DRN*%
X7266900Y-45470900D03*
X27557500Y-91261400D03*
%TO.N,EN*%
X10887100Y-13952900D03*
X6655700Y-4299200D03*
X14120000Y-34139900D03*
%TO.N,FILT_OUT*%
X22990500Y-30579800D03*
X7919900Y-18005400D03*
%TO.N,GND*%
X1000000Y-99000000D03*
X29000000Y-99000000D03*
X29000000Y-1000000D03*
X1000000Y-1000000D03*
X20851700Y-72185500D03*
X11451800Y-75691700D03*
X5940500Y-25030300D03*
X7030000Y-50147800D03*
%TO.N,HV_EN*%
X3963500Y-95723500D03*
X23656700Y-89490000D03*
X9510500Y-86839200D03*
%TO.N,HV_EN_INV*%
X3620200Y-76091200D03*
X26751500Y-87604200D03*
%TO.N,HV_EN_RC*%
X609600Y-43193900D03*
X11718700Y-35349900D03*
%TO.N,I2C_SCL*%
X4600000Y-8300000D03*
X12125700Y-25026200D03*
X4600000Y-4200000D03*
X10640000Y-33787200D03*
%TO.N,I2C_SDA*%
X18630000Y-34787200D03*
X12000000Y-5700000D03*
X3800000Y-9100000D03*
X8573000Y-15176000D03*
X10900000Y-15400000D03*
X2900000Y-2300000D03*
X12000000Y-8300000D03*
%TO.N,NE555_CV*%
X24410800Y-84130800D03*
X14605000Y-80911200D03*
%TO.N,NE555_DIS*%
X6783900Y-76075500D03*
X16103300Y-76301400D03*
X27026200Y-76267500D03*
%TO.N,NE555_THR_TR*%
X24407700Y-81415300D03*
X11826200Y-77355000D03*
%TO.N,OPAMP_INM*%
X24722500Y-11318800D03*
X28370000Y-16189000D03*
%TO.N,OPAMP_OUT*%
X24254200Y-36236600D03*
X26997500Y-12227600D03*
%TO.N,PROG*%
X26120400Y-78631900D03*
X20522000Y-77257200D03*
%TO.N,Q1_DRAIN*%
X2777100Y-74617800D03*
X6649300Y-85590900D03*
%TO.N,SNUB_M*%
X18140000Y-32167900D03*
X3612000Y-59706700D03*
%TO.N,VBUS*%
X11236100Y-84566700D03*
X11560800Y-30265900D03*
X6758000Y-19532200D03*
%TD*%
D15*
%TO.N,+3V3*%
X8782000Y-6960200D02*
X8782000Y-5532500D01*
X10881800Y-9060000D02*
X8782000Y-6960200D01*
X10356000Y-80887600D02*
X6798000Y-77329600D01*
X6311900Y-3062400D02*
X3712100Y-3062400D01*
D16*
X2000000Y-17500000D02*
X3600000Y-17500000D01*
D15*
X24878600Y-46918100D02*
X24878600Y-53060700D01*
X8782000Y-5532500D02*
X6311900Y-3062400D01*
X25927300Y-9697000D02*
X25290300Y-9060000D01*
X24878600Y-53060700D02*
X20421100Y-57518200D01*
X25290300Y-9060000D02*
X10881800Y-9060000D01*
X19000500Y-41040000D02*
X24878600Y-46918100D01*
%TO.N,+5V_PROT*%
X27627900Y-79796200D02*
X27627900Y-75947400D01*
X26601600Y-74921100D02*
X26114400Y-74921100D01*
X26114400Y-74921100D02*
X26114400Y-65008900D01*
X26114400Y-74921100D02*
X23985000Y-74921100D01*
X26742500Y-80681600D02*
X27627900Y-79796200D01*
X23898900Y-83525200D02*
X21626500Y-83525200D01*
X27627900Y-75947400D02*
X26601600Y-74921100D01*
X26742500Y-80681600D02*
X23898900Y-83525200D01*
X26114400Y-65008900D02*
X23737700Y-62632200D01*
%TO.N,+BATT*%
X8331700Y-41408200D02*
X2997400Y-46742500D01*
X11083700Y-38212400D02*
X10959500Y-38212400D01*
X7398200Y-19008900D02*
X10283600Y-19008900D01*
X17806100Y-80344000D02*
X17224700Y-79762600D01*
X12313600Y-22432700D02*
X13325800Y-23444900D01*
X12313600Y-21038900D02*
X12313600Y-22432700D01*
X13325800Y-35970300D02*
X11083700Y-38212400D01*
X8331700Y-40840200D02*
X8331700Y-41408200D01*
X2997400Y-46742500D02*
X2997400Y-60093600D01*
X6292200Y-17481200D02*
X6292200Y-17902900D01*
X2997400Y-60093600D02*
X4400000Y-61496200D01*
X13325800Y-23444900D02*
X13325800Y-35970300D01*
X10959500Y-38212400D02*
X8331700Y-40840200D01*
X10283600Y-19008900D02*
X12313600Y-21038900D01*
X6292200Y-17902900D02*
X7398200Y-19008900D01*
X23985000Y-80344000D02*
X17806100Y-80344000D01*
%TO.N,ADC_SENSE*%
X6360500Y-8154700D02*
X6360500Y-7720800D01*
X26010000Y-27804200D02*
X9046300Y-10840500D01*
X9046300Y-10840500D02*
X6360500Y-8154700D01*
%TO.N,BLD_7*%
X2654500Y-97319400D02*
X24388000Y-97319400D01*
X2047500Y-96712400D02*
X2654500Y-97319400D01*
X24388000Y-97319400D02*
X29483500Y-92223900D01*
%TO.N,BLD_8*%
X12320400Y-35715500D02*
X2155100Y-45880800D01*
X2155100Y-94991500D02*
X3872500Y-96708900D01*
X12320400Y-34787600D02*
X12320400Y-35715500D01*
X2155100Y-45880800D02*
X2155100Y-94991500D01*
%TO.N,BOOT*%
X3464600Y-23401500D02*
X4827900Y-22038200D01*
X4827900Y-17042900D02*
X7906100Y-13964700D01*
X4827900Y-22038200D02*
X4827900Y-17042900D01*
%TO.N,BTN_IN*%
X6081000Y-77850500D02*
X9128300Y-80897800D01*
X11362900Y-39057100D02*
X9135100Y-41284900D01*
X9135100Y-41284900D02*
X9135100Y-42232500D01*
X8193300Y-43103300D02*
X6081000Y-45215600D01*
X9135100Y-42232500D02*
X8264300Y-43103300D01*
X19368300Y-28293400D02*
X19368300Y-31836500D01*
X19368300Y-31836500D02*
X12147700Y-39057100D01*
X6081000Y-45215600D02*
X6081000Y-77850500D01*
X8264300Y-43103300D02*
X8193300Y-43103300D01*
X12147700Y-39057100D02*
X11362900Y-39057100D01*
%TO.N,BUZ_GATE*%
X23626100Y-40971800D02*
X28470000Y-45815700D01*
X26647300Y-32036000D02*
X23626100Y-35057200D01*
X25632500Y-22899200D02*
X26647300Y-23914000D01*
X23626100Y-35057200D02*
X23626100Y-40971800D01*
X26647300Y-23914000D02*
X26647300Y-32036000D01*
%TO.N,CC2*%
X4100800Y-24003200D02*
X8090000Y-20014000D01*
X1179300Y-24964700D02*
X2140800Y-24003200D01*
X2140800Y-24003200D02*
X4100800Y-24003200D01*
%TO.N,CW_N2*%
X9093300Y-43546300D02*
X8318300Y-43546300D01*
X24260000Y-49152500D02*
X16515300Y-49152500D01*
X8318300Y-43546300D02*
X6482700Y-45381900D01*
X10001200Y-42638400D02*
X9093300Y-43546300D01*
X6482700Y-46511000D02*
X25450000Y-65478300D01*
X6482700Y-45381900D02*
X6482700Y-46511000D01*
X16515300Y-49152500D02*
X10001200Y-42638400D01*
%TO.N,CW_N4*%
X12181900Y-41558800D02*
X18675400Y-48052300D01*
X9757100Y-41558800D02*
X12181900Y-41558800D01*
%TO.N,DISCH_DRN*%
X27557500Y-91261400D02*
X28029600Y-90789300D01*
X28029600Y-66073200D02*
X7427300Y-45470900D01*
X28029600Y-90789300D02*
X28029600Y-66073200D01*
X7427300Y-45470900D02*
X7266900Y-45470900D01*
%TO.N,EN*%
X8942800Y-13952900D02*
X5754500Y-10764600D01*
X10887100Y-13952900D02*
X8942800Y-13952900D01*
X12715300Y-20872600D02*
X10449900Y-18607200D01*
X14120000Y-22843200D02*
X12715300Y-21438500D01*
X14120000Y-34139900D02*
X14120000Y-22843200D01*
X10449900Y-18607200D02*
X7650100Y-18607200D01*
X7295900Y-15599800D02*
X8942800Y-13952900D01*
X12715300Y-21438500D02*
X12715300Y-20872600D01*
X7295900Y-18253000D02*
X7295900Y-15599800D01*
X5754500Y-10764600D02*
X5754500Y-5200400D01*
X5754500Y-5200400D02*
X6655700Y-4299200D01*
X7650100Y-18607200D02*
X7295900Y-18253000D01*
%TO.N,FILT_OUT*%
X22990500Y-30579800D02*
X10416100Y-18005400D01*
X10416100Y-18005400D02*
X7919900Y-18005400D01*
%TO.N,GND*%
X5940500Y-24753300D02*
X2020000Y-24753300D01*
X2020000Y-25855000D02*
X2020000Y-24753300D01*
X7030000Y-58363800D02*
X7030000Y-50147800D01*
X10660000Y-25855000D02*
X10660000Y-24753300D01*
X20851700Y-72185500D02*
X7030000Y-58363800D01*
X5940500Y-24753300D02*
X5940500Y-25030300D01*
X17345500Y-75691700D02*
X11451800Y-75691700D01*
X20851700Y-72185500D02*
X17345500Y-75691700D01*
X10660000Y-24753300D02*
X5940500Y-24753300D01*
%TO.N,HV_EN*%
X9510500Y-86839200D02*
X10197000Y-87525700D01*
X23656700Y-89490000D02*
X10197000Y-89490000D01*
X10197000Y-89490000D02*
X3963500Y-95723500D01*
X10197000Y-87525700D02*
X10197000Y-89490000D01*
%TO.N,HV_EN_INV*%
X3620200Y-76240500D02*
X8879200Y-81499500D01*
X15133200Y-87604200D02*
X26751500Y-87604200D01*
X3620200Y-76091200D02*
X3620200Y-76240500D01*
X9028500Y-81499500D02*
X15133200Y-87604200D01*
X8879200Y-81499500D02*
X9028500Y-81499500D01*
%TO.N,HV_EN_RC*%
X8453600Y-35349900D02*
X11718700Y-35349900D01*
X609600Y-43193900D02*
X8453600Y-35349900D01*
D17*
%TO.N,I2C_SCL*%
X12125700Y-28237400D02*
X10640000Y-29723100D01*
D16*
X4600000Y-4200000D02*
X4600000Y-8300000D01*
D17*
X10640000Y-29723100D02*
X10640000Y-33787200D01*
X12125700Y-25026200D02*
X12125700Y-28237400D01*
D16*
%TO.N,I2C_SDA*%
X2900000Y-2300000D02*
X2900000Y-8200000D01*
X8600000Y-15200000D02*
X8800000Y-15400000D01*
D17*
X23645900Y-30248900D02*
X23645900Y-30833000D01*
D16*
X12000000Y-8300000D02*
X12000000Y-5700000D01*
D17*
X23645900Y-30833000D02*
X19691700Y-34787200D01*
X19691700Y-34787200D02*
X18630000Y-34787200D01*
X8573000Y-15176000D02*
X23645900Y-30248900D01*
D16*
X2900000Y-8200000D02*
X3800000Y-9100000D01*
X8573000Y-15176000D02*
X8600000Y-15200000D01*
X8800000Y-15400000D02*
X10900000Y-15400000D01*
D15*
%TO.N,NE555_CV*%
X17824600Y-84130800D02*
X14605000Y-80911200D01*
X24410800Y-84130800D02*
X17824600Y-84130800D01*
%TO.N,NE555_DIS*%
X16103300Y-76301400D02*
X7009800Y-76301400D01*
X16137200Y-76267500D02*
X16103300Y-76301400D01*
X7009800Y-76301400D02*
X6783900Y-76075500D01*
X27026200Y-76267500D02*
X16137200Y-76267500D01*
%TO.N,NE555_THR_TR*%
X24407700Y-81415300D02*
X17098600Y-81415300D01*
X13038300Y-77355000D02*
X11826200Y-77355000D01*
X17098600Y-81415300D02*
X13038300Y-77355000D01*
%TO.N,OPAMP_INM*%
X24722500Y-11318800D02*
X26951000Y-11318800D01*
X28370000Y-12737800D02*
X28370000Y-16189000D01*
X26951000Y-11318800D02*
X28370000Y-12737800D01*
%TO.N,OPAMP_OUT*%
X24254200Y-36236600D02*
X27097900Y-33392900D01*
X27097900Y-33392900D02*
X27097900Y-12328000D01*
X27097900Y-12328000D02*
X26997500Y-12227600D01*
%TO.N,PROG*%
X21896700Y-78631900D02*
X20522000Y-77257200D01*
X26120400Y-78631900D02*
X21896700Y-78631900D01*
%TO.N,Q1_DRAIN*%
X2556800Y-74838100D02*
X2556800Y-81498400D01*
X2777100Y-74617800D02*
X2556800Y-74838100D01*
X2556800Y-81498400D02*
X6649300Y-85590900D01*
%TO.N,SNUB_M*%
X11196800Y-38614100D02*
X8733400Y-41077500D01*
X18140000Y-32167900D02*
X11693800Y-38614100D01*
X11693800Y-38614100D02*
X11196800Y-38614100D01*
X8733400Y-41077500D02*
X8733400Y-41995200D01*
X8733400Y-41995200D02*
X3612000Y-47116600D01*
X3612000Y-47116600D02*
X3612000Y-59706700D01*
%TO.N,VBUS*%
X12922200Y-35805900D02*
X10917400Y-37810700D01*
X6879600Y-19410600D02*
X10034500Y-19410600D01*
X3378800Y-74867000D02*
X2997900Y-75247900D01*
X2997900Y-76328500D02*
X11236100Y-84566700D01*
X10571500Y-19947600D02*
X10654300Y-19947600D01*
X3378800Y-74368600D02*
X3378800Y-74867000D01*
X6758000Y-19532200D02*
X6879600Y-19410600D01*
X10917400Y-37810700D02*
X10793200Y-37810700D01*
X2595700Y-46576200D02*
X2595700Y-73585500D01*
X12732700Y-23490400D02*
X12732700Y-29094000D01*
X7930000Y-41241900D02*
X2595700Y-46576200D01*
X10034500Y-19410600D02*
X10571500Y-19947600D01*
X11560800Y-30265900D02*
X12922200Y-31627300D01*
X10793200Y-37810700D02*
X7930000Y-40673900D01*
X2997900Y-75247900D02*
X2997900Y-76328500D01*
X11492900Y-22250600D02*
X12732700Y-23490400D01*
X12922200Y-31627300D02*
X12922200Y-35805900D01*
X10654300Y-19947600D02*
X11492900Y-20786200D01*
X2595700Y-73585500D02*
X3378800Y-74368600D01*
X7930000Y-40673900D02*
X7930000Y-41241900D01*
X12732700Y-29094000D02*
X11560800Y-30265900D01*
X11492900Y-20786200D02*
X11492900Y-22250600D01*
%TD*%
%TA.AperFunction,Conductor*%
%TO.N,GND*%
G36*
X11229871Y-35750697D02*
G01*
X11230793Y-35750417D01*
X11258871Y-35760119D01*
X11287147Y-35769307D01*
X11288295Y-35770287D01*
X11288623Y-35770401D01*
X11294106Y-35774542D01*
X11349984Y-35830420D01*
X11426829Y-35874786D01*
X11431700Y-35878465D01*
X11445890Y-35898778D01*
X11462474Y-35917196D01*
X11463132Y-35923461D01*
X11466739Y-35928624D01*
X11466279Y-35953399D01*
X11468870Y-35978046D01*
X11465720Y-35983500D01*
X11465604Y-35989799D01*
X11442037Y-36027468D01*
X1834617Y-45634890D01*
X1834616Y-45634891D01*
X1781893Y-45726211D01*
X1781892Y-45726211D01*
X1781893Y-45726212D01*
X1756066Y-45822600D01*
X1754600Y-45828073D01*
X1754600Y-94938773D01*
X1754600Y-95044227D01*
X1775380Y-95121781D01*
X1781894Y-95146092D01*
X1834616Y-95237408D01*
X1834618Y-95237410D01*
X1834620Y-95237413D01*
X3243005Y-96645798D01*
X3245524Y-96650743D01*
X3250169Y-96653784D01*
X3257087Y-96673436D01*
X3270781Y-96700313D01*
X3271883Y-96710987D01*
X3272000Y-96713390D01*
X3272000Y-96787957D01*
X3276435Y-96804509D01*
X3276950Y-96815087D01*
X3271565Y-96834885D01*
X3270492Y-96855378D01*
X3263718Y-96863743D01*
X3260894Y-96874128D01*
X3244900Y-96886980D01*
X3231987Y-96902928D01*
X3221011Y-96906179D01*
X3213201Y-96912456D01*
X3197190Y-96913235D01*
X3178067Y-96918900D01*
X2861399Y-96918900D01*
X2803208Y-96899993D01*
X2791395Y-96889903D01*
X2676996Y-96775503D01*
X2649219Y-96720987D01*
X2648000Y-96705500D01*
X2648000Y-96633344D01*
X2647062Y-96629843D01*
X2607077Y-96480616D01*
X2528020Y-96343684D01*
X2416216Y-96231880D01*
X2279284Y-96152823D01*
X2126557Y-96111900D01*
X1968443Y-96111900D01*
X1815716Y-96152823D01*
X1678784Y-96231880D01*
X1566980Y-96343684D01*
X1487923Y-96480616D01*
X1447000Y-96633343D01*
X1447000Y-96791457D01*
X1487923Y-96944184D01*
X1566980Y-97081116D01*
X1678784Y-97192920D01*
X1815716Y-97271977D01*
X1968443Y-97312900D01*
X2040600Y-97312900D01*
X2098791Y-97331807D01*
X2110604Y-97341896D01*
X2334018Y-97565310D01*
X2334020Y-97565313D01*
X2408587Y-97639880D01*
X2408592Y-97639883D01*
X2499909Y-97692605D01*
X2499913Y-97692607D01*
X2601770Y-97719900D01*
X2601772Y-97719901D01*
X2601773Y-97719901D01*
X2713290Y-97719901D01*
X2713306Y-97719900D01*
X24440725Y-97719900D01*
X24440727Y-97719900D01*
X24542588Y-97692607D01*
X24542590Y-97692605D01*
X24542592Y-97692605D01*
X24633908Y-97639883D01*
X24633908Y-97639882D01*
X24633913Y-97639880D01*
X29420397Y-92853396D01*
X29474914Y-92825619D01*
X29490401Y-92824400D01*
X29562555Y-92824400D01*
X29562557Y-92824400D01*
X29674880Y-92794303D01*
X29735978Y-92797505D01*
X29783528Y-92836010D01*
X29799500Y-92889930D01*
X29799500Y-99700500D01*
X29780593Y-99758691D01*
X29731093Y-99794655D01*
X29700500Y-99799500D01*
X299500Y-99799500D01*
X241309Y-99780593D01*
X205345Y-99731093D01*
X200500Y-99700500D01*
X200500Y-43822576D01*
X219407Y-43764385D01*
X268907Y-43728421D01*
X330093Y-43728421D01*
X348994Y-43736837D01*
X377816Y-43753477D01*
X530543Y-43794400D01*
X530545Y-43794400D01*
X688655Y-43794400D01*
X688657Y-43794400D01*
X841384Y-43753477D01*
X978316Y-43674420D01*
X1090120Y-43562616D01*
X1169177Y-43425684D01*
X1210100Y-43272957D01*
X1210100Y-43200801D01*
X1229007Y-43142610D01*
X1239096Y-43130797D01*
X8590497Y-35779396D01*
X8645014Y-35751619D01*
X8660501Y-35750400D01*
X11228956Y-35750400D01*
X11229871Y-35750697D01*
G37*
%TD.AperFunction*%
%TA.AperFunction,Conductor*%
G36*
X29758691Y-219407D02*
G01*
X29794655Y-268907D01*
X29799500Y-299500D01*
X29799500Y-91557869D01*
X29780593Y-91616060D01*
X29731093Y-91652024D01*
X29674877Y-91653496D01*
X29562557Y-91623400D01*
X29404443Y-91623400D01*
X29251716Y-91664323D01*
X29114784Y-91743380D01*
X29002980Y-91855184D01*
X28923923Y-91992116D01*
X28899552Y-92083072D01*
X28883000Y-92144844D01*
X28883000Y-92216999D01*
X28864093Y-92275190D01*
X28854004Y-92287003D01*
X24251103Y-96889904D01*
X24196586Y-96917681D01*
X24181099Y-96918900D01*
X16199500Y-96918900D01*
X16141309Y-96899993D01*
X16105345Y-96850493D01*
X16100500Y-96819900D01*
X16100499Y-95155139D01*
X16100499Y-95155136D01*
X16097585Y-95130009D01*
X16052206Y-95027235D01*
X15972765Y-94947794D01*
X15869991Y-94902415D01*
X15869990Y-94902414D01*
X15869988Y-94902414D01*
X15844868Y-94899500D01*
X14155139Y-94899500D01*
X14155136Y-94899501D01*
X14130009Y-94902414D01*
X14027235Y-94947794D01*
X13947794Y-95027235D01*
X13902414Y-95130011D01*
X13899500Y-95155130D01*
X13899500Y-95155132D01*
X13899501Y-96819900D01*
X13880594Y-96878091D01*
X13831094Y-96914055D01*
X13800501Y-96918900D01*
X4566933Y-96918900D01*
X4508742Y-96899993D01*
X4472778Y-96850493D01*
X4471306Y-96794278D01*
X4473000Y-96787957D01*
X4473000Y-96629843D01*
X4432077Y-96477116D01*
X4353020Y-96340184D01*
X4353017Y-96340181D01*
X4344537Y-96331700D01*
X4316761Y-96277182D01*
X4326335Y-96216751D01*
X4344537Y-96191698D01*
X4444020Y-96092216D01*
X4523077Y-95955284D01*
X4564000Y-95802557D01*
X4564000Y-95730401D01*
X4582907Y-95672210D01*
X4592996Y-95660397D01*
X7540008Y-92713385D01*
X13899500Y-92713385D01*
X13899500Y-92886614D01*
X13926597Y-93057702D01*
X13926598Y-93057706D01*
X13980123Y-93222438D01*
X13980125Y-93222441D01*
X13980126Y-93222444D01*
X13980127Y-93222445D01*
X14058768Y-93376788D01*
X14160586Y-93516928D01*
X14283072Y-93639414D01*
X14423212Y-93741232D01*
X14577555Y-93819873D01*
X14577557Y-93819873D01*
X14577558Y-93819874D01*
X14577561Y-93819876D01*
X14742293Y-93873401D01*
X14742297Y-93873402D01*
X14913386Y-93900500D01*
X14913389Y-93900500D01*
X15086614Y-93900500D01*
X15257702Y-93873402D01*
X15257706Y-93873401D01*
X15422438Y-93819876D01*
X15422440Y-93819874D01*
X15422445Y-93819873D01*
X15576788Y-93741232D01*
X15716928Y-93639414D01*
X15839414Y-93516928D01*
X15941232Y-93376788D01*
X16019873Y-93222445D01*
X16019874Y-93222440D01*
X16019876Y-93222438D01*
X16073401Y-93057706D01*
X16073402Y-93057702D01*
X16100500Y-92886614D01*
X16100500Y-92713385D01*
X16073402Y-92542297D01*
X16073401Y-92542293D01*
X16019876Y-92377561D01*
X16019874Y-92377558D01*
X16019873Y-92377557D01*
X16019873Y-92377555D01*
X15941232Y-92223212D01*
X15839414Y-92083072D01*
X15716928Y-91960586D01*
X15576788Y-91858768D01*
X15576787Y-91858767D01*
X15576785Y-91858766D01*
X15422441Y-91780125D01*
X15422438Y-91780123D01*
X15257706Y-91726598D01*
X15257702Y-91726597D01*
X15086614Y-91699500D01*
X15086611Y-91699500D01*
X14913389Y-91699500D01*
X14913386Y-91699500D01*
X14742297Y-91726597D01*
X14742293Y-91726598D01*
X14577561Y-91780123D01*
X14577558Y-91780125D01*
X14423214Y-91858766D01*
X14283073Y-91960585D01*
X14160585Y-92083073D01*
X14058766Y-92223214D01*
X13980125Y-92377558D01*
X13980123Y-92377561D01*
X13926598Y-92542293D01*
X13926597Y-92542297D01*
X13899500Y-92713385D01*
X7540008Y-92713385D01*
X10333897Y-89919496D01*
X10388414Y-89891719D01*
X10403901Y-89890500D01*
X23166956Y-89890500D01*
X23225147Y-89909407D01*
X23236959Y-89919496D01*
X23287981Y-89970517D01*
X23287984Y-89970520D01*
X23424916Y-90049577D01*
X23577643Y-90090500D01*
X23577645Y-90090500D01*
X23735755Y-90090500D01*
X23735757Y-90090500D01*
X23888484Y-90049577D01*
X24025416Y-89970520D01*
X24137220Y-89858716D01*
X24216277Y-89721784D01*
X24257200Y-89569057D01*
X24257200Y-89410943D01*
X24216277Y-89258216D01*
X24137220Y-89121284D01*
X24025416Y-89009480D01*
X23888484Y-88930423D01*
X23735757Y-88889500D01*
X23577643Y-88889500D01*
X23424916Y-88930423D01*
X23287981Y-89009482D01*
X23236959Y-89060504D01*
X23182442Y-89088281D01*
X23166956Y-89089500D01*
X10696500Y-89089500D01*
X10638309Y-89070593D01*
X10602345Y-89021093D01*
X10597500Y-88990500D01*
X10597500Y-87586414D01*
X10597501Y-87586401D01*
X10597501Y-87472972D01*
X10597500Y-87472970D01*
X10593651Y-87458607D01*
X10570207Y-87371113D01*
X10523203Y-87289700D01*
X10517480Y-87279787D01*
X10442913Y-87205220D01*
X10442910Y-87205218D01*
X10308675Y-87070983D01*
X10139996Y-86902303D01*
X10112219Y-86847787D01*
X10111000Y-86832300D01*
X10111000Y-86760144D01*
X10111000Y-86760143D01*
X10070077Y-86607416D01*
X9991020Y-86470484D01*
X9879216Y-86358680D01*
X9742284Y-86279623D01*
X9589557Y-86238700D01*
X9431443Y-86238700D01*
X9278716Y-86279623D01*
X9141784Y-86358680D01*
X9029980Y-86470484D01*
X8950923Y-86607416D01*
X8910000Y-86760143D01*
X8910000Y-86918257D01*
X8950923Y-87070984D01*
X9029980Y-87207916D01*
X9141784Y-87319720D01*
X9278716Y-87398777D01*
X9431443Y-87439700D01*
X9503600Y-87439700D01*
X9561791Y-87458607D01*
X9573603Y-87468696D01*
X9767503Y-87662595D01*
X9795281Y-87717112D01*
X9796500Y-87732599D01*
X9796500Y-89283099D01*
X9777593Y-89341290D01*
X9767504Y-89353103D01*
X4026603Y-95094004D01*
X3972086Y-95121781D01*
X3956599Y-95123000D01*
X3884443Y-95123000D01*
X3731716Y-95163923D01*
X3594784Y-95242980D01*
X3482978Y-95354786D01*
X3401737Y-95495500D01*
X3356268Y-95536441D01*
X3295418Y-95542837D01*
X3245997Y-95516004D01*
X2584596Y-94854603D01*
X2556819Y-94800086D01*
X2555600Y-94784599D01*
X2555600Y-82302601D01*
X2574507Y-82244410D01*
X2624007Y-82208446D01*
X2685193Y-82208446D01*
X2724604Y-82232597D01*
X6019804Y-85527797D01*
X6047581Y-85582314D01*
X6048800Y-85597801D01*
X6048800Y-85669957D01*
X6089723Y-85822684D01*
X6168780Y-85959616D01*
X6280584Y-86071420D01*
X6417516Y-86150477D01*
X6570243Y-86191400D01*
X6570245Y-86191400D01*
X6728355Y-86191400D01*
X6728357Y-86191400D01*
X6881084Y-86150477D01*
X7018016Y-86071420D01*
X7129820Y-85959616D01*
X7208877Y-85822684D01*
X7249800Y-85669957D01*
X7249800Y-85511843D01*
X7208877Y-85359116D01*
X7129820Y-85222184D01*
X7018016Y-85110380D01*
X6881084Y-85031323D01*
X6728357Y-84990400D01*
X6728355Y-84990400D01*
X6656201Y-84990400D01*
X6598010Y-84971493D01*
X6586197Y-84961404D01*
X2986296Y-81361503D01*
X2958519Y-81306986D01*
X2957300Y-81291499D01*
X2957300Y-77093301D01*
X2976207Y-77035110D01*
X3025707Y-76999146D01*
X3086893Y-76999146D01*
X3126304Y-77023297D01*
X10606604Y-84503597D01*
X10634381Y-84558114D01*
X10635600Y-84573601D01*
X10635600Y-84645757D01*
X10676523Y-84798484D01*
X10755580Y-84935416D01*
X10867384Y-85047220D01*
X11004316Y-85126277D01*
X11157043Y-85167200D01*
X11157045Y-85167200D01*
X11315155Y-85167200D01*
X11315157Y-85167200D01*
X11467884Y-85126277D01*
X11604816Y-85047220D01*
X11716620Y-84935416D01*
X11718502Y-84932155D01*
X11720508Y-84930348D01*
X11720573Y-84930265D01*
X11720588Y-84930276D01*
X11763965Y-84891210D01*
X11824814Y-84884806D01*
X11874248Y-84911641D01*
X13433092Y-86470484D01*
X14812718Y-87850110D01*
X14812720Y-87850113D01*
X14887287Y-87924680D01*
X14917841Y-87942320D01*
X14956582Y-87964688D01*
X14956585Y-87964689D01*
X14978613Y-87977407D01*
X15080470Y-88004700D01*
X15080472Y-88004701D01*
X15080473Y-88004701D01*
X15191990Y-88004701D01*
X15192006Y-88004700D01*
X26261756Y-88004700D01*
X26319947Y-88023607D01*
X26331759Y-88033696D01*
X26382781Y-88084717D01*
X26382784Y-88084720D01*
X26519716Y-88163777D01*
X26672443Y-88204700D01*
X26672445Y-88204700D01*
X26830555Y-88204700D01*
X26830557Y-88204700D01*
X26983284Y-88163777D01*
X27120216Y-88084720D01*
X27232020Y-87972916D01*
X27311077Y-87835984D01*
X27352000Y-87683257D01*
X27352000Y-87525143D01*
X27311077Y-87372416D01*
X27232020Y-87235484D01*
X27120216Y-87123680D01*
X26983284Y-87044623D01*
X26830557Y-87003700D01*
X26672443Y-87003700D01*
X26519716Y-87044623D01*
X26382781Y-87123682D01*
X26331759Y-87174704D01*
X26277242Y-87202481D01*
X26261756Y-87203700D01*
X15340100Y-87203700D01*
X15281909Y-87184793D01*
X15270096Y-87174704D01*
X9555368Y-81459975D01*
X9527591Y-81405458D01*
X9537162Y-81345026D01*
X9555365Y-81319970D01*
X9608820Y-81266516D01*
X9659358Y-81178979D01*
X9704826Y-81138039D01*
X9765676Y-81131643D01*
X9818665Y-81162235D01*
X9830828Y-81178976D01*
X9875480Y-81256316D01*
X9987284Y-81368120D01*
X10124216Y-81447177D01*
X10276943Y-81488100D01*
X10276945Y-81488100D01*
X10435055Y-81488100D01*
X10435057Y-81488100D01*
X10587784Y-81447177D01*
X10724716Y-81368120D01*
X10836520Y-81256316D01*
X10915577Y-81119384D01*
X10956500Y-80966657D01*
X10956500Y-80808543D01*
X10915577Y-80655816D01*
X10836520Y-80518884D01*
X10724716Y-80407080D01*
X10587784Y-80328023D01*
X10435057Y-80287100D01*
X10435055Y-80287100D01*
X10362901Y-80287100D01*
X10304710Y-80268193D01*
X10292897Y-80258104D01*
X7427496Y-77392703D01*
X7399719Y-77338186D01*
X7398500Y-77322699D01*
X7398500Y-77250544D01*
X7398500Y-77250543D01*
X7357577Y-77097816D01*
X7278520Y-76960884D01*
X7188537Y-76870901D01*
X7160762Y-76816387D01*
X7170333Y-76755955D01*
X7213598Y-76712690D01*
X7258543Y-76701900D01*
X11391057Y-76701900D01*
X11449248Y-76720807D01*
X11485212Y-76770307D01*
X11485212Y-76831493D01*
X11461061Y-76870904D01*
X11457486Y-76874478D01*
X11457484Y-76874480D01*
X11345680Y-76986284D01*
X11266623Y-77123216D01*
X11225700Y-77275943D01*
X11225700Y-77434057D01*
X11266623Y-77586784D01*
X11345680Y-77723716D01*
X11457484Y-77835520D01*
X11594416Y-77914577D01*
X11747143Y-77955500D01*
X11747145Y-77955500D01*
X11905255Y-77955500D01*
X11905257Y-77955500D01*
X12057984Y-77914577D01*
X12194916Y-77835520D01*
X12220429Y-77810006D01*
X12245941Y-77784496D01*
X12300458Y-77756719D01*
X12315944Y-77755500D01*
X12831399Y-77755500D01*
X12889590Y-77774407D01*
X12901403Y-77784496D01*
X16778120Y-81661213D01*
X16778119Y-81661213D01*
X16835150Y-81718243D01*
X16852687Y-81735780D01*
X16944013Y-81788507D01*
X17045873Y-81815800D01*
X17151327Y-81815800D01*
X23917956Y-81815800D01*
X23976147Y-81834707D01*
X23987959Y-81844796D01*
X24038981Y-81895817D01*
X24038984Y-81895820D01*
X24175916Y-81974877D01*
X24328643Y-82015800D01*
X24328645Y-82015800D01*
X24486755Y-82015800D01*
X24486757Y-82015800D01*
X24615019Y-81981432D01*
X24676117Y-81984634D01*
X24723667Y-82023139D01*
X24739503Y-82082240D01*
X24717577Y-82139361D01*
X24710643Y-82147063D01*
X23762003Y-83095704D01*
X23707486Y-83123481D01*
X23691999Y-83124700D01*
X22116244Y-83124700D01*
X22058053Y-83105793D01*
X22046241Y-83095704D01*
X21995218Y-83044682D01*
X21995216Y-83044680D01*
X21858284Y-82965623D01*
X21705557Y-82924700D01*
X21547443Y-82924700D01*
X21394716Y-82965623D01*
X21257784Y-83044680D01*
X21145980Y-83156484D01*
X21066923Y-83293416D01*
X21026000Y-83446143D01*
X21026000Y-83604257D01*
X21026380Y-83605678D01*
X21026325Y-83606730D01*
X21026847Y-83610689D01*
X21026113Y-83610785D01*
X21023178Y-83666778D01*
X20984673Y-83714328D01*
X20930754Y-83730300D01*
X18031501Y-83730300D01*
X17973310Y-83711393D01*
X17961497Y-83701304D01*
X15234496Y-80974303D01*
X15206719Y-80919786D01*
X15205500Y-80904299D01*
X15205500Y-80832144D01*
X15200853Y-80814800D01*
X15164577Y-80679416D01*
X15085520Y-80542484D01*
X14973716Y-80430680D01*
X14836784Y-80351623D01*
X14684057Y-80310700D01*
X14525943Y-80310700D01*
X14373216Y-80351623D01*
X14236284Y-80430680D01*
X14124480Y-80542484D01*
X14045423Y-80679416D01*
X14004500Y-80832143D01*
X14004500Y-80990257D01*
X14045423Y-81142984D01*
X14124480Y-81279916D01*
X14236284Y-81391720D01*
X14373216Y-81470777D01*
X14525943Y-81511700D01*
X14598099Y-81511700D01*
X14656290Y-81530607D01*
X14668103Y-81540696D01*
X17578687Y-84451280D01*
X17578689Y-84451281D01*
X17578690Y-84451282D01*
X17578691Y-84451283D01*
X17670008Y-84504005D01*
X17670006Y-84504005D01*
X17670010Y-84504006D01*
X17670012Y-84504007D01*
X17771873Y-84531300D01*
X23921056Y-84531300D01*
X23979247Y-84550207D01*
X23991059Y-84560296D01*
X24042081Y-84611317D01*
X24042084Y-84611320D01*
X24179016Y-84690377D01*
X24331743Y-84731300D01*
X24331745Y-84731300D01*
X24489855Y-84731300D01*
X24489857Y-84731300D01*
X24642584Y-84690377D01*
X24779516Y-84611320D01*
X24891320Y-84499516D01*
X24970377Y-84362584D01*
X25011300Y-84209857D01*
X25011300Y-84051743D01*
X24970377Y-83899016D01*
X24891320Y-83762084D01*
X24779516Y-83650280D01*
X24642584Y-83571223D01*
X24642583Y-83571222D01*
X24642580Y-83571221D01*
X24632091Y-83568411D01*
X24580777Y-83535087D01*
X24558851Y-83477965D01*
X24574687Y-83418865D01*
X24587706Y-83402785D01*
X26679396Y-81311095D01*
X26733913Y-81283319D01*
X26749400Y-81282100D01*
X26821555Y-81282100D01*
X26821557Y-81282100D01*
X26974284Y-81241177D01*
X27111216Y-81162120D01*
X27223020Y-81050316D01*
X27302077Y-80913384D01*
X27343000Y-80760657D01*
X27343000Y-80688500D01*
X27345468Y-80680902D01*
X27344219Y-80673013D01*
X27354743Y-80652357D01*
X27361907Y-80630309D01*
X27371996Y-80618496D01*
X27460096Y-80530396D01*
X27514613Y-80502619D01*
X27575045Y-80512190D01*
X27618310Y-80555455D01*
X27629100Y-80600400D01*
X27629100Y-90561900D01*
X27610193Y-90620091D01*
X27560693Y-90656055D01*
X27530100Y-90660900D01*
X27478443Y-90660900D01*
X27325716Y-90701823D01*
X27188784Y-90780880D01*
X27076980Y-90892684D01*
X26997923Y-91029616D01*
X26957000Y-91182343D01*
X26957000Y-91340457D01*
X26997923Y-91493184D01*
X27076980Y-91630116D01*
X27188784Y-91741920D01*
X27325716Y-91820977D01*
X27478443Y-91861900D01*
X27478445Y-91861900D01*
X27636555Y-91861900D01*
X27636557Y-91861900D01*
X27789284Y-91820977D01*
X27926216Y-91741920D01*
X28038020Y-91630116D01*
X28117077Y-91493184D01*
X28158000Y-91340457D01*
X28158000Y-91268300D01*
X28176907Y-91210109D01*
X28186990Y-91198302D01*
X28350080Y-91035213D01*
X28350083Y-91035208D01*
X28402805Y-90943892D01*
X28402805Y-90943890D01*
X28402807Y-90943888D01*
X28430100Y-90842027D01*
X28430100Y-90736573D01*
X28430100Y-66020473D01*
X28402807Y-65918613D01*
X28402807Y-65918612D01*
X28402807Y-65918611D01*
X28350083Y-65827291D01*
X28350082Y-65827290D01*
X28350081Y-65827289D01*
X28350080Y-65827287D01*
X20710948Y-58188155D01*
X20683171Y-58133638D01*
X20692742Y-58073206D01*
X20731451Y-58032416D01*
X20789816Y-57998720D01*
X20901620Y-57886916D01*
X20980677Y-57749984D01*
X21021600Y-57597257D01*
X21021600Y-57525100D01*
X21040507Y-57466909D01*
X21050590Y-57455102D01*
X25199080Y-53306613D01*
X25251807Y-53215288D01*
X25279100Y-53113427D01*
X25279100Y-53007973D01*
X25279100Y-46978814D01*
X25279101Y-46978801D01*
X25279101Y-46865375D01*
X25279101Y-46865373D01*
X25251807Y-46763512D01*
X25209233Y-46689773D01*
X25199080Y-46672187D01*
X25124513Y-46597620D01*
X25124510Y-46597618D01*
X19629996Y-41103103D01*
X19602219Y-41048586D01*
X19601000Y-41033099D01*
X19601000Y-40960944D01*
X19601000Y-40960943D01*
X19560077Y-40808216D01*
X19481020Y-40671284D01*
X19369216Y-40559480D01*
X19232284Y-40480423D01*
X19079557Y-40439500D01*
X18921443Y-40439500D01*
X18768716Y-40480423D01*
X18631784Y-40559480D01*
X18519980Y-40671284D01*
X18440923Y-40808216D01*
X18400000Y-40960943D01*
X18400000Y-41119057D01*
X18440923Y-41271784D01*
X18519980Y-41408716D01*
X18631784Y-41520520D01*
X18768716Y-41599577D01*
X18921443Y-41640500D01*
X18993599Y-41640500D01*
X19051790Y-41659407D01*
X19063603Y-41669496D01*
X24449104Y-47054996D01*
X24476881Y-47109513D01*
X24478100Y-47125000D01*
X24478100Y-48460237D01*
X24459193Y-48518428D01*
X24409693Y-48554392D01*
X24353478Y-48555864D01*
X24339057Y-48552000D01*
X24180943Y-48552000D01*
X24028216Y-48592923D01*
X23995387Y-48611877D01*
X23891281Y-48671982D01*
X23840259Y-48723004D01*
X23785742Y-48750781D01*
X23770256Y-48752000D01*
X19033957Y-48752000D01*
X18975766Y-48733093D01*
X18939802Y-48683593D01*
X18939802Y-48622407D01*
X18975766Y-48572907D01*
X18984445Y-48567270D01*
X19044116Y-48532820D01*
X19155920Y-48421016D01*
X19234977Y-48284084D01*
X19275900Y-48131357D01*
X19275900Y-47973243D01*
X19234977Y-47820516D01*
X19155920Y-47683584D01*
X19044116Y-47571780D01*
X18907184Y-47492723D01*
X18754457Y-47451800D01*
X18754455Y-47451800D01*
X18682300Y-47451800D01*
X18624109Y-47432893D01*
X18612296Y-47422804D01*
X16017265Y-44827773D01*
X12427813Y-41238320D01*
X12427810Y-41238318D01*
X12427808Y-41238316D01*
X12336491Y-41185594D01*
X12336493Y-41185594D01*
X12296970Y-41175004D01*
X12234627Y-41158300D01*
X12234625Y-41158300D01*
X10246844Y-41158300D01*
X10243467Y-41157202D01*
X10240023Y-41158065D01*
X10224817Y-41151143D01*
X10188653Y-41139393D01*
X10183273Y-41135193D01*
X10179922Y-41132386D01*
X10125816Y-41078280D01*
X10092066Y-41058794D01*
X10085460Y-41053261D01*
X10073573Y-41034274D01*
X10058590Y-41017634D01*
X10057668Y-41008871D01*
X10052992Y-41001401D01*
X10054535Y-40979057D01*
X10052194Y-40956784D01*
X10056639Y-40948597D01*
X10057208Y-40940361D01*
X10068302Y-40927115D01*
X10079025Y-40907366D01*
X11499797Y-39486596D01*
X11554314Y-39458819D01*
X11569801Y-39457600D01*
X12200425Y-39457600D01*
X12200427Y-39457600D01*
X12302288Y-39430307D01*
X12302290Y-39430305D01*
X12302292Y-39430305D01*
X12393608Y-39377583D01*
X12393608Y-39377582D01*
X12393613Y-39377580D01*
X19688780Y-32082413D01*
X19719405Y-32029367D01*
X19741469Y-31991153D01*
X19741479Y-31991134D01*
X19741506Y-31991088D01*
X19741507Y-31991087D01*
X19768800Y-31889227D01*
X19768800Y-28783143D01*
X19787707Y-28724952D01*
X19797790Y-28713145D01*
X19848820Y-28662116D01*
X19927877Y-28525184D01*
X19968800Y-28372457D01*
X19968800Y-28363501D01*
X19987707Y-28305310D01*
X20037207Y-28269346D01*
X20098393Y-28269346D01*
X20137804Y-28293497D01*
X22361004Y-30516697D01*
X22388781Y-30571214D01*
X22390000Y-30586701D01*
X22390000Y-30658857D01*
X22430923Y-30811584D01*
X22509980Y-30948516D01*
X22621784Y-31060320D01*
X22633703Y-31067201D01*
X22674645Y-31112668D01*
X22681042Y-31173518D01*
X22654209Y-31222942D01*
X19544448Y-34332704D01*
X19489931Y-34360481D01*
X19474444Y-34361700D01*
X19094744Y-34361700D01*
X19036553Y-34342793D01*
X19024742Y-34332705D01*
X18998718Y-34306682D01*
X18998716Y-34306680D01*
X18861784Y-34227623D01*
X18709057Y-34186700D01*
X18550943Y-34186700D01*
X18398216Y-34227623D01*
X18261284Y-34306680D01*
X18149480Y-34418484D01*
X18070423Y-34555416D01*
X18029500Y-34708143D01*
X18029500Y-34866257D01*
X18070423Y-35018984D01*
X18149480Y-35155916D01*
X18261284Y-35267720D01*
X18398216Y-35346777D01*
X18550943Y-35387700D01*
X18550945Y-35387700D01*
X18709055Y-35387700D01*
X18709057Y-35387700D01*
X18861784Y-35346777D01*
X18998716Y-35267720D01*
X19011730Y-35254706D01*
X19024742Y-35241695D01*
X19079259Y-35213919D01*
X19094744Y-35212700D01*
X19747716Y-35212700D01*
X19747718Y-35212700D01*
X19855937Y-35183703D01*
X19855939Y-35183701D01*
X19855941Y-35183701D01*
X19904067Y-35155915D01*
X19952963Y-35127685D01*
X23907160Y-31173486D01*
X23907163Y-31173485D01*
X23986385Y-31094263D01*
X24042403Y-30997237D01*
X24057662Y-30940289D01*
X24071400Y-30889019D01*
X24071400Y-30776982D01*
X24071400Y-30192882D01*
X24042403Y-30084663D01*
X24042401Y-30084660D01*
X24042401Y-30084658D01*
X23986385Y-29987637D01*
X23907163Y-29908414D01*
X23907163Y-29908415D01*
X10018252Y-16019504D01*
X9990475Y-15964987D01*
X10000046Y-15904555D01*
X10043311Y-15861290D01*
X10088256Y-15850500D01*
X10460257Y-15850500D01*
X10518448Y-15869407D01*
X10530254Y-15879490D01*
X10531284Y-15880520D01*
X10668216Y-15959577D01*
X10820943Y-16000500D01*
X10820945Y-16000500D01*
X10979055Y-16000500D01*
X10979057Y-16000500D01*
X11131784Y-15959577D01*
X11268716Y-15880520D01*
X11380520Y-15768716D01*
X11459577Y-15631784D01*
X11500500Y-15479057D01*
X11500500Y-15320943D01*
X11459577Y-15168216D01*
X11380520Y-15031284D01*
X11268716Y-14919480D01*
X11131784Y-14840423D01*
X10979057Y-14799500D01*
X10820943Y-14799500D01*
X10668216Y-14840423D01*
X10531284Y-14919480D01*
X10530258Y-14920505D01*
X10529331Y-14920977D01*
X10526134Y-14923431D01*
X10525679Y-14922838D01*
X10475744Y-14948281D01*
X10460257Y-14949500D01*
X9192786Y-14949500D01*
X9134595Y-14930593D01*
X9107050Y-14900000D01*
X9053521Y-14807286D01*
X9053520Y-14807284D01*
X8941716Y-14695480D01*
X8941713Y-14695478D01*
X8941709Y-14695474D01*
X8936570Y-14691531D01*
X8937459Y-14690371D01*
X8901493Y-14650417D01*
X8895104Y-14589566D01*
X8921933Y-14540158D01*
X9079697Y-14382396D01*
X9134214Y-14354619D01*
X9149700Y-14353400D01*
X10397356Y-14353400D01*
X10455547Y-14372307D01*
X10467359Y-14382396D01*
X10518381Y-14433417D01*
X10518384Y-14433420D01*
X10655316Y-14512477D01*
X10808043Y-14553400D01*
X10808045Y-14553400D01*
X10966155Y-14553400D01*
X10966157Y-14553400D01*
X11118884Y-14512477D01*
X11255816Y-14433420D01*
X11367620Y-14321616D01*
X11446677Y-14184684D01*
X11482054Y-14052654D01*
X11515376Y-14001343D01*
X11572497Y-13979416D01*
X11631598Y-13995251D01*
X11647683Y-14008276D01*
X25380504Y-27741096D01*
X25408281Y-27795613D01*
X25409500Y-27811100D01*
X25409500Y-27883257D01*
X25450423Y-28035984D01*
X25529480Y-28172916D01*
X25641284Y-28284720D01*
X25778216Y-28363777D01*
X25930943Y-28404700D01*
X25930945Y-28404700D01*
X26089055Y-28404700D01*
X26089057Y-28404700D01*
X26122178Y-28395825D01*
X26183278Y-28399028D01*
X26230828Y-28437533D01*
X26246800Y-28491452D01*
X26246800Y-31829099D01*
X26227893Y-31887290D01*
X26217804Y-31899103D01*
X23305616Y-34811291D01*
X23252894Y-34902607D01*
X23252893Y-34902612D01*
X23231840Y-34981184D01*
X23225600Y-35004473D01*
X23225600Y-40919073D01*
X23225600Y-41024527D01*
X23233299Y-41053261D01*
X23252894Y-41126392D01*
X23305616Y-41217708D01*
X23305618Y-41217710D01*
X23305620Y-41217713D01*
X27840505Y-45752598D01*
X27868281Y-45807113D01*
X27869500Y-45822600D01*
X27869500Y-45894757D01*
X27910423Y-46047484D01*
X27989480Y-46184416D01*
X28101284Y-46296220D01*
X28238216Y-46375277D01*
X28390943Y-46416200D01*
X28390945Y-46416200D01*
X28549055Y-46416200D01*
X28549057Y-46416200D01*
X28701784Y-46375277D01*
X28838716Y-46296220D01*
X28950520Y-46184416D01*
X29029577Y-46047484D01*
X29070500Y-45894757D01*
X29070500Y-45736643D01*
X29029577Y-45583916D01*
X28950520Y-45446984D01*
X28838716Y-45335180D01*
X28701784Y-45256123D01*
X28549057Y-45215200D01*
X28549055Y-45215200D01*
X28476901Y-45215200D01*
X28418710Y-45196293D01*
X28406897Y-45186204D01*
X24055596Y-40834903D01*
X24027819Y-40780386D01*
X24026600Y-40764899D01*
X24026600Y-36926317D01*
X24045507Y-36868126D01*
X24095007Y-36832162D01*
X24151220Y-36830690D01*
X24175143Y-36837100D01*
X24175146Y-36837100D01*
X24333255Y-36837100D01*
X24333257Y-36837100D01*
X24485984Y-36796177D01*
X24622916Y-36717120D01*
X24734720Y-36605316D01*
X24813777Y-36468384D01*
X24854700Y-36315657D01*
X24854700Y-36243500D01*
X24873607Y-36185309D01*
X24883690Y-36173502D01*
X27418380Y-33638813D01*
X27471107Y-33547488D01*
X27498400Y-33445627D01*
X27498400Y-33340173D01*
X27498400Y-12671601D01*
X27517307Y-12613410D01*
X27566807Y-12577446D01*
X27627993Y-12577446D01*
X27667404Y-12601597D01*
X27940504Y-12874697D01*
X27968281Y-12929214D01*
X27969500Y-12944701D01*
X27969500Y-15699256D01*
X27950593Y-15757447D01*
X27940504Y-15769259D01*
X27889482Y-15820281D01*
X27889480Y-15820283D01*
X27889480Y-15820284D01*
X27810423Y-15957216D01*
X27769500Y-16109943D01*
X27769500Y-16268057D01*
X27810423Y-16420784D01*
X27889480Y-16557716D01*
X28001284Y-16669520D01*
X28138216Y-16748577D01*
X28290943Y-16789500D01*
X28290945Y-16789500D01*
X28449055Y-16789500D01*
X28449057Y-16789500D01*
X28601784Y-16748577D01*
X28738716Y-16669520D01*
X28850520Y-16557716D01*
X28929577Y-16420784D01*
X28970500Y-16268057D01*
X28970500Y-16109943D01*
X28929577Y-15957216D01*
X28850520Y-15820284D01*
X28828405Y-15798169D01*
X28799496Y-15769259D01*
X28771719Y-15714742D01*
X28770500Y-15699256D01*
X28770500Y-12685074D01*
X28770500Y-12685073D01*
X28743207Y-12583213D01*
X28743207Y-12583212D01*
X28743207Y-12583211D01*
X28690483Y-12491891D01*
X28690481Y-12491889D01*
X28690480Y-12491887D01*
X27196913Y-10998320D01*
X27196910Y-10998318D01*
X27196908Y-10998316D01*
X27105591Y-10945594D01*
X27105593Y-10945594D01*
X27066070Y-10935004D01*
X27003727Y-10918300D01*
X27003725Y-10918300D01*
X25212244Y-10918300D01*
X25154053Y-10899393D01*
X25142241Y-10889304D01*
X25091218Y-10838282D01*
X25091216Y-10838280D01*
X24954284Y-10759223D01*
X24801557Y-10718300D01*
X24643443Y-10718300D01*
X24490716Y-10759223D01*
X24353784Y-10838280D01*
X24241980Y-10950084D01*
X24162923Y-11087016D01*
X24122000Y-11239743D01*
X24122000Y-11397857D01*
X24162923Y-11550584D01*
X24241980Y-11687516D01*
X24353784Y-11799320D01*
X24490716Y-11878377D01*
X24643443Y-11919300D01*
X24643445Y-11919300D01*
X24801555Y-11919300D01*
X24801557Y-11919300D01*
X24954284Y-11878377D01*
X25091216Y-11799320D01*
X25116729Y-11773806D01*
X25142241Y-11748296D01*
X25196758Y-11720519D01*
X25212244Y-11719300D01*
X26426096Y-11719300D01*
X26484287Y-11738207D01*
X26520251Y-11787707D01*
X26520251Y-11848893D01*
X26511835Y-11867795D01*
X26437923Y-11995816D01*
X26397000Y-12148543D01*
X26397000Y-12306657D01*
X26437923Y-12459384D01*
X26516980Y-12596316D01*
X26628784Y-12708120D01*
X26647900Y-12719156D01*
X26688840Y-12764623D01*
X26697400Y-12804892D01*
X26697400Y-23158699D01*
X26678493Y-23216890D01*
X26628993Y-23252854D01*
X26567807Y-23252854D01*
X26528396Y-23228703D01*
X26261996Y-22962303D01*
X26234219Y-22907786D01*
X26233000Y-22892299D01*
X26233000Y-22820144D01*
X26233000Y-22820143D01*
X26192077Y-22667416D01*
X26113020Y-22530484D01*
X26001216Y-22418680D01*
X25864284Y-22339623D01*
X25711557Y-22298700D01*
X25553443Y-22298700D01*
X25400716Y-22339623D01*
X25263784Y-22418680D01*
X25151980Y-22530484D01*
X25072923Y-22667416D01*
X25032000Y-22820143D01*
X25032000Y-22978257D01*
X25072923Y-23130984D01*
X25151980Y-23267916D01*
X25263784Y-23379720D01*
X25400716Y-23458777D01*
X25553443Y-23499700D01*
X25625599Y-23499700D01*
X25683790Y-23518607D01*
X25695603Y-23528696D01*
X26217804Y-24050897D01*
X26245581Y-24105414D01*
X26246800Y-24120901D01*
X26246800Y-27116947D01*
X26227893Y-27175138D01*
X26178393Y-27211102D01*
X26138578Y-27215517D01*
X26130251Y-27214737D01*
X26089057Y-27203700D01*
X26012274Y-27203700D01*
X26007678Y-27203270D01*
X25983623Y-27192887D01*
X25958709Y-27184793D01*
X25952417Y-27179419D01*
X25951501Y-27179024D01*
X25951036Y-27178240D01*
X25946896Y-27174704D01*
X9675796Y-10903603D01*
X9648019Y-10849086D01*
X9646800Y-10833599D01*
X9646800Y-10761444D01*
X9646205Y-10759223D01*
X9605877Y-10608716D01*
X9526820Y-10471784D01*
X9415016Y-10359980D01*
X9278084Y-10280923D01*
X9125357Y-10240000D01*
X9125355Y-10240000D01*
X9053200Y-10240000D01*
X8995009Y-10221093D01*
X8983196Y-10211004D01*
X6902307Y-8130114D01*
X6874530Y-8075597D01*
X6884101Y-8015165D01*
X6886548Y-8010655D01*
X6920077Y-7952584D01*
X6961000Y-7799857D01*
X6961000Y-7641743D01*
X6920077Y-7489016D01*
X6841020Y-7352084D01*
X6729216Y-7240280D01*
X6592284Y-7161223D01*
X6439557Y-7120300D01*
X6281443Y-7120300D01*
X6281440Y-7120300D01*
X6279621Y-7120788D01*
X6278273Y-7120717D01*
X6275011Y-7121147D01*
X6274931Y-7120542D01*
X6218520Y-7117585D01*
X6170971Y-7079079D01*
X6155000Y-7025161D01*
X6155000Y-5407301D01*
X6173907Y-5349110D01*
X6183996Y-5337297D01*
X6592597Y-4928696D01*
X6647114Y-4900919D01*
X6662601Y-4899700D01*
X6734755Y-4899700D01*
X6734757Y-4899700D01*
X6887484Y-4858777D01*
X7024416Y-4779720D01*
X7136220Y-4667916D01*
X7150332Y-4643471D01*
X7195797Y-4602531D01*
X7256647Y-4596132D01*
X7306073Y-4622966D01*
X8352504Y-5669397D01*
X8380281Y-5723914D01*
X8381500Y-5739401D01*
X8381500Y-6907473D01*
X8381500Y-7012927D01*
X8384778Y-7025161D01*
X8408794Y-7114792D01*
X8461516Y-7206108D01*
X8461518Y-7206110D01*
X8461520Y-7206113D01*
X9385522Y-8130114D01*
X10252304Y-8996896D01*
X10280081Y-9051413D01*
X10281300Y-9066900D01*
X10281300Y-9139057D01*
X10322223Y-9291784D01*
X10401280Y-9428716D01*
X10513084Y-9540520D01*
X10650016Y-9619577D01*
X10802743Y-9660500D01*
X10802745Y-9660500D01*
X10960855Y-9660500D01*
X10960857Y-9660500D01*
X11113584Y-9619577D01*
X11250516Y-9540520D01*
X11276029Y-9515006D01*
X11301541Y-9489496D01*
X11356058Y-9461719D01*
X11371544Y-9460500D01*
X25083399Y-9460500D01*
X25141590Y-9479407D01*
X25153403Y-9489496D01*
X25297804Y-9633897D01*
X25325581Y-9688414D01*
X25326800Y-9703901D01*
X25326800Y-9776057D01*
X25367723Y-9928784D01*
X25446780Y-10065716D01*
X25558584Y-10177520D01*
X25695516Y-10256577D01*
X25848243Y-10297500D01*
X25848245Y-10297500D01*
X26006355Y-10297500D01*
X26006357Y-10297500D01*
X26159084Y-10256577D01*
X26296016Y-10177520D01*
X26407820Y-10065716D01*
X26486877Y-9928784D01*
X26527800Y-9776057D01*
X26527800Y-9617943D01*
X26486877Y-9465216D01*
X26407820Y-9328284D01*
X26296016Y-9216480D01*
X26159084Y-9137423D01*
X26006357Y-9096500D01*
X26006355Y-9096500D01*
X25934201Y-9096500D01*
X25876010Y-9077593D01*
X25864198Y-9067504D01*
X25536213Y-8739520D01*
X25536208Y-8739516D01*
X25444891Y-8686794D01*
X25444893Y-8686794D01*
X25405370Y-8676204D01*
X25343027Y-8659500D01*
X25343025Y-8659500D01*
X12654375Y-8659500D01*
X12596184Y-8640593D01*
X12560220Y-8591093D01*
X12558748Y-8534877D01*
X12562015Y-8522686D01*
X12600500Y-8379057D01*
X12600500Y-8220943D01*
X12559577Y-8068216D01*
X12480520Y-7931284D01*
X12480517Y-7931281D01*
X12480516Y-7931279D01*
X12479490Y-7930253D01*
X12479016Y-7929324D01*
X12476569Y-7926134D01*
X12477160Y-7925680D01*
X12451717Y-7875734D01*
X12450500Y-7860256D01*
X12450500Y-6139743D01*
X12469407Y-6081552D01*
X12479490Y-6069745D01*
X12480520Y-6068716D01*
X12559577Y-5931784D01*
X12600500Y-5779057D01*
X12600500Y-5620943D01*
X12559577Y-5468216D01*
X12480520Y-5331284D01*
X12368716Y-5219480D01*
X12231784Y-5140423D01*
X12079057Y-5099500D01*
X11920943Y-5099500D01*
X11768216Y-5140423D01*
X11631284Y-5219480D01*
X11519480Y-5331284D01*
X11440423Y-5468216D01*
X11399500Y-5620943D01*
X11399500Y-5779057D01*
X11440423Y-5931784D01*
X11519480Y-6068716D01*
X11520505Y-6069741D01*
X11520977Y-6070668D01*
X11523431Y-6073866D01*
X11522838Y-6074320D01*
X11548281Y-6124256D01*
X11549500Y-6139743D01*
X11549500Y-7860256D01*
X11530593Y-7918447D01*
X11520510Y-7930253D01*
X11519483Y-7931279D01*
X11519480Y-7931283D01*
X11519480Y-7931284D01*
X11440423Y-8068216D01*
X11399500Y-8220943D01*
X11399500Y-8379057D01*
X11421002Y-8459302D01*
X11431765Y-8499472D01*
X11428562Y-8560574D01*
X11390057Y-8608124D01*
X11330956Y-8623959D01*
X11273835Y-8602032D01*
X11266144Y-8595108D01*
X11250516Y-8579480D01*
X11113584Y-8500423D01*
X10960857Y-8459500D01*
X10960855Y-8459500D01*
X10888700Y-8459500D01*
X10830509Y-8440593D01*
X10818696Y-8430504D01*
X9211496Y-6823303D01*
X9183719Y-6768786D01*
X9182500Y-6753299D01*
X9182500Y-5479774D01*
X9182500Y-5479773D01*
X9155207Y-5377913D01*
X9155207Y-5377912D01*
X9155207Y-5377911D01*
X9102483Y-5286591D01*
X9102481Y-5286589D01*
X9102480Y-5286587D01*
X8075893Y-4260000D01*
X12500000Y-4260000D01*
X12500001Y-4260000D01*
X22459999Y-4260000D01*
X22460000Y-4260000D01*
X22460000Y-1260000D01*
X12500000Y-1260000D01*
X12500000Y-4260000D01*
X8075893Y-4260000D01*
X6557813Y-2741920D01*
X6557810Y-2741918D01*
X6557808Y-2741916D01*
X6466491Y-2689194D01*
X6466493Y-2689194D01*
X6410980Y-2674320D01*
X6364627Y-2661900D01*
X6364625Y-2661900D01*
X4201844Y-2661900D01*
X4143653Y-2642993D01*
X4131841Y-2632904D01*
X4080818Y-2581882D01*
X4080816Y-2581880D01*
X3943884Y-2502823D01*
X3791157Y-2461900D01*
X3633043Y-2461900D01*
X3628740Y-2463052D01*
X3625119Y-2464023D01*
X3564018Y-2460818D01*
X3516469Y-2422311D01*
X3500500Y-2368395D01*
X3500500Y-2220944D01*
X3500500Y-2220943D01*
X3459577Y-2068216D01*
X3380520Y-1931284D01*
X3268716Y-1819480D01*
X3131784Y-1740423D01*
X2979057Y-1699500D01*
X2820943Y-1699500D01*
X2668216Y-1740423D01*
X2531284Y-1819480D01*
X2419480Y-1931284D01*
X2340423Y-2068216D01*
X2299500Y-2220943D01*
X2299500Y-2379057D01*
X2340423Y-2531784D01*
X2419480Y-2668716D01*
X2420505Y-2669741D01*
X2420977Y-2670668D01*
X2423431Y-2673866D01*
X2422838Y-2674320D01*
X2448281Y-2724256D01*
X2449500Y-2739743D01*
X2449500Y-8259311D01*
X2462891Y-8309284D01*
X2462891Y-8309286D01*
X2462892Y-8309286D01*
X2462892Y-8309287D01*
X2480201Y-8373887D01*
X2480202Y-8373889D01*
X2480203Y-8373892D01*
X2539507Y-8476609D01*
X2539509Y-8476611D01*
X2539511Y-8476614D01*
X3170505Y-9107608D01*
X3198281Y-9162123D01*
X3199500Y-9177610D01*
X3199500Y-9179057D01*
X3240423Y-9331784D01*
X3319480Y-9468716D01*
X3431284Y-9580520D01*
X3568216Y-9659577D01*
X3720943Y-9700500D01*
X3720945Y-9700500D01*
X3879055Y-9700500D01*
X3879057Y-9700500D01*
X4031784Y-9659577D01*
X4168716Y-9580520D01*
X4280520Y-9468716D01*
X4359577Y-9331784D01*
X4400500Y-9179057D01*
X4400500Y-9020943D01*
X4400499Y-9020942D01*
X4399653Y-9014511D01*
X4401202Y-9014307D01*
X4403993Y-8960951D01*
X4442494Y-8913398D01*
X4501593Y-8897556D01*
X4516407Y-8899902D01*
X4520942Y-8900499D01*
X4520943Y-8900500D01*
X4520944Y-8900500D01*
X4679055Y-8900500D01*
X4679057Y-8900500D01*
X4831784Y-8859577D01*
X4968716Y-8780520D01*
X5080520Y-8668716D01*
X5159577Y-8531784D01*
X5159578Y-8531781D01*
X5162060Y-8525789D01*
X5163399Y-8526343D01*
X5192696Y-8481230D01*
X5249817Y-8459302D01*
X5308917Y-8475136D01*
X5347424Y-8522686D01*
X5354000Y-8558166D01*
X5354000Y-10711873D01*
X5354000Y-10817327D01*
X5359615Y-10838282D01*
X5381294Y-10919192D01*
X5434016Y-11010508D01*
X5434017Y-11010509D01*
X5434018Y-11010510D01*
X5434020Y-11010513D01*
X6572050Y-12148543D01*
X7680916Y-13257409D01*
X7708693Y-13311926D01*
X7699122Y-13372358D01*
X7660412Y-13413149D01*
X7537386Y-13484178D01*
X7537384Y-13484180D01*
X7425580Y-13595984D01*
X7346523Y-13732916D01*
X7318151Y-13838804D01*
X7305600Y-13885644D01*
X7305600Y-13957799D01*
X7286693Y-14015990D01*
X7276604Y-14027803D01*
X4507416Y-16796991D01*
X4454693Y-16888311D01*
X4454692Y-16888311D01*
X4454693Y-16888312D01*
X4427400Y-16990173D01*
X4427400Y-21831299D01*
X4408493Y-21889490D01*
X4398404Y-21901302D01*
X4183724Y-22115981D01*
X4129209Y-22143758D01*
X4068777Y-22134187D01*
X4025512Y-22090922D01*
X4018096Y-22071604D01*
X3986281Y-21952865D01*
X3986279Y-21952862D01*
X3986279Y-21952860D01*
X3910518Y-21821639D01*
X3910516Y-21821637D01*
X3910515Y-21821635D01*
X3803365Y-21714485D01*
X3803362Y-21714483D01*
X3803360Y-21714481D01*
X3672138Y-21638720D01*
X3672140Y-21638720D01*
X3615347Y-21623503D01*
X3525766Y-21599500D01*
X3374234Y-21599500D01*
X3284652Y-21623503D01*
X3227860Y-21638720D01*
X3096639Y-21714481D01*
X2989481Y-21821639D01*
X2913720Y-21952860D01*
X2913719Y-21952865D01*
X2874500Y-22099234D01*
X2874500Y-22250766D01*
X2887344Y-22298700D01*
X2913720Y-22397139D01*
X2989481Y-22528360D01*
X2989483Y-22528362D01*
X2989485Y-22528365D01*
X3096635Y-22635515D01*
X3096637Y-22635516D01*
X3096639Y-22635518D01*
X3194979Y-22692295D01*
X3235920Y-22737764D01*
X3242316Y-22798615D01*
X3211723Y-22851603D01*
X3194979Y-22863767D01*
X3095886Y-22920978D01*
X3095884Y-22920980D01*
X2984080Y-23032784D01*
X2905023Y-23169716D01*
X2872710Y-23290312D01*
X2864100Y-23322444D01*
X2864100Y-23480556D01*
X2864947Y-23486989D01*
X2862955Y-23487251D01*
X2860234Y-23539178D01*
X2821728Y-23586728D01*
X2767809Y-23602700D01*
X2088073Y-23602700D01*
X2037143Y-23616346D01*
X1986211Y-23629993D01*
X1980513Y-23633284D01*
X1980512Y-23633283D01*
X1894889Y-23682718D01*
X1242403Y-24335204D01*
X1187886Y-24362981D01*
X1172399Y-24364200D01*
X1100243Y-24364200D01*
X947516Y-24405123D01*
X810584Y-24484180D01*
X698780Y-24595984D01*
X619723Y-24732916D01*
X578800Y-24885643D01*
X578800Y-25043757D01*
X619723Y-25196484D01*
X698780Y-25333416D01*
X810584Y-25445220D01*
X947516Y-25524277D01*
X1100243Y-25565200D01*
X1100245Y-25565200D01*
X1258355Y-25565200D01*
X1258357Y-25565200D01*
X1411084Y-25524277D01*
X1548016Y-25445220D01*
X1659820Y-25333416D01*
X1738877Y-25196484D01*
X1779800Y-25043757D01*
X1779800Y-24971601D01*
X1798707Y-24913410D01*
X1808796Y-24901597D01*
X2277697Y-24432696D01*
X2332214Y-24404919D01*
X2347701Y-24403700D01*
X4153525Y-24403700D01*
X4153527Y-24403700D01*
X4255388Y-24376407D01*
X4255390Y-24376405D01*
X4255392Y-24376405D01*
X4346708Y-24323683D01*
X4346708Y-24323682D01*
X4346713Y-24323680D01*
X6571158Y-22099234D01*
X8654500Y-22099234D01*
X8654500Y-22250766D01*
X8667344Y-22298700D01*
X8693720Y-22397139D01*
X8769481Y-22528360D01*
X8769483Y-22528362D01*
X8769485Y-22528365D01*
X8876635Y-22635515D01*
X8876637Y-22635516D01*
X8876639Y-22635518D01*
X9007861Y-22711279D01*
X9007859Y-22711279D01*
X9007863Y-22711280D01*
X9007865Y-22711281D01*
X9154234Y-22750500D01*
X9154236Y-22750500D01*
X9305764Y-22750500D01*
X9305766Y-22750500D01*
X9452135Y-22711281D01*
X9452137Y-22711279D01*
X9452139Y-22711279D01*
X9583360Y-22635518D01*
X9583360Y-22635517D01*
X9583365Y-22635515D01*
X9690515Y-22528365D01*
X9753842Y-22418680D01*
X9766279Y-22397139D01*
X9766279Y-22397137D01*
X9766281Y-22397135D01*
X9805500Y-22250766D01*
X9805500Y-22099234D01*
X9766281Y-21952865D01*
X9766279Y-21952862D01*
X9766279Y-21952860D01*
X9690518Y-21821639D01*
X9690516Y-21821637D01*
X9690515Y-21821635D01*
X9583365Y-21714485D01*
X9583362Y-21714483D01*
X9583360Y-21714481D01*
X9452138Y-21638720D01*
X9452140Y-21638720D01*
X9395347Y-21623503D01*
X9305766Y-21599500D01*
X9154234Y-21599500D01*
X9064652Y-21623503D01*
X9007860Y-21638720D01*
X8876639Y-21714481D01*
X8769481Y-21821639D01*
X8693720Y-21952860D01*
X8693719Y-21952865D01*
X8654500Y-22099234D01*
X6571158Y-22099234D01*
X8026896Y-20643495D01*
X8081413Y-20615719D01*
X8096900Y-20614500D01*
X8169055Y-20614500D01*
X8169057Y-20614500D01*
X8321784Y-20573577D01*
X8458716Y-20494520D01*
X8570520Y-20382716D01*
X8649577Y-20245784D01*
X8690500Y-20093057D01*
X8690500Y-19934943D01*
X8690500Y-19934942D01*
X8689653Y-19928509D01*
X8691096Y-19928319D01*
X8693913Y-19874618D01*
X8732420Y-19827069D01*
X8786336Y-19811100D01*
X9827600Y-19811100D01*
X9885791Y-19830007D01*
X9897603Y-19840096D01*
X10247557Y-20190049D01*
X10247562Y-20190055D01*
X10247563Y-20190055D01*
X10251018Y-20193510D01*
X10251020Y-20193513D01*
X10325587Y-20268080D01*
X10325589Y-20268081D01*
X10416909Y-20320805D01*
X10416907Y-20320805D01*
X10416911Y-20320806D01*
X10416913Y-20320807D01*
X10451670Y-20330120D01*
X10496049Y-20355742D01*
X11063404Y-20923097D01*
X11091181Y-20977614D01*
X11092400Y-20993101D01*
X11092400Y-22197873D01*
X11092400Y-22303327D01*
X11116470Y-22393159D01*
X11119694Y-22405192D01*
X11172416Y-22496508D01*
X11172418Y-22496510D01*
X11172420Y-22496513D01*
X12303205Y-23627298D01*
X12330981Y-23681813D01*
X12332200Y-23697300D01*
X12332200Y-24330829D01*
X12313293Y-24389020D01*
X12263793Y-24424984D01*
X12211213Y-24426360D01*
X12211189Y-24426547D01*
X12210013Y-24426392D01*
X12207578Y-24426456D01*
X12204757Y-24425700D01*
X12046643Y-24425700D01*
X11893916Y-24466623D01*
X11756984Y-24545680D01*
X11645180Y-24657484D01*
X11566123Y-24794416D01*
X11525200Y-24947143D01*
X11525200Y-25105257D01*
X11566123Y-25257984D01*
X11645180Y-25394916D01*
X11671205Y-25420941D01*
X11698981Y-25475456D01*
X11700200Y-25490943D01*
X11700200Y-28020144D01*
X11681293Y-28078335D01*
X11671204Y-28090148D01*
X10378737Y-29382615D01*
X10378736Y-29382614D01*
X10299514Y-29461837D01*
X10243498Y-29558858D01*
X10243497Y-29558863D01*
X10215278Y-29664181D01*
X10214500Y-29667083D01*
X10214500Y-33322456D01*
X10195593Y-33380647D01*
X10185505Y-33392458D01*
X10159482Y-33418481D01*
X10159480Y-33418483D01*
X10159480Y-33418484D01*
X10080423Y-33555416D01*
X10039500Y-33708143D01*
X10039500Y-33866257D01*
X10080423Y-34018984D01*
X10159480Y-34155916D01*
X10271284Y-34267720D01*
X10408216Y-34346777D01*
X10560943Y-34387700D01*
X10560945Y-34387700D01*
X10719055Y-34387700D01*
X10719057Y-34387700D01*
X10871784Y-34346777D01*
X11008716Y-34267720D01*
X11120520Y-34155916D01*
X11199577Y-34018984D01*
X11240500Y-33866257D01*
X11240500Y-33708143D01*
X11199577Y-33555416D01*
X11120520Y-33418484D01*
X11120517Y-33418481D01*
X11094495Y-33392458D01*
X11066719Y-33337941D01*
X11065500Y-33322456D01*
X11065500Y-30844809D01*
X11084407Y-30786618D01*
X11133907Y-30750654D01*
X11195093Y-30750654D01*
X11213991Y-30759068D01*
X11329016Y-30825477D01*
X11481743Y-30866400D01*
X11553899Y-30866400D01*
X11612090Y-30885307D01*
X11623903Y-30895396D01*
X12492704Y-31764197D01*
X12520481Y-31818714D01*
X12521700Y-31834201D01*
X12521700Y-34090835D01*
X12502793Y-34149026D01*
X12453293Y-34184990D01*
X12406115Y-34186229D01*
X12405889Y-34187947D01*
X12399457Y-34187100D01*
X12241343Y-34187100D01*
X12088616Y-34228023D01*
X11951684Y-34307080D01*
X11839880Y-34418884D01*
X11760823Y-34555816D01*
X11743513Y-34620420D01*
X11728608Y-34676045D01*
X11695284Y-34727360D01*
X11645910Y-34748574D01*
X11639650Y-34749398D01*
X11639643Y-34749400D01*
X11486916Y-34790323D01*
X11355394Y-34866257D01*
X11349981Y-34869382D01*
X11298959Y-34920404D01*
X11244442Y-34948181D01*
X11228956Y-34949400D01*
X8506327Y-34949400D01*
X8400873Y-34949400D01*
X8338529Y-34966104D01*
X8299007Y-34976694D01*
X8207691Y-35029416D01*
X672703Y-42564404D01*
X618186Y-42592181D01*
X602699Y-42593400D01*
X530543Y-42593400D01*
X454179Y-42613861D01*
X377814Y-42634323D01*
X348999Y-42650960D01*
X289150Y-42663681D01*
X233255Y-42638793D01*
X202663Y-42585805D01*
X200500Y-42565223D01*
X200500Y-17420943D01*
X1399500Y-17420943D01*
X1399500Y-17579057D01*
X1440423Y-17731784D01*
X1519480Y-17868716D01*
X1631284Y-17980520D01*
X1768216Y-18059577D01*
X1920943Y-18100500D01*
X1920945Y-18100500D01*
X2079055Y-18100500D01*
X2079057Y-18100500D01*
X2231784Y-18059577D01*
X2368716Y-17980520D01*
X2369741Y-17979494D01*
X2370668Y-17979022D01*
X2373866Y-17976569D01*
X2374320Y-17977161D01*
X2424256Y-17951719D01*
X2439743Y-17950500D01*
X3160257Y-17950500D01*
X3218448Y-17969407D01*
X3230254Y-17979490D01*
X3231284Y-17980520D01*
X3368216Y-18059577D01*
X3520943Y-18100500D01*
X3520945Y-18100500D01*
X3679055Y-18100500D01*
X3679057Y-18100500D01*
X3831784Y-18059577D01*
X3968716Y-17980520D01*
X4080520Y-17868716D01*
X4159577Y-17731784D01*
X4200500Y-17579057D01*
X4200500Y-17420943D01*
X4159577Y-17268216D01*
X4080520Y-17131284D01*
X3968716Y-17019480D01*
X3831784Y-16940423D01*
X3679057Y-16899500D01*
X3520943Y-16899500D01*
X3368216Y-16940423D01*
X3231284Y-17019480D01*
X3230258Y-17020505D01*
X3229331Y-17020977D01*
X3226134Y-17023431D01*
X3225679Y-17022838D01*
X3175744Y-17048281D01*
X3160257Y-17049500D01*
X2439743Y-17049500D01*
X2381552Y-17030593D01*
X2369745Y-17020509D01*
X2368716Y-17019480D01*
X2231784Y-16940423D01*
X2079057Y-16899500D01*
X1920943Y-16899500D01*
X1768216Y-16940423D01*
X1631284Y-17019480D01*
X1519480Y-17131284D01*
X1440423Y-17268216D01*
X1399500Y-17420943D01*
X200500Y-17420943D01*
X200500Y-299500D01*
X219407Y-241309D01*
X268907Y-205345D01*
X299500Y-200500D01*
X29700500Y-200500D01*
X29758691Y-219407D01*
G37*
%TD.AperFunction*%
%TA.AperFunction,Conductor*%
G36*
X6650504Y-47245197D02*
G01*
X24820504Y-65415197D01*
X24848281Y-65469714D01*
X24849500Y-65485201D01*
X24849500Y-65557357D01*
X24890423Y-65710084D01*
X24969480Y-65847016D01*
X25081284Y-65958820D01*
X25218216Y-66037877D01*
X25370943Y-66078800D01*
X25370945Y-66078800D01*
X25529056Y-66078800D01*
X25529057Y-66078800D01*
X25589277Y-66062664D01*
X25650378Y-66065865D01*
X25697928Y-66104370D01*
X25713900Y-66158290D01*
X25713900Y-74421600D01*
X25694993Y-74479791D01*
X25645493Y-74515755D01*
X25614900Y-74520600D01*
X24474744Y-74520600D01*
X24416553Y-74501693D01*
X24404741Y-74491604D01*
X24353718Y-74440582D01*
X24353716Y-74440580D01*
X24216784Y-74361523D01*
X24064057Y-74320600D01*
X23905943Y-74320600D01*
X23753216Y-74361523D01*
X23616284Y-74440580D01*
X23504480Y-74552384D01*
X23425423Y-74689316D01*
X23384500Y-74842043D01*
X23384500Y-75000157D01*
X23425423Y-75152884D01*
X23504480Y-75289816D01*
X23616284Y-75401620D01*
X23753216Y-75480677D01*
X23905943Y-75521600D01*
X23905945Y-75521600D01*
X24064055Y-75521600D01*
X24064057Y-75521600D01*
X24216784Y-75480677D01*
X24353716Y-75401620D01*
X24379229Y-75376106D01*
X24404741Y-75350596D01*
X24459258Y-75322819D01*
X24474744Y-75321600D01*
X26061673Y-75321600D01*
X26167127Y-75321600D01*
X26394699Y-75321600D01*
X26452890Y-75340507D01*
X26464703Y-75350596D01*
X26720691Y-75606584D01*
X26748468Y-75661101D01*
X26738897Y-75721533D01*
X26712543Y-75753885D01*
X26706679Y-75758577D01*
X26657484Y-75786980D01*
X26602592Y-75841871D01*
X26598312Y-75845297D01*
X26574557Y-75854258D01*
X26551942Y-75865781D01*
X26541921Y-75866569D01*
X26541065Y-75866893D01*
X26540340Y-75866694D01*
X26536456Y-75867000D01*
X16559143Y-75867000D01*
X16500952Y-75848093D01*
X16489145Y-75838009D01*
X16472016Y-75820880D01*
X16335084Y-75741823D01*
X16182357Y-75700900D01*
X16024243Y-75700900D01*
X15871516Y-75741823D01*
X15734581Y-75820882D01*
X15683559Y-75871904D01*
X15629042Y-75899681D01*
X15613556Y-75900900D01*
X7433313Y-75900900D01*
X7375122Y-75881993D01*
X7348546Y-75848282D01*
X7346721Y-75849336D01*
X7343477Y-75843718D01*
X7343477Y-75843716D01*
X7264420Y-75706784D01*
X7152616Y-75594980D01*
X7015684Y-75515923D01*
X6862957Y-75475000D01*
X6704843Y-75475000D01*
X6606123Y-75501452D01*
X6545021Y-75498249D01*
X6497471Y-75459744D01*
X6481500Y-75405825D01*
X6481500Y-47315201D01*
X6500407Y-47257010D01*
X6549907Y-47221046D01*
X6611093Y-47221046D01*
X6650504Y-47245197D01*
G37*
%TD.AperFunction*%
%TD*%
M02*
