%TF.GenerationSoftware,KiCad,Pcbnew,9.0.9-9.0.9~ubuntu24.04.1*%
%TF.CreationDate,2026-06-09T15:47:07+08:00*%
%TF.ProjectId,moskill,6d6f736b-696c-46c2-9e6b-696361645f70,rev?*%
%TF.SameCoordinates,Original*%
%TF.FileFunction,Other,User*%
%FSLAX46Y46*%
G04 Gerber Fmt 4.6, Leading zero omitted, Abs format (unit mm)*
G04 Created by KiCad (PCBNEW 9.0.9-9.0.9~ubuntu24.04.1) date 2026-06-09 15:47:07*
%MOMM*%
%LPD*%
G01*
G04 APERTURE LIST*
%ADD10C,0.050000*%
G04 APERTURE END LIST*
D10*
%TO.C,C19*%
X1440000Y-17670000D02*
X3260000Y-17670000D01*
X1440000Y-18590000D02*
X1440000Y-17670000D01*
X3260000Y-17670000D02*
X3260000Y-18590000D01*
X3260000Y-18590000D02*
X1440000Y-18590000D01*
%TO.C,C7*%
X4070000Y-83370000D02*
X7470000Y-83370000D01*
X4070000Y-85330000D02*
X4070000Y-83370000D01*
X7470000Y-83370000D02*
X7470000Y-85330000D01*
X7470000Y-85330000D02*
X4070000Y-85330000D01*
%TO.C,Q4*%
X24650000Y-21060000D02*
X24650000Y-24460000D01*
X24650000Y-24460000D02*
X28490000Y-24460000D01*
X28490000Y-21060000D02*
X24650000Y-21060000D01*
X28490000Y-24460000D02*
X28490000Y-21060000D01*
%TO.C,R31*%
X1400000Y-75510000D02*
X3260000Y-75510000D01*
X1400000Y-76450000D02*
X1400000Y-75510000D01*
X3260000Y-75510000D02*
X3260000Y-76450000D01*
X3260000Y-76450000D02*
X1400000Y-76450000D01*
%TO.C,R7*%
X26690000Y-37030000D02*
X28550000Y-37030000D01*
X26690000Y-37970000D02*
X26690000Y-37030000D01*
X28550000Y-37030000D02*
X28550000Y-37970000D01*
X28550000Y-37970000D02*
X26690000Y-37970000D01*
%TO.C,R29*%
X27030000Y-50800000D02*
X28890000Y-50800000D01*
X27030000Y-51740000D02*
X27030000Y-50800000D01*
X28890000Y-50800000D02*
X28890000Y-51740000D01*
X28890000Y-51740000D02*
X27030000Y-51740000D01*
%TO.C,U8*%
X7700000Y-30320000D02*
X7700000Y-33720000D01*
X7700000Y-33720000D02*
X11800000Y-33720000D01*
X11800000Y-30320000D02*
X7700000Y-30320000D01*
X11800000Y-33720000D02*
X11800000Y-30320000D01*
%TO.C,R4*%
X26580000Y-77160000D02*
X28440000Y-77160000D01*
X26580000Y-78100000D02*
X26580000Y-77160000D01*
X28440000Y-77160000D02*
X28440000Y-78100000D01*
X28440000Y-78100000D02*
X26580000Y-78100000D01*
%TO.C,H2*%
X-7550000Y-55000000D02*
G75*
G02*
X-12450000Y-55000000I-2450000J0D01*
G01*
X-12450000Y-55000000D02*
G75*
G02*
X-7550000Y-55000000I2450000J0D01*
G01*
%TO.C,U1A*%
X9060000Y-1060000D02*
X22660000Y-1060000D01*
X9060000Y-18060000D02*
X9060000Y-1060000D01*
X22660000Y-1060000D02*
X22660000Y-18060000D01*
X22660000Y-18060000D02*
X9060000Y-18060000D01*
%TO.C,U4*%
X17810000Y-74930000D02*
X17810000Y-80330000D01*
X17810000Y-80330000D02*
X25210000Y-80330000D01*
X25210000Y-74930000D02*
X17810000Y-74930000D01*
X25210000Y-80330000D02*
X25210000Y-74930000D01*
%TO.C,R32*%
X4650000Y-30260000D02*
X6510000Y-30260000D01*
X4650000Y-31200000D02*
X4650000Y-30260000D01*
X6510000Y-30260000D02*
X6510000Y-31200000D01*
X6510000Y-31200000D02*
X4650000Y-31200000D01*
%TO.C,R26*%
X12680000Y-34990000D02*
X14540000Y-34990000D01*
X12680000Y-35930000D02*
X12680000Y-34990000D01*
X14540000Y-34990000D02*
X14540000Y-35930000D01*
X14540000Y-35930000D02*
X12680000Y-35930000D01*
%TO.C,T1*%
X2150000Y-63580000D02*
X2150000Y-71080000D01*
X2150000Y-63580000D02*
X2800000Y-63580000D01*
X2800000Y-60730000D02*
X2800000Y-63580000D01*
X2800000Y-60730000D02*
X16000000Y-60730000D01*
X2800000Y-71080000D02*
X2150000Y-71080000D01*
X2800000Y-73930000D02*
X2800000Y-71080000D01*
X16000000Y-60730000D02*
X16000000Y-63580000D01*
X16000000Y-71080000D02*
X16000000Y-73930000D01*
X16000000Y-73930000D02*
X2800000Y-73930000D01*
X16650000Y-63580000D02*
X16000000Y-63580000D01*
X16650000Y-63580000D02*
X16650000Y-71080000D01*
X16650000Y-71080000D02*
X16000000Y-71080000D01*
%TO.C,D10*%
X1230000Y-46010000D02*
X8530000Y-46010000D01*
X1230000Y-50510000D02*
X1230000Y-46010000D01*
X8530000Y-46010000D02*
X8530000Y-50510000D01*
X8530000Y-50510000D02*
X1230000Y-50510000D01*
%TO.C,R24*%
X1280000Y-96970000D02*
X4640000Y-96970000D01*
X1280000Y-98870000D02*
X1280000Y-96970000D01*
X4640000Y-96970000D02*
X4640000Y-98870000D01*
X4640000Y-98870000D02*
X1280000Y-98870000D01*
%TO.C,D5*%
X10460000Y-44440000D02*
X17460000Y-44440000D01*
X10460000Y-47940000D02*
X10460000Y-44440000D01*
X17460000Y-44440000D02*
X17460000Y-47940000D01*
X17460000Y-47940000D02*
X10460000Y-47940000D01*
%TO.C,Q3*%
X24700000Y-93680000D02*
X24700000Y-97080000D01*
X24700000Y-97080000D02*
X28540000Y-97080000D01*
X28540000Y-93680000D02*
X24700000Y-93680000D01*
X28540000Y-97080000D02*
X28540000Y-93680000D01*
%TO.C,C14*%
X5760000Y-13040000D02*
X7580000Y-13040000D01*
X5760000Y-13960000D02*
X5760000Y-13040000D01*
X7580000Y-13040000D02*
X7580000Y-13960000D01*
X7580000Y-13960000D02*
X5760000Y-13960000D01*
%TO.C,D6*%
X10380000Y-49180000D02*
X17380000Y-49180000D01*
X10380000Y-52680000D02*
X10380000Y-49180000D01*
X17380000Y-49180000D02*
X17380000Y-52680000D01*
X17380000Y-52680000D02*
X10380000Y-52680000D01*
%TO.C,U2*%
X4000000Y-14800000D02*
X4000000Y-17200000D01*
X4000000Y-17200000D02*
X6000000Y-17200000D01*
X6000000Y-14800000D02*
X4000000Y-14800000D01*
X6000000Y-17200000D02*
X6000000Y-14800000D01*
%TO.C,C2*%
X24700000Y-66350000D02*
X28100000Y-66350000D01*
X24700000Y-68310000D02*
X24700000Y-66350000D01*
X28100000Y-66350000D02*
X28100000Y-68310000D01*
X28100000Y-68310000D02*
X24700000Y-68310000D01*
%TO.C,D4*%
X1670000Y-52230000D02*
X8670000Y-52230000D01*
X1670000Y-55730000D02*
X1670000Y-52230000D01*
X8670000Y-52230000D02*
X8670000Y-55730000D01*
X8670000Y-55730000D02*
X1670000Y-55730000D01*
%TO.C,Q5*%
X23940000Y-88740000D02*
X23940000Y-92140000D01*
X23940000Y-92140000D02*
X27780000Y-92140000D01*
X27780000Y-88740000D02*
X23940000Y-88740000D01*
X27780000Y-92140000D02*
X27780000Y-88740000D01*
%TO.C,C21*%
X24640000Y-81520000D02*
X26460000Y-81520000D01*
X24640000Y-82440000D02*
X24640000Y-81520000D01*
X26460000Y-81520000D02*
X26460000Y-82440000D01*
X26460000Y-82440000D02*
X24640000Y-82440000D01*
%TO.C,R12*%
X2710000Y-94420000D02*
X4570000Y-94420000D01*
X2710000Y-95360000D02*
X2710000Y-94420000D01*
X4570000Y-94420000D02*
X4570000Y-95360000D01*
X4570000Y-95360000D02*
X2710000Y-95360000D01*
%TO.C,R9*%
X26930000Y-17860000D02*
X28790000Y-17860000D01*
X26930000Y-18800000D02*
X26930000Y-17860000D01*
X28790000Y-17860000D02*
X28790000Y-18800000D01*
X28790000Y-18800000D02*
X26930000Y-18800000D01*
%TO.C,R27*%
X17190000Y-36000000D02*
X19050000Y-36000000D01*
X17190000Y-36940000D02*
X17190000Y-36000000D01*
X19050000Y-36000000D02*
X19050000Y-36940000D01*
X19050000Y-36940000D02*
X17190000Y-36940000D01*
%TO.C,R3*%
X5990000Y-8080000D02*
X7850000Y-8080000D01*
X5990000Y-9020000D02*
X5990000Y-8080000D01*
X7850000Y-8080000D02*
X7850000Y-9020000D01*
X7850000Y-9020000D02*
X5990000Y-9020000D01*
%TO.C,C10*%
X400000Y-14370000D02*
X3800000Y-14370000D01*
X400000Y-16330000D02*
X400000Y-14370000D01*
X3800000Y-14370000D02*
X3800000Y-16330000D01*
X3800000Y-16330000D02*
X400000Y-16330000D01*
%TO.C,R28*%
X9200000Y-35480000D02*
X11060000Y-35480000D01*
X9200000Y-36420000D02*
X9200000Y-35480000D01*
X11060000Y-35480000D02*
X11060000Y-36420000D01*
X11060000Y-36420000D02*
X9200000Y-36420000D01*
%TO.C,R20*%
X20500000Y-39110000D02*
X23860000Y-39110000D01*
X20500000Y-41010000D02*
X20500000Y-39110000D01*
X23860000Y-39110000D02*
X23860000Y-41010000D01*
X23860000Y-41010000D02*
X20500000Y-41010000D01*
%TO.C,C18*%
X5820000Y-2960000D02*
X7640000Y-2960000D01*
X5820000Y-3880000D02*
X5820000Y-2960000D01*
X7640000Y-2960000D02*
X7640000Y-3880000D01*
X7640000Y-3880000D02*
X5820000Y-3880000D01*
%TO.C,R13*%
X24050000Y-86540000D02*
X25910000Y-86540000D01*
X24050000Y-87480000D02*
X24050000Y-86540000D01*
X25910000Y-86540000D02*
X25910000Y-87480000D01*
X25910000Y-87480000D02*
X24050000Y-87480000D01*
%TO.C,R33*%
X1120000Y-31060000D02*
X2980000Y-31060000D01*
X1120000Y-32000000D02*
X1120000Y-31060000D01*
X2980000Y-31060000D02*
X2980000Y-32000000D01*
X2980000Y-32000000D02*
X1120000Y-32000000D01*
%TO.C,C22*%
X24610000Y-84300000D02*
X26430000Y-84300000D01*
X24610000Y-85220000D02*
X24610000Y-84300000D01*
X26430000Y-84300000D02*
X26430000Y-85220000D01*
X26430000Y-85220000D02*
X24610000Y-85220000D01*
%TO.C,D11*%
X11500000Y-83250000D02*
X18500000Y-83250000D01*
X11500000Y-86750000D02*
X11500000Y-83250000D01*
X18500000Y-83250000D02*
X18500000Y-86750000D01*
X18500000Y-86750000D02*
X11500000Y-86750000D01*
%TO.C,R2*%
X5990000Y-10100000D02*
X7850000Y-10100000D01*
X5990000Y-11040000D02*
X5990000Y-10100000D01*
X7850000Y-10100000D02*
X7850000Y-11040000D01*
X7850000Y-11040000D02*
X5990000Y-11040000D01*
%TO.C,R25*%
X15690000Y-32560000D02*
X19050000Y-32560000D01*
X15690000Y-34460000D02*
X15690000Y-32560000D01*
X19050000Y-32560000D02*
X19050000Y-34460000D01*
X19050000Y-34460000D02*
X15690000Y-34460000D01*
%TO.C,D12*%
X18890000Y-57370000D02*
X18890000Y-62870000D01*
X18890000Y-62870000D02*
X25790000Y-62870000D01*
X25790000Y-57370000D02*
X18890000Y-57370000D01*
X25790000Y-62870000D02*
X25790000Y-57370000D01*
%TO.C,C16*%
X12900000Y-29540000D02*
X16300000Y-29540000D01*
X12900000Y-31500000D02*
X12900000Y-29540000D01*
X16300000Y-29540000D02*
X16300000Y-31500000D01*
X16300000Y-31500000D02*
X12900000Y-31500000D01*
%TO.C,C6*%
X5700000Y-57580000D02*
X9100000Y-57580000D01*
X5700000Y-59540000D02*
X5700000Y-57580000D01*
X9100000Y-57580000D02*
X9100000Y-59540000D01*
X9100000Y-59540000D02*
X5700000Y-59540000D01*
%TO.C,U5*%
X18830000Y-64810000D02*
X18830000Y-68210000D01*
X18830000Y-68210000D02*
X22930000Y-68210000D01*
X22930000Y-64810000D02*
X18830000Y-64810000D01*
X22930000Y-68210000D02*
X22930000Y-64810000D01*
%TO.C,C4*%
X19170000Y-53810000D02*
X22570000Y-53810000D01*
X19170000Y-55770000D02*
X19170000Y-53810000D01*
X22570000Y-53810000D02*
X22570000Y-55770000D01*
X22570000Y-55770000D02*
X19170000Y-55770000D01*
%TO.C,R18*%
X9580000Y-37610000D02*
X12940000Y-37610000D01*
X9580000Y-39510000D02*
X9580000Y-37610000D01*
X12940000Y-37610000D02*
X12940000Y-39510000D01*
X12940000Y-39510000D02*
X9580000Y-39510000D01*
%TO.C,C23*%
X5320000Y-17840000D02*
X7140000Y-17840000D01*
X5320000Y-18760000D02*
X5320000Y-17840000D01*
X7140000Y-17840000D02*
X7140000Y-18760000D01*
X7140000Y-18760000D02*
X5320000Y-18760000D01*
%TO.C,J1*%
X1020000Y-20030000D02*
X11660000Y-20030000D01*
X1020000Y-28960000D02*
X1020000Y-20030000D01*
X11660000Y-20030000D02*
X11660000Y-28960000D01*
X11660000Y-28960000D02*
X1020000Y-28960000D01*
%TO.C,Q1*%
X3710000Y-87550000D02*
X3710000Y-90950000D01*
X3710000Y-90950000D02*
X7550000Y-90950000D01*
X7550000Y-87550000D02*
X3710000Y-87550000D01*
X7550000Y-90950000D02*
X7550000Y-87550000D01*
%TO.C,D3*%
X1920000Y-41230000D02*
X8920000Y-41230000D01*
X1920000Y-44730000D02*
X1920000Y-41230000D01*
X8920000Y-41230000D02*
X8920000Y-44730000D01*
X8920000Y-44730000D02*
X1920000Y-44730000D01*
%TO.C,R16*%
X15070000Y-41070000D02*
X18430000Y-41070000D01*
X15070000Y-42970000D02*
X15070000Y-41070000D01*
X18430000Y-41070000D02*
X18430000Y-42970000D01*
X18430000Y-42970000D02*
X15070000Y-42970000D01*
%TO.C,C11*%
X2190000Y-5470000D02*
X4010000Y-5470000D01*
X2190000Y-6390000D02*
X2190000Y-5470000D01*
X4010000Y-5470000D02*
X4010000Y-6390000D01*
X4010000Y-6390000D02*
X2190000Y-6390000D01*
%TO.C,R17*%
X14550000Y-38120000D02*
X17910000Y-38120000D01*
X14550000Y-40020000D02*
X14550000Y-38120000D01*
X17910000Y-38120000D02*
X17910000Y-40020000D01*
X17910000Y-40020000D02*
X14550000Y-40020000D01*
%TO.C,D7*%
X24700000Y-12800000D02*
X24700000Y-16200000D01*
X24700000Y-16200000D02*
X28540000Y-16200000D01*
X28540000Y-12800000D02*
X24700000Y-12800000D01*
X28540000Y-16200000D02*
X28540000Y-12800000D01*
%TO.C,R8*%
X23670000Y-37060000D02*
X25530000Y-37060000D01*
X23670000Y-38000000D02*
X23670000Y-37060000D01*
X25530000Y-37060000D02*
X25530000Y-38000000D01*
X25530000Y-38000000D02*
X23670000Y-38000000D01*
%TO.C,R21*%
X21020000Y-42060000D02*
X24380000Y-42060000D01*
X21020000Y-43960000D02*
X21020000Y-42060000D01*
X24380000Y-42060000D02*
X24380000Y-43960000D01*
X24380000Y-43960000D02*
X21020000Y-43960000D01*
%TO.C,FID3*%
X3250000Y-97000000D02*
G75*
G02*
X750000Y-97000000I-1250000J0D01*
G01*
X750000Y-97000000D02*
G75*
G02*
X3250000Y-97000000I1250000J0D01*
G01*
%TO.C,R19*%
X3770000Y-36100000D02*
X7130000Y-36100000D01*
X3770000Y-38000000D02*
X3770000Y-36100000D01*
X7130000Y-36100000D02*
X7130000Y-38000000D01*
X7130000Y-38000000D02*
X3770000Y-38000000D01*
%TO.C,D2*%
X10550000Y-54520000D02*
X17550000Y-54520000D01*
X10550000Y-58020000D02*
X10550000Y-54520000D01*
X17550000Y-54520000D02*
X17550000Y-58020000D01*
X17550000Y-58020000D02*
X10550000Y-58020000D01*
%TO.C,R36*%
X25370000Y-64150000D02*
X27230000Y-64150000D01*
X25370000Y-65090000D02*
X25370000Y-64150000D01*
X27230000Y-64150000D02*
X27230000Y-65090000D01*
X27230000Y-65090000D02*
X25370000Y-65090000D01*
%TO.C,D1*%
X18760000Y-48810000D02*
X25760000Y-48810000D01*
X18760000Y-52310000D02*
X18760000Y-48810000D01*
X25760000Y-48810000D02*
X25760000Y-52310000D01*
X25760000Y-52310000D02*
X18760000Y-52310000D01*
%TO.C,C20*%
X5760000Y-93920000D02*
X7580000Y-93920000D01*
X5760000Y-94840000D02*
X5760000Y-93920000D01*
X7580000Y-93920000D02*
X7580000Y-94840000D01*
X7580000Y-94840000D02*
X5760000Y-94840000D01*
%TO.C,R5*%
X20190000Y-35670000D02*
X22050000Y-35670000D01*
X20190000Y-36610000D02*
X20190000Y-35670000D01*
X22050000Y-35670000D02*
X22050000Y-36610000D01*
X22050000Y-36610000D02*
X20190000Y-36610000D01*
%TO.C,R23*%
X25530000Y-42520000D02*
X28890000Y-42520000D01*
X25530000Y-44420000D02*
X25530000Y-42520000D01*
X28890000Y-42520000D02*
X28890000Y-44420000D01*
X28890000Y-44420000D02*
X25530000Y-44420000D01*
%TO.C,U3*%
X3250000Y-77810000D02*
X3250000Y-81210000D01*
X3250000Y-81210000D02*
X7350000Y-81210000D01*
X7350000Y-77810000D02*
X3250000Y-77810000D01*
X7350000Y-81210000D02*
X7350000Y-77810000D01*
%TO.C,H1*%
X-7550000Y-50000000D02*
G75*
G02*
X-12450000Y-50000000I-2450000J0D01*
G01*
X-12450000Y-50000000D02*
G75*
G02*
X-7550000Y-50000000I2450000J0D01*
G01*
%TO.C,C9*%
X17700000Y-28985000D02*
X19520000Y-28985000D01*
X17700000Y-29905000D02*
X17700000Y-28985000D01*
X19520000Y-28985000D02*
X19520000Y-29905000D01*
X19520000Y-29905000D02*
X17700000Y-29905000D01*
%TO.C,R15*%
X26920000Y-74520000D02*
X28780000Y-74520000D01*
X26920000Y-75460000D02*
X26920000Y-74520000D01*
X28780000Y-74520000D02*
X28780000Y-75460000D01*
X28780000Y-75460000D02*
X26920000Y-75460000D01*
%TO.C,R30*%
X5800000Y-96110000D02*
X7660000Y-96110000D01*
X5800000Y-97050000D02*
X5800000Y-96110000D01*
X7660000Y-96110000D02*
X7660000Y-97050000D01*
X7660000Y-97050000D02*
X5800000Y-97050000D01*
%TO.C,C13*%
X1090000Y-11540000D02*
X2910000Y-11540000D01*
X1090000Y-12460000D02*
X1090000Y-11540000D01*
X2910000Y-11540000D02*
X2910000Y-12460000D01*
X2910000Y-12460000D02*
X1090000Y-12460000D01*
%TO.C,C8*%
X24300000Y-25640000D02*
X26120000Y-25640000D01*
X24300000Y-26560000D02*
X24300000Y-25640000D01*
X26120000Y-25640000D02*
X26120000Y-26560000D01*
X26120000Y-26560000D02*
X24300000Y-26560000D01*
%TO.C,R10*%
X1340000Y-58490000D02*
X3200000Y-58490000D01*
X1340000Y-59430000D02*
X1340000Y-58490000D01*
X3200000Y-58490000D02*
X3200000Y-59430000D01*
X3200000Y-59430000D02*
X1340000Y-59430000D01*
%TO.C,C15*%
X17710000Y-29920000D02*
X19530000Y-29920000D01*
X17710000Y-30840000D02*
X17710000Y-29920000D01*
X19530000Y-29920000D02*
X19530000Y-30840000D01*
X19530000Y-30840000D02*
X17710000Y-30840000D01*
%TO.C,R1*%
X20840000Y-28890000D02*
X28480000Y-28890000D01*
X20840000Y-32730000D02*
X20840000Y-28890000D01*
X28480000Y-28890000D02*
X28480000Y-32730000D01*
X28480000Y-32730000D02*
X20840000Y-32730000D01*
%TO.C,Q2*%
X18280000Y-69600000D02*
X18280000Y-73100000D01*
X18280000Y-73100000D02*
X25980000Y-73100000D01*
X25980000Y-69600000D02*
X18280000Y-69600000D01*
X25980000Y-73100000D02*
X25980000Y-69600000D01*
%TO.C,R6*%
X5740000Y-5150000D02*
X7600000Y-5150000D01*
X5740000Y-6090000D02*
X5740000Y-5150000D01*
X7600000Y-5150000D02*
X7600000Y-6090000D01*
X7600000Y-6090000D02*
X5740000Y-6090000D01*
%TO.C,SW1*%
X13030000Y-20020000D02*
X13030000Y-26820000D01*
X13030000Y-20020000D02*
X23130000Y-20020000D01*
X13030000Y-26820000D02*
X23130000Y-26820000D01*
X23130000Y-26820000D02*
X23130000Y-20020000D01*
%TO.C,R22*%
X25530000Y-39520000D02*
X28890000Y-39520000D01*
X25530000Y-41420000D02*
X25530000Y-39520000D01*
X28890000Y-39520000D02*
X28890000Y-41420000D01*
X28890000Y-41420000D02*
X25530000Y-41420000D01*
%TO.C,U6*%
X23810000Y-7860000D02*
X23810000Y-11260000D01*
X23810000Y-11260000D02*
X27910000Y-11260000D01*
X27910000Y-7860000D02*
X23810000Y-7860000D01*
X27910000Y-11260000D02*
X27910000Y-7860000D01*
%TO.C,C1*%
X23340000Y-45580000D02*
X26740000Y-45580000D01*
X23340000Y-47540000D02*
X23340000Y-45580000D01*
X26740000Y-45580000D02*
X26740000Y-47540000D01*
X26740000Y-47540000D02*
X23340000Y-47540000D01*
%TO.C,C3*%
X10030000Y-40630000D02*
X13430000Y-40630000D01*
X10030000Y-42590000D02*
X10030000Y-40630000D01*
X13430000Y-40630000D02*
X13430000Y-42590000D01*
X13430000Y-42590000D02*
X10030000Y-42590000D01*
%TO.C,D8*%
X23360000Y-34030000D02*
X23360000Y-35930000D01*
X23360000Y-34030000D02*
X26560000Y-34030000D01*
X23360000Y-35930000D02*
X26560000Y-35930000D01*
X26560000Y-34030000D02*
X26560000Y-35930000D01*
%TO.C,FID2*%
X28250000Y-1500000D02*
G75*
G02*
X25750000Y-1500000I-1250000J0D01*
G01*
X25750000Y-1500000D02*
G75*
G02*
X28250000Y-1500000I1250000J0D01*
G01*
%TO.C,U7*%
X8430000Y-75290000D02*
X8430000Y-80690000D01*
X8430000Y-80690000D02*
X15830000Y-80690000D01*
X15830000Y-75290000D02*
X8430000Y-75290000D01*
X15830000Y-80690000D02*
X15830000Y-75290000D01*
%TO.C,D9*%
X24700000Y-2920000D02*
X24700000Y-6320000D01*
X24700000Y-6320000D02*
X28540000Y-6320000D01*
X28540000Y-2920000D02*
X24700000Y-2920000D01*
X28540000Y-6320000D02*
X28540000Y-2920000D01*
%TO.C,C17*%
X350000Y-3160000D02*
X3750000Y-3160000D01*
X350000Y-5120000D02*
X350000Y-3160000D01*
X3750000Y-3160000D02*
X3750000Y-5120000D01*
X3750000Y-5120000D02*
X350000Y-5120000D01*
%TO.C,C5*%
X18650000Y-45250000D02*
X22050000Y-45250000D01*
X18650000Y-47210000D02*
X18650000Y-45250000D01*
X22050000Y-45250000D02*
X22050000Y-47210000D01*
X22050000Y-47210000D02*
X18650000Y-47210000D01*
%TO.C,FID1*%
X2750000Y-1500000D02*
G75*
G02*
X250000Y-1500000I-1250000J0D01*
G01*
X250000Y-1500000D02*
G75*
G02*
X2750000Y-1500000I1250000J0D01*
G01*
%TO.C,R14*%
X4660000Y-75020000D02*
X6520000Y-75020000D01*
X4660000Y-75960000D02*
X4660000Y-75020000D01*
X6520000Y-75020000D02*
X6520000Y-75960000D01*
X6520000Y-75960000D02*
X4660000Y-75960000D01*
%TO.C,D13*%
X26790000Y-79460000D02*
X28650000Y-79460000D01*
X26790000Y-80400000D02*
X26790000Y-79460000D01*
X28650000Y-79460000D02*
X28650000Y-80400000D01*
X28650000Y-80400000D02*
X26790000Y-80400000D01*
%TO.C,C24*%
X1190000Y-85280000D02*
X3010000Y-85280000D01*
X1190000Y-86200000D02*
X1190000Y-85280000D01*
X3010000Y-85280000D02*
X3010000Y-86200000D01*
X3010000Y-86200000D02*
X1190000Y-86200000D01*
%TO.C,R11*%
X4220000Y-39220000D02*
X6080000Y-39220000D01*
X4220000Y-40160000D02*
X4220000Y-39220000D01*
X6080000Y-39220000D02*
X6080000Y-40160000D01*
X6080000Y-40160000D02*
X4220000Y-40160000D01*
%TO.C,R35*%
X27050000Y-72460000D02*
X28910000Y-72460000D01*
X27050000Y-73400000D02*
X27050000Y-72460000D01*
X28910000Y-72460000D02*
X28910000Y-73400000D01*
X28910000Y-73400000D02*
X27050000Y-73400000D01*
%TO.C,C12*%
X23800000Y-54000000D02*
X27200000Y-54000000D01*
X23800000Y-55960000D02*
X23800000Y-54000000D01*
X27200000Y-54000000D02*
X27200000Y-55960000D01*
X27200000Y-55960000D02*
X23800000Y-55960000D01*
%TO.C,R34*%
X4420000Y-33960000D02*
X6280000Y-33960000D01*
X4420000Y-34900000D02*
X4420000Y-33960000D01*
X6280000Y-33960000D02*
X6280000Y-34900000D01*
X6280000Y-34900000D02*
X4420000Y-34900000D01*
%TO.C,BZ1*%
X22050000Y-94400000D02*
G75*
G02*
X14950000Y-94400000I-3550000J0D01*
G01*
X14950000Y-94400000D02*
G75*
G02*
X22050000Y-94400000I3550000J0D01*
G01*
%TD*%
M02*
