%TF.GenerationSoftware,KiCad,Pcbnew,9.0.9-9.0.9~ubuntu24.04.1*%
%TF.CreationDate,2026-06-09T15:47:07+08:00*%
%TF.ProjectId,moskill,6d6f736b-696c-46c2-9e6b-696361645f70,rev?*%
%TF.SameCoordinates,Original*%
%TF.FileFunction,Paste,Top*%
%TF.FilePolarity,Positive*%
%FSLAX46Y46*%
G04 Gerber Fmt 4.6, Leading zero omitted, Abs format (unit mm)*
G04 Created by KiCad (PCBNEW 9.0.9-9.0.9~ubuntu24.04.1) date 2026-06-09 15:47:07*
%MOMM*%
%LPD*%
G01*
G04 APERTURE LIST*
G04 Aperture macros list*
%AMRoundRect*
0 Rectangle with rounded corners*
0 $1 Rounding radius*
0 $2 $3 $4 $5 $6 $7 $8 $9 X,Y pos of 4 corners*
0 Add a 4 corners polygon primitive as box body*
4,1,4,$2,$3,$4,$5,$6,$7,$8,$9,$2,$3,0*
0 Add four circle primitives for the rounded corners*
1,1,$1+$1,$2,$3*
1,1,$1+$1,$4,$5*
1,1,$1+$1,$6,$7*
1,1,$1+$1,$8,$9*
0 Add four rect primitives between the rounded corners*
20,1,$1+$1,$2,$3,$4,$5,0*
20,1,$1+$1,$4,$5,$6,$7,0*
20,1,$1+$1,$6,$7,$8,$9,0*
20,1,$1+$1,$8,$9,$2,$3,0*%
%AMFreePoly0*
4,1,6,0.725000,-0.725000,-0.725000,-0.725000,-0.725000,0.125000,-0.125000,0.725000,0.725000,0.725000,0.725000,-0.725000,0.725000,-0.725000,$1*%
G04 Aperture macros list end*
%ADD10RoundRect,0.140000X-0.140000X-0.170000X0.140000X-0.170000X0.140000X0.170000X-0.140000X0.170000X0*%
%ADD11RoundRect,0.250000X-0.250000X-0.475000X0.250000X-0.475000X0.250000X0.475000X-0.250000X0.475000X0*%
%ADD12RoundRect,0.150000X-0.587500X-0.150000X0.587500X-0.150000X0.587500X0.150000X-0.587500X0.150000X0*%
%ADD13RoundRect,0.135000X-0.135000X-0.185000X0.135000X-0.185000X0.135000X0.185000X-0.135000X0.185000X0*%
%ADD14RoundRect,0.150000X-0.512500X-0.150000X0.512500X-0.150000X0.512500X0.150000X-0.512500X0.150000X0*%
%ADD15R,0.800000X0.400000*%
%ADD16R,0.400000X0.800000*%
%ADD17FreePoly0,0.000000*%
%ADD18R,1.450000X1.450000*%
%ADD19R,0.700000X0.700000*%
%ADD20RoundRect,0.150000X-0.825000X-0.150000X0.825000X-0.150000X0.825000X0.150000X-0.825000X0.150000X0*%
%ADD21R,4.000000X7.000000*%
%ADD22RoundRect,0.250000X-1.000000X-0.900000X1.000000X-0.900000X1.000000X0.900000X-1.000000X0.900000X0*%
%ADD23RoundRect,0.250000X-0.262500X-0.450000X0.262500X-0.450000X0.262500X0.450000X-0.262500X0.450000X0*%
%ADD24RoundRect,0.250000X-1.000000X-0.650000X1.000000X-0.650000X1.000000X0.650000X-1.000000X0.650000X0*%
%ADD25R,0.300000X0.500000*%
%ADD26R,1.500000X0.900000*%
%ADD27R,0.300000X1.150000*%
%ADD28RoundRect,0.250000X-0.362500X-1.425000X0.362500X-1.425000X0.362500X1.425000X-0.362500X1.425000X0*%
%ADD29RoundRect,0.100000X-0.637500X-0.100000X0.637500X-0.100000X0.637500X0.100000X-0.637500X0.100000X0*%
%ADD30R,1.550000X1.300000*%
%ADD31RoundRect,0.112500X-0.187500X-0.112500X0.187500X-0.112500X0.187500X0.112500X-0.187500X0.112500X0*%
%ADD32RoundRect,0.147500X-0.147500X-0.172500X0.147500X-0.172500X0.147500X0.172500X-0.147500X0.172500X0*%
G04 APERTURE END LIST*
D10*
%TO.C,C19*%
X1870000Y-18130000D03*
X2830000Y-18130000D03*
%TD*%
D11*
%TO.C,C7*%
X4820000Y-84350000D03*
X6720000Y-84350000D03*
%TD*%
D12*
%TO.C,Q4*%
X25632500Y-21810000D03*
X25632500Y-23710000D03*
X27507500Y-22760000D03*
%TD*%
D13*
%TO.C,R31*%
X1820000Y-75980000D03*
X2840000Y-75980000D03*
%TD*%
%TO.C,R7*%
X27110000Y-37500000D03*
X28130000Y-37500000D03*
%TD*%
%TO.C,R29*%
X27450000Y-51270000D03*
X28470000Y-51270000D03*
%TD*%
D14*
%TO.C,U8*%
X8612500Y-31070000D03*
X8612500Y-32020000D03*
X8612500Y-32970000D03*
X10887500Y-32970000D03*
X10887500Y-32020000D03*
X10887500Y-31070000D03*
%TD*%
D13*
%TO.C,R4*%
X27000000Y-77630000D03*
X28020000Y-77630000D03*
%TD*%
D15*
%TO.C,U1A*%
X9960000Y-8260000D03*
X9960000Y-9060000D03*
X9960000Y-9860000D03*
X9960000Y-10660000D03*
X9960000Y-11460000D03*
X9960000Y-12260000D03*
X9960000Y-13060000D03*
X9960000Y-13860000D03*
X9960000Y-14660000D03*
X9960000Y-15460000D03*
X9960000Y-16260000D03*
D16*
X11060000Y-17160000D03*
X11860000Y-17160000D03*
X12660000Y-17160000D03*
X13460000Y-17160000D03*
X14260000Y-17160000D03*
X15060000Y-17160000D03*
X15860000Y-17160000D03*
X16660000Y-17160000D03*
X17460000Y-17160000D03*
X18260000Y-17160000D03*
X19060000Y-17160000D03*
X19860000Y-17160000D03*
X20660000Y-17160000D03*
D15*
X21760000Y-16260000D03*
X21760000Y-15460000D03*
X21760000Y-14660000D03*
X21760000Y-13860000D03*
X21760000Y-13060000D03*
X21760000Y-12260000D03*
X21760000Y-11460000D03*
X21760000Y-10660000D03*
X21760000Y-9860000D03*
X21760000Y-9060000D03*
X21760000Y-8260000D03*
D16*
X20660000Y-7360000D03*
X19860000Y-7360000D03*
X19060000Y-7360000D03*
X18260000Y-7360000D03*
X17460000Y-7360000D03*
X16660000Y-7360000D03*
X15860000Y-7360000D03*
X15060000Y-7360000D03*
X14260000Y-7360000D03*
X13460000Y-7360000D03*
X12660000Y-7360000D03*
X11860000Y-7360000D03*
X11060000Y-7360000D03*
D17*
X13885000Y-10285000D03*
D18*
X13885000Y-12260000D03*
X13885000Y-14235000D03*
X15860000Y-10285000D03*
X15860000Y-12260000D03*
X15860000Y-14235000D03*
X17835000Y-10285000D03*
X17835000Y-12260000D03*
X17835000Y-14235000D03*
D19*
X21810000Y-7310000D03*
X21810000Y-17210000D03*
X9910000Y-17210000D03*
X9910000Y-7310000D03*
%TD*%
D20*
%TO.C,U4*%
X19035000Y-75725000D03*
X19035000Y-76995000D03*
X19035000Y-78265000D03*
X19035000Y-79535000D03*
X23985000Y-79535000D03*
X23985000Y-78265000D03*
X23985000Y-76995000D03*
X23985000Y-75725000D03*
%TD*%
D13*
%TO.C,R32*%
X5070000Y-30730000D03*
X6090000Y-30730000D03*
%TD*%
%TO.C,R26*%
X13100000Y-35460000D03*
X14120000Y-35460000D03*
%TD*%
D21*
%TO.C,T1*%
X4400000Y-67330000D03*
X14400000Y-67330000D03*
%TD*%
D22*
%TO.C,D10*%
X2730000Y-48260000D03*
X7030000Y-48260000D03*
%TD*%
D23*
%TO.C,R24*%
X2047500Y-97920000D03*
X3872500Y-97920000D03*
%TD*%
D24*
%TO.C,D5*%
X11960000Y-46190000D03*
X15960000Y-46190000D03*
%TD*%
D12*
%TO.C,Q3*%
X25682500Y-94430000D03*
X25682500Y-96330000D03*
X27557500Y-95380000D03*
%TD*%
D10*
%TO.C,C14*%
X6190000Y-13500000D03*
X7150000Y-13500000D03*
%TD*%
D24*
%TO.C,D6*%
X11880000Y-50930000D03*
X15880000Y-50930000D03*
%TD*%
D25*
%TO.C,U2*%
X4600000Y-16700000D03*
X5400000Y-16700000D03*
X5400000Y-15300000D03*
X4600000Y-15300000D03*
%TD*%
D11*
%TO.C,C2*%
X25450000Y-67330000D03*
X27350000Y-67330000D03*
%TD*%
D24*
%TO.C,D4*%
X3170000Y-53980000D03*
X7170000Y-53980000D03*
%TD*%
D12*
%TO.C,Q5*%
X24922500Y-89490000D03*
X24922500Y-91390000D03*
X26797500Y-90440000D03*
%TD*%
D10*
%TO.C,C21*%
X25070000Y-81980000D03*
X26030000Y-81980000D03*
%TD*%
D13*
%TO.C,R12*%
X3130000Y-94890000D03*
X4150000Y-94890000D03*
%TD*%
%TO.C,R9*%
X27350000Y-18330000D03*
X28370000Y-18330000D03*
%TD*%
%TO.C,R27*%
X17610000Y-36470000D03*
X18630000Y-36470000D03*
%TD*%
%TO.C,R3*%
X6410000Y-8550000D03*
X7430000Y-8550000D03*
%TD*%
D11*
%TO.C,C10*%
X1150000Y-15350000D03*
X3050000Y-15350000D03*
%TD*%
D13*
%TO.C,R28*%
X9620000Y-35950000D03*
X10640000Y-35950000D03*
%TD*%
D23*
%TO.C,R20*%
X21267500Y-40060000D03*
X23092500Y-40060000D03*
%TD*%
D10*
%TO.C,C18*%
X6250000Y-3420000D03*
X7210000Y-3420000D03*
%TD*%
D13*
%TO.C,R13*%
X24470000Y-87010000D03*
X25490000Y-87010000D03*
%TD*%
%TO.C,R33*%
X1540000Y-31530000D03*
X2560000Y-31530000D03*
%TD*%
D10*
%TO.C,C22*%
X25040000Y-84760000D03*
X26000000Y-84760000D03*
%TD*%
D24*
%TO.C,D11*%
X13000000Y-85000000D03*
X17000000Y-85000000D03*
%TD*%
D13*
%TO.C,R2*%
X6410000Y-10570000D03*
X7430000Y-10570000D03*
%TD*%
D23*
%TO.C,R25*%
X16457500Y-33510000D03*
X18282500Y-33510000D03*
%TD*%
D26*
%TO.C,D12*%
X19890000Y-58470000D03*
X19890000Y-61770000D03*
X24790000Y-61770000D03*
X24790000Y-58470000D03*
%TD*%
D11*
%TO.C,C16*%
X13650000Y-30520000D03*
X15550000Y-30520000D03*
%TD*%
%TO.C,C6*%
X6450000Y-58560000D03*
X8350000Y-58560000D03*
%TD*%
D14*
%TO.C,U5*%
X19742500Y-65560000D03*
X19742500Y-66510000D03*
X19742500Y-67460000D03*
X22017500Y-67460000D03*
X22017500Y-66510000D03*
X22017500Y-65560000D03*
%TD*%
D11*
%TO.C,C4*%
X19920000Y-54790000D03*
X21820000Y-54790000D03*
%TD*%
D23*
%TO.C,R18*%
X10347500Y-38560000D03*
X12172500Y-38560000D03*
%TD*%
D10*
%TO.C,C23*%
X5750000Y-18300000D03*
X6710000Y-18300000D03*
%TD*%
D27*
%TO.C,J1*%
X2990000Y-21110000D03*
X3790000Y-21110000D03*
X5090000Y-21110000D03*
X6090000Y-21110000D03*
X6590000Y-21110000D03*
X7590000Y-21110000D03*
X8890000Y-21110000D03*
X9690000Y-21110000D03*
X9390000Y-21110000D03*
X8590000Y-21110000D03*
X8090000Y-21110000D03*
X7090000Y-21110000D03*
X5590000Y-21110000D03*
X4590000Y-21110000D03*
X4090000Y-21110000D03*
X3290000Y-21110000D03*
%TD*%
D12*
%TO.C,Q1*%
X4692500Y-88300000D03*
X4692500Y-90200000D03*
X6567500Y-89250000D03*
%TD*%
D24*
%TO.C,D3*%
X3420000Y-42980000D03*
X7420000Y-42980000D03*
%TD*%
D23*
%TO.C,R16*%
X15837500Y-42020000D03*
X17662500Y-42020000D03*
%TD*%
D10*
%TO.C,C11*%
X2620000Y-5930000D03*
X3580000Y-5930000D03*
%TD*%
D23*
%TO.C,R17*%
X15317500Y-39070000D03*
X17142500Y-39070000D03*
%TD*%
D12*
%TO.C,D7*%
X25682500Y-13550000D03*
X25682500Y-15450000D03*
X27557500Y-14500000D03*
%TD*%
D13*
%TO.C,R8*%
X24090000Y-37530000D03*
X25110000Y-37530000D03*
%TD*%
D23*
%TO.C,R21*%
X21787500Y-43010000D03*
X23612500Y-43010000D03*
%TD*%
%TO.C,R19*%
X4537500Y-37050000D03*
X6362500Y-37050000D03*
%TD*%
D24*
%TO.C,D2*%
X12050000Y-56270000D03*
X16050000Y-56270000D03*
%TD*%
D13*
%TO.C,R36*%
X25790000Y-64620000D03*
X26810000Y-64620000D03*
%TD*%
D24*
%TO.C,D1*%
X20260000Y-50560000D03*
X24260000Y-50560000D03*
%TD*%
D10*
%TO.C,C20*%
X6190000Y-94380000D03*
X7150000Y-94380000D03*
%TD*%
D13*
%TO.C,R5*%
X20610000Y-36140000D03*
X21630000Y-36140000D03*
%TD*%
D23*
%TO.C,R23*%
X26297500Y-43470000D03*
X28122500Y-43470000D03*
%TD*%
D14*
%TO.C,U3*%
X4162500Y-78560000D03*
X4162500Y-79510000D03*
X4162500Y-80460000D03*
X6437500Y-80460000D03*
X6437500Y-78560000D03*
%TD*%
D10*
%TO.C,C9*%
X18130000Y-29445000D03*
X19090000Y-29445000D03*
%TD*%
D13*
%TO.C,R15*%
X27340000Y-74990000D03*
X28360000Y-74990000D03*
%TD*%
%TO.C,R30*%
X6220000Y-96580000D03*
X7240000Y-96580000D03*
%TD*%
D10*
%TO.C,C13*%
X1520000Y-12000000D03*
X2480000Y-12000000D03*
%TD*%
%TO.C,C8*%
X24730000Y-26100000D03*
X25690000Y-26100000D03*
%TD*%
D13*
%TO.C,R10*%
X1760000Y-58960000D03*
X2780000Y-58960000D03*
%TD*%
D10*
%TO.C,C15*%
X18140000Y-30380000D03*
X19100000Y-30380000D03*
%TD*%
D28*
%TO.C,R1*%
X21697500Y-30810000D03*
X27622500Y-30810000D03*
%TD*%
D29*
%TO.C,Q2*%
X19267500Y-70375000D03*
X19267500Y-71025000D03*
X19267500Y-71675000D03*
X19267500Y-72325000D03*
X24992500Y-72325000D03*
X24992500Y-71675000D03*
X24992500Y-71025000D03*
X24992500Y-70375000D03*
%TD*%
D13*
%TO.C,R6*%
X6160000Y-5620000D03*
X7180000Y-5620000D03*
%TD*%
D30*
%TO.C,SW1*%
X14100000Y-21170000D03*
X22060000Y-21170000D03*
X14100000Y-25670000D03*
X22060000Y-25670000D03*
%TD*%
D23*
%TO.C,R22*%
X26297500Y-40470000D03*
X28122500Y-40470000D03*
%TD*%
D14*
%TO.C,U6*%
X24722500Y-8610000D03*
X24722500Y-9560000D03*
X24722500Y-10510000D03*
X26997500Y-10510000D03*
X26997500Y-8610000D03*
%TD*%
D11*
%TO.C,C1*%
X24090000Y-46560000D03*
X25990000Y-46560000D03*
%TD*%
%TO.C,C3*%
X10780000Y-41610000D03*
X12680000Y-41610000D03*
%TD*%
D31*
%TO.C,D8*%
X23910000Y-34980000D03*
X26010000Y-34980000D03*
%TD*%
D20*
%TO.C,U7*%
X9655000Y-76085000D03*
X9655000Y-77355000D03*
X9655000Y-78625000D03*
X9655000Y-79895000D03*
X14605000Y-79895000D03*
X14605000Y-78625000D03*
X14605000Y-77355000D03*
X14605000Y-76085000D03*
%TD*%
D12*
%TO.C,D9*%
X25682500Y-3670000D03*
X25682500Y-5570000D03*
X27557500Y-4620000D03*
%TD*%
D11*
%TO.C,C17*%
X1100000Y-4140000D03*
X3000000Y-4140000D03*
%TD*%
%TO.C,C5*%
X19400000Y-46230000D03*
X21300000Y-46230000D03*
%TD*%
D13*
%TO.C,R14*%
X5080000Y-75490000D03*
X6100000Y-75490000D03*
%TD*%
D32*
%TO.C,D13*%
X27235000Y-79930000D03*
X28205000Y-79930000D03*
%TD*%
D10*
%TO.C,C24*%
X1620000Y-85740000D03*
X2580000Y-85740000D03*
%TD*%
D13*
%TO.C,R11*%
X4640000Y-39690000D03*
X5660000Y-39690000D03*
%TD*%
%TO.C,R35*%
X27470000Y-72930000D03*
X28490000Y-72930000D03*
%TD*%
D11*
%TO.C,C12*%
X24550000Y-54980000D03*
X26450000Y-54980000D03*
%TD*%
D13*
%TO.C,R34*%
X4840000Y-34430000D03*
X5860000Y-34430000D03*
%TD*%
M02*
