M48
; DRILL file {KiCad 9.0.9-9.0.9~ubuntu24.04.1} date 2026-06-09T15:47:07+0800
; FORMAT={-:-/ absolute / metric / decimal}
; #@! TF.CreationDate,2026-06-09T15:47:07+08:00
; #@! TF.GenerationSoftware,Kicad,Pcbnew,9.0.9-9.0.9~ubuntu24.04.1
; #@! TF.FileFunction,MixedPlating,1,2
FMAT,2
METRIC
; #@! TA.AperFunction,Plated,PTH,ViaDrill
T1C0.300
; #@! TA.AperFunction,Plated,PTH,ViaDrill
T2C0.350
; #@! TA.AperFunction,Plated,PTH,ComponentDrill
T3C0.600
; #@! TA.AperFunction,Plated,PTH,ComponentDrill
T4C1.000
; #@! TA.AperFunction,Plated,PTH,ComponentDrill
T5C2.200
; #@! TA.AperFunction,NonPlated,NPTH,ComponentDrill
T6C0.650
%
G90
G05
T1
X2.005Y-75.091
X2.047Y-96.704
X3.872Y-96.56
X4.15Y-91.055
X4.912Y-77.138
X5.3Y-40.965
X5.777Y-33.213
X6.068Y-27.692
X6.25Y-2.608
X6.281Y-60.557
X6.335Y-7.608
X6.427Y-93.564
X6.567Y-91.111
X8.612Y-30.236
X8.741Y-18.542
X8.957Y-10.728
X9.037Y-12.481
X9.101Y-38.865
X9.655Y-89.21
X10.346Y-34.621
X10.895Y-13.58
X11.574Y-15.794
X11.74Y-8.271
X12.116Y-24.918
X14.12Y-36.291
X14.321Y-33.437
X16.035Y-28.315
X16.084Y-78.625
X17.553Y-75.765
X17.575Y-77.451
X17.702Y-32.234
X18.474Y-74.607
X18.63Y-37.319
X19.3Y-39.201
X20.049Y-42.778
X21.164Y-61.916
X23.35Y-31.881
X23.511Y-36.747
X24.388Y-81.417
X24.922Y-90.297
X25.16Y-7.705
X25.16Y-36.409
X25.465Y-77.89
X25.79Y-63.43
X26.01Y-35.816
X26.29Y-87.365
X26.419Y-78.273
X26.693Y-28.198
X26.797Y-89.515
X26.927Y-11.467
X27.557Y-19.489
X27.557Y-94.561
X27.563Y-74.146
X27.985Y-72.203
X27.995Y-13.584
X28.149Y-76.159
X29.387Y-89.701
T2
X1.15Y-13.551
X1.956Y-6.654
X4.307Y-85.74
X4.4Y-61.389
X4.568Y-32.331
X5.508Y-92.138
X6.376Y-15.543
X6.438Y-77.439
X7.355Y-75.918
X7.818Y-44.673
X7.828Y-77.377
X8.941Y-9.06
X9.919Y-43.111
X12.061Y-36.454
X12.612Y-78.334
X17.326Y-81.194
X17.377Y-37.734
X18.608Y-48.374
X18.859Y-57.439
X18.87Y-73.634
X22.676Y-63.375
X23.59Y-86.838
X24.26Y-48.997
X24.55Y-56.326
X25.589Y-75.899
X26.427Y-9.514
X26.629Y-68.624
X27.846Y-78.964
T4
X18.5Y-92.8
X18.5Y-96.0
T5
X-10.0Y-50.0
X-10.0Y-55.0
T6
X3.45Y-22.175
X9.23Y-22.175
T3
X2.02Y-21.125G85X2.02Y-22.225
G05
X2.02Y-25.555G85X2.02Y-26.155
G05
X10.66Y-21.125G85X10.66Y-22.225
G05
X10.66Y-25.555G85X10.66Y-26.155
G05
M30
