%TF.GenerationSoftware,KiCad,Pcbnew,9.0.9-9.0.9~ubuntu24.04.1*%
%TF.CreationDate,2026-06-09T15:47:07+08:00*%
%TF.ProjectId,moskill,6d6f736b-696c-46c2-9e6b-696361645f70,rev?*%
%TF.SameCoordinates,Original*%
%TF.FileFunction,Legend,Top*%
%TF.FilePolarity,Positive*%
%FSLAX46Y46*%
G04 Gerber Fmt 4.6, Leading zero omitted, Abs format (unit mm)*
G04 Created by KiCad (PCBNEW 9.0.9-9.0.9~ubuntu24.04.1) date 2026-06-09 15:47:07*
%MOMM*%
%LPD*%
G01*
G04 APERTURE LIST*
%ADD10C,0.150000*%
%ADD11C,0.120000*%
%ADD12C,0.100000*%
G04 APERTURE END LIST*
D10*
X1707142Y-17329580D02*
X1659523Y-17377200D01*
X1659523Y-17377200D02*
X1516666Y-17424819D01*
X1516666Y-17424819D02*
X1421428Y-17424819D01*
X1421428Y-17424819D02*
X1278571Y-17377200D01*
X1278571Y-17377200D02*
X1183333Y-17281961D01*
X1183333Y-17281961D02*
X1135714Y-17186723D01*
X1135714Y-17186723D02*
X1088095Y-16996247D01*
X1088095Y-16996247D02*
X1088095Y-16853390D01*
X1088095Y-16853390D02*
X1135714Y-16662914D01*
X1135714Y-16662914D02*
X1183333Y-16567676D01*
X1183333Y-16567676D02*
X1278571Y-16472438D01*
X1278571Y-16472438D02*
X1421428Y-16424819D01*
X1421428Y-16424819D02*
X1516666Y-16424819D01*
X1516666Y-16424819D02*
X1659523Y-16472438D01*
X1659523Y-16472438D02*
X1707142Y-16520057D01*
X2659523Y-17424819D02*
X2088095Y-17424819D01*
X2373809Y-17424819D02*
X2373809Y-16424819D01*
X2373809Y-16424819D02*
X2278571Y-16567676D01*
X2278571Y-16567676D02*
X2183333Y-16662914D01*
X2183333Y-16662914D02*
X2088095Y-16710533D01*
X3135714Y-17424819D02*
X3326190Y-17424819D01*
X3326190Y-17424819D02*
X3421428Y-17377200D01*
X3421428Y-17377200D02*
X3469047Y-17329580D01*
X3469047Y-17329580D02*
X3564285Y-17186723D01*
X3564285Y-17186723D02*
X3611904Y-16996247D01*
X3611904Y-16996247D02*
X3611904Y-16615295D01*
X3611904Y-16615295D02*
X3564285Y-16520057D01*
X3564285Y-16520057D02*
X3516666Y-16472438D01*
X3516666Y-16472438D02*
X3421428Y-16424819D01*
X3421428Y-16424819D02*
X3230952Y-16424819D01*
X3230952Y-16424819D02*
X3135714Y-16472438D01*
X3135714Y-16472438D02*
X3088095Y-16520057D01*
X3088095Y-16520057D02*
X3040476Y-16615295D01*
X3040476Y-16615295D02*
X3040476Y-16853390D01*
X3040476Y-16853390D02*
X3088095Y-16948628D01*
X3088095Y-16948628D02*
X3135714Y-16996247D01*
X3135714Y-16996247D02*
X3230952Y-17043866D01*
X3230952Y-17043866D02*
X3421428Y-17043866D01*
X3421428Y-17043866D02*
X3516666Y-16996247D01*
X3516666Y-16996247D02*
X3564285Y-16948628D01*
X3564285Y-16948628D02*
X3611904Y-16853390D01*
X5603333Y-83029580D02*
X5555714Y-83077200D01*
X5555714Y-83077200D02*
X5412857Y-83124819D01*
X5412857Y-83124819D02*
X5317619Y-83124819D01*
X5317619Y-83124819D02*
X5174762Y-83077200D01*
X5174762Y-83077200D02*
X5079524Y-82981961D01*
X5079524Y-82981961D02*
X5031905Y-82886723D01*
X5031905Y-82886723D02*
X4984286Y-82696247D01*
X4984286Y-82696247D02*
X4984286Y-82553390D01*
X4984286Y-82553390D02*
X5031905Y-82362914D01*
X5031905Y-82362914D02*
X5079524Y-82267676D01*
X5079524Y-82267676D02*
X5174762Y-82172438D01*
X5174762Y-82172438D02*
X5317619Y-82124819D01*
X5317619Y-82124819D02*
X5412857Y-82124819D01*
X5412857Y-82124819D02*
X5555714Y-82172438D01*
X5555714Y-82172438D02*
X5603333Y-82220057D01*
X5936667Y-82124819D02*
X6603333Y-82124819D01*
X6603333Y-82124819D02*
X6174762Y-83124819D01*
X26474761Y-20910057D02*
X26379523Y-20862438D01*
X26379523Y-20862438D02*
X26284285Y-20767200D01*
X26284285Y-20767200D02*
X26141428Y-20624342D01*
X26141428Y-20624342D02*
X26046190Y-20576723D01*
X26046190Y-20576723D02*
X25950952Y-20576723D01*
X25998571Y-20814819D02*
X25903333Y-20767200D01*
X25903333Y-20767200D02*
X25808095Y-20671961D01*
X25808095Y-20671961D02*
X25760476Y-20481485D01*
X25760476Y-20481485D02*
X25760476Y-20148152D01*
X25760476Y-20148152D02*
X25808095Y-19957676D01*
X25808095Y-19957676D02*
X25903333Y-19862438D01*
X25903333Y-19862438D02*
X25998571Y-19814819D01*
X25998571Y-19814819D02*
X26189047Y-19814819D01*
X26189047Y-19814819D02*
X26284285Y-19862438D01*
X26284285Y-19862438D02*
X26379523Y-19957676D01*
X26379523Y-19957676D02*
X26427142Y-20148152D01*
X26427142Y-20148152D02*
X26427142Y-20481485D01*
X26427142Y-20481485D02*
X26379523Y-20671961D01*
X26379523Y-20671961D02*
X26284285Y-20767200D01*
X26284285Y-20767200D02*
X26189047Y-20814819D01*
X26189047Y-20814819D02*
X25998571Y-20814819D01*
X27284285Y-20148152D02*
X27284285Y-20814819D01*
X27046190Y-19767200D02*
X26808095Y-20481485D01*
X26808095Y-20481485D02*
X27427142Y-20481485D01*
X1687142Y-75264819D02*
X1353809Y-74788628D01*
X1115714Y-75264819D02*
X1115714Y-74264819D01*
X1115714Y-74264819D02*
X1496666Y-74264819D01*
X1496666Y-74264819D02*
X1591904Y-74312438D01*
X1591904Y-74312438D02*
X1639523Y-74360057D01*
X1639523Y-74360057D02*
X1687142Y-74455295D01*
X1687142Y-74455295D02*
X1687142Y-74598152D01*
X1687142Y-74598152D02*
X1639523Y-74693390D01*
X1639523Y-74693390D02*
X1591904Y-74741009D01*
X1591904Y-74741009D02*
X1496666Y-74788628D01*
X1496666Y-74788628D02*
X1115714Y-74788628D01*
X2020476Y-74264819D02*
X2639523Y-74264819D01*
X2639523Y-74264819D02*
X2306190Y-74645771D01*
X2306190Y-74645771D02*
X2449047Y-74645771D01*
X2449047Y-74645771D02*
X2544285Y-74693390D01*
X2544285Y-74693390D02*
X2591904Y-74741009D01*
X2591904Y-74741009D02*
X2639523Y-74836247D01*
X2639523Y-74836247D02*
X2639523Y-75074342D01*
X2639523Y-75074342D02*
X2591904Y-75169580D01*
X2591904Y-75169580D02*
X2544285Y-75217200D01*
X2544285Y-75217200D02*
X2449047Y-75264819D01*
X2449047Y-75264819D02*
X2163333Y-75264819D01*
X2163333Y-75264819D02*
X2068095Y-75217200D01*
X2068095Y-75217200D02*
X2020476Y-75169580D01*
X3591904Y-75264819D02*
X3020476Y-75264819D01*
X3306190Y-75264819D02*
X3306190Y-74264819D01*
X3306190Y-74264819D02*
X3210952Y-74407676D01*
X3210952Y-74407676D02*
X3115714Y-74502914D01*
X3115714Y-74502914D02*
X3020476Y-74550533D01*
X27453333Y-36784819D02*
X27120000Y-36308628D01*
X26881905Y-36784819D02*
X26881905Y-35784819D01*
X26881905Y-35784819D02*
X27262857Y-35784819D01*
X27262857Y-35784819D02*
X27358095Y-35832438D01*
X27358095Y-35832438D02*
X27405714Y-35880057D01*
X27405714Y-35880057D02*
X27453333Y-35975295D01*
X27453333Y-35975295D02*
X27453333Y-36118152D01*
X27453333Y-36118152D02*
X27405714Y-36213390D01*
X27405714Y-36213390D02*
X27358095Y-36261009D01*
X27358095Y-36261009D02*
X27262857Y-36308628D01*
X27262857Y-36308628D02*
X26881905Y-36308628D01*
X27786667Y-35784819D02*
X28453333Y-35784819D01*
X28453333Y-35784819D02*
X28024762Y-36784819D01*
X27317142Y-50554819D02*
X26983809Y-50078628D01*
X26745714Y-50554819D02*
X26745714Y-49554819D01*
X26745714Y-49554819D02*
X27126666Y-49554819D01*
X27126666Y-49554819D02*
X27221904Y-49602438D01*
X27221904Y-49602438D02*
X27269523Y-49650057D01*
X27269523Y-49650057D02*
X27317142Y-49745295D01*
X27317142Y-49745295D02*
X27317142Y-49888152D01*
X27317142Y-49888152D02*
X27269523Y-49983390D01*
X27269523Y-49983390D02*
X27221904Y-50031009D01*
X27221904Y-50031009D02*
X27126666Y-50078628D01*
X27126666Y-50078628D02*
X26745714Y-50078628D01*
X27698095Y-49650057D02*
X27745714Y-49602438D01*
X27745714Y-49602438D02*
X27840952Y-49554819D01*
X27840952Y-49554819D02*
X28079047Y-49554819D01*
X28079047Y-49554819D02*
X28174285Y-49602438D01*
X28174285Y-49602438D02*
X28221904Y-49650057D01*
X28221904Y-49650057D02*
X28269523Y-49745295D01*
X28269523Y-49745295D02*
X28269523Y-49840533D01*
X28269523Y-49840533D02*
X28221904Y-49983390D01*
X28221904Y-49983390D02*
X27650476Y-50554819D01*
X27650476Y-50554819D02*
X28269523Y-50554819D01*
X28745714Y-50554819D02*
X28936190Y-50554819D01*
X28936190Y-50554819D02*
X29031428Y-50507200D01*
X29031428Y-50507200D02*
X29079047Y-50459580D01*
X29079047Y-50459580D02*
X29174285Y-50316723D01*
X29174285Y-50316723D02*
X29221904Y-50126247D01*
X29221904Y-50126247D02*
X29221904Y-49745295D01*
X29221904Y-49745295D02*
X29174285Y-49650057D01*
X29174285Y-49650057D02*
X29126666Y-49602438D01*
X29126666Y-49602438D02*
X29031428Y-49554819D01*
X29031428Y-49554819D02*
X28840952Y-49554819D01*
X28840952Y-49554819D02*
X28745714Y-49602438D01*
X28745714Y-49602438D02*
X28698095Y-49650057D01*
X28698095Y-49650057D02*
X28650476Y-49745295D01*
X28650476Y-49745295D02*
X28650476Y-49983390D01*
X28650476Y-49983390D02*
X28698095Y-50078628D01*
X28698095Y-50078628D02*
X28745714Y-50126247D01*
X28745714Y-50126247D02*
X28840952Y-50173866D01*
X28840952Y-50173866D02*
X29031428Y-50173866D01*
X29031428Y-50173866D02*
X29126666Y-50126247D01*
X29126666Y-50126247D02*
X29174285Y-50078628D01*
X29174285Y-50078628D02*
X29221904Y-49983390D01*
X8988095Y-29074819D02*
X8988095Y-29884342D01*
X8988095Y-29884342D02*
X9035714Y-29979580D01*
X9035714Y-29979580D02*
X9083333Y-30027200D01*
X9083333Y-30027200D02*
X9178571Y-30074819D01*
X9178571Y-30074819D02*
X9369047Y-30074819D01*
X9369047Y-30074819D02*
X9464285Y-30027200D01*
X9464285Y-30027200D02*
X9511904Y-29979580D01*
X9511904Y-29979580D02*
X9559523Y-29884342D01*
X9559523Y-29884342D02*
X9559523Y-29074819D01*
X10178571Y-29503390D02*
X10083333Y-29455771D01*
X10083333Y-29455771D02*
X10035714Y-29408152D01*
X10035714Y-29408152D02*
X9988095Y-29312914D01*
X9988095Y-29312914D02*
X9988095Y-29265295D01*
X9988095Y-29265295D02*
X10035714Y-29170057D01*
X10035714Y-29170057D02*
X10083333Y-29122438D01*
X10083333Y-29122438D02*
X10178571Y-29074819D01*
X10178571Y-29074819D02*
X10369047Y-29074819D01*
X10369047Y-29074819D02*
X10464285Y-29122438D01*
X10464285Y-29122438D02*
X10511904Y-29170057D01*
X10511904Y-29170057D02*
X10559523Y-29265295D01*
X10559523Y-29265295D02*
X10559523Y-29312914D01*
X10559523Y-29312914D02*
X10511904Y-29408152D01*
X10511904Y-29408152D02*
X10464285Y-29455771D01*
X10464285Y-29455771D02*
X10369047Y-29503390D01*
X10369047Y-29503390D02*
X10178571Y-29503390D01*
X10178571Y-29503390D02*
X10083333Y-29551009D01*
X10083333Y-29551009D02*
X10035714Y-29598628D01*
X10035714Y-29598628D02*
X9988095Y-29693866D01*
X9988095Y-29693866D02*
X9988095Y-29884342D01*
X9988095Y-29884342D02*
X10035714Y-29979580D01*
X10035714Y-29979580D02*
X10083333Y-30027200D01*
X10083333Y-30027200D02*
X10178571Y-30074819D01*
X10178571Y-30074819D02*
X10369047Y-30074819D01*
X10369047Y-30074819D02*
X10464285Y-30027200D01*
X10464285Y-30027200D02*
X10511904Y-29979580D01*
X10511904Y-29979580D02*
X10559523Y-29884342D01*
X10559523Y-29884342D02*
X10559523Y-29693866D01*
X10559523Y-29693866D02*
X10511904Y-29598628D01*
X10511904Y-29598628D02*
X10464285Y-29551009D01*
X10464285Y-29551009D02*
X10369047Y-29503390D01*
X27343333Y-76914819D02*
X27010000Y-76438628D01*
X26771905Y-76914819D02*
X26771905Y-75914819D01*
X26771905Y-75914819D02*
X27152857Y-75914819D01*
X27152857Y-75914819D02*
X27248095Y-75962438D01*
X27248095Y-75962438D02*
X27295714Y-76010057D01*
X27295714Y-76010057D02*
X27343333Y-76105295D01*
X27343333Y-76105295D02*
X27343333Y-76248152D01*
X27343333Y-76248152D02*
X27295714Y-76343390D01*
X27295714Y-76343390D02*
X27248095Y-76391009D01*
X27248095Y-76391009D02*
X27152857Y-76438628D01*
X27152857Y-76438628D02*
X26771905Y-76438628D01*
X28200476Y-76248152D02*
X28200476Y-76914819D01*
X27962381Y-75867200D02*
X27724286Y-76581485D01*
X27724286Y-76581485D02*
X28343333Y-76581485D01*
X11098094Y-3879104D02*
X11574284Y-3879104D01*
X11002856Y-4164819D02*
X11336189Y-3164819D01*
X11336189Y-3164819D02*
X11669522Y-4164819D01*
X12002856Y-3498152D02*
X12002856Y-4164819D01*
X12002856Y-3593390D02*
X12050475Y-3545771D01*
X12050475Y-3545771D02*
X12145713Y-3498152D01*
X12145713Y-3498152D02*
X12288570Y-3498152D01*
X12288570Y-3498152D02*
X12383808Y-3545771D01*
X12383808Y-3545771D02*
X12431427Y-3641009D01*
X12431427Y-3641009D02*
X12431427Y-4164819D01*
X12764761Y-3498152D02*
X13145713Y-3498152D01*
X12907618Y-3164819D02*
X12907618Y-4021961D01*
X12907618Y-4021961D02*
X12955237Y-4117200D01*
X12955237Y-4117200D02*
X13050475Y-4164819D01*
X13050475Y-4164819D02*
X13145713Y-4164819D01*
X13859999Y-4117200D02*
X13764761Y-4164819D01*
X13764761Y-4164819D02*
X13574285Y-4164819D01*
X13574285Y-4164819D02*
X13479047Y-4117200D01*
X13479047Y-4117200D02*
X13431428Y-4021961D01*
X13431428Y-4021961D02*
X13431428Y-3641009D01*
X13431428Y-3641009D02*
X13479047Y-3545771D01*
X13479047Y-3545771D02*
X13574285Y-3498152D01*
X13574285Y-3498152D02*
X13764761Y-3498152D01*
X13764761Y-3498152D02*
X13859999Y-3545771D01*
X13859999Y-3545771D02*
X13907618Y-3641009D01*
X13907618Y-3641009D02*
X13907618Y-3736247D01*
X13907618Y-3736247D02*
X13431428Y-3831485D01*
X14336190Y-3498152D02*
X14336190Y-4164819D01*
X14336190Y-3593390D02*
X14383809Y-3545771D01*
X14383809Y-3545771D02*
X14479047Y-3498152D01*
X14479047Y-3498152D02*
X14621904Y-3498152D01*
X14621904Y-3498152D02*
X14717142Y-3545771D01*
X14717142Y-3545771D02*
X14764761Y-3641009D01*
X14764761Y-3641009D02*
X14764761Y-4164819D01*
X15240952Y-3498152D02*
X15240952Y-4164819D01*
X15240952Y-3593390D02*
X15288571Y-3545771D01*
X15288571Y-3545771D02*
X15383809Y-3498152D01*
X15383809Y-3498152D02*
X15526666Y-3498152D01*
X15526666Y-3498152D02*
X15621904Y-3545771D01*
X15621904Y-3545771D02*
X15669523Y-3641009D01*
X15669523Y-3641009D02*
X15669523Y-4164819D01*
X16574285Y-4164819D02*
X16574285Y-3641009D01*
X16574285Y-3641009D02*
X16526666Y-3545771D01*
X16526666Y-3545771D02*
X16431428Y-3498152D01*
X16431428Y-3498152D02*
X16240952Y-3498152D01*
X16240952Y-3498152D02*
X16145714Y-3545771D01*
X16574285Y-4117200D02*
X16479047Y-4164819D01*
X16479047Y-4164819D02*
X16240952Y-4164819D01*
X16240952Y-4164819D02*
X16145714Y-4117200D01*
X16145714Y-4117200D02*
X16098095Y-4021961D01*
X16098095Y-4021961D02*
X16098095Y-3926723D01*
X16098095Y-3926723D02*
X16145714Y-3831485D01*
X16145714Y-3831485D02*
X16240952Y-3783866D01*
X16240952Y-3783866D02*
X16479047Y-3783866D01*
X16479047Y-3783866D02*
X16574285Y-3736247D01*
X17764762Y-3879104D02*
X18240952Y-3879104D01*
X17669524Y-4164819D02*
X18002857Y-3164819D01*
X18002857Y-3164819D02*
X18336190Y-4164819D01*
X18669524Y-4164819D02*
X18669524Y-3498152D01*
X18669524Y-3688628D02*
X18717143Y-3593390D01*
X18717143Y-3593390D02*
X18764762Y-3545771D01*
X18764762Y-3545771D02*
X18860000Y-3498152D01*
X18860000Y-3498152D02*
X18955238Y-3498152D01*
X19669524Y-4117200D02*
X19574286Y-4164819D01*
X19574286Y-4164819D02*
X19383810Y-4164819D01*
X19383810Y-4164819D02*
X19288572Y-4117200D01*
X19288572Y-4117200D02*
X19240953Y-4021961D01*
X19240953Y-4021961D02*
X19240953Y-3641009D01*
X19240953Y-3641009D02*
X19288572Y-3545771D01*
X19288572Y-3545771D02*
X19383810Y-3498152D01*
X19383810Y-3498152D02*
X19574286Y-3498152D01*
X19574286Y-3498152D02*
X19669524Y-3545771D01*
X19669524Y-3545771D02*
X19717143Y-3641009D01*
X19717143Y-3641009D02*
X19717143Y-3736247D01*
X19717143Y-3736247D02*
X19240953Y-3831485D01*
X20574286Y-4164819D02*
X20574286Y-3641009D01*
X20574286Y-3641009D02*
X20526667Y-3545771D01*
X20526667Y-3545771D02*
X20431429Y-3498152D01*
X20431429Y-3498152D02*
X20240953Y-3498152D01*
X20240953Y-3498152D02*
X20145715Y-3545771D01*
X20574286Y-4117200D02*
X20479048Y-4164819D01*
X20479048Y-4164819D02*
X20240953Y-4164819D01*
X20240953Y-4164819D02*
X20145715Y-4117200D01*
X20145715Y-4117200D02*
X20098096Y-4021961D01*
X20098096Y-4021961D02*
X20098096Y-3926723D01*
X20098096Y-3926723D02*
X20145715Y-3831485D01*
X20145715Y-3831485D02*
X20240953Y-3783866D01*
X20240953Y-3783866D02*
X20479048Y-3783866D01*
X20479048Y-3783866D02*
X20574286Y-3736247D01*
X20748095Y-73684819D02*
X20748095Y-74494342D01*
X20748095Y-74494342D02*
X20795714Y-74589580D01*
X20795714Y-74589580D02*
X20843333Y-74637200D01*
X20843333Y-74637200D02*
X20938571Y-74684819D01*
X20938571Y-74684819D02*
X21129047Y-74684819D01*
X21129047Y-74684819D02*
X21224285Y-74637200D01*
X21224285Y-74637200D02*
X21271904Y-74589580D01*
X21271904Y-74589580D02*
X21319523Y-74494342D01*
X21319523Y-74494342D02*
X21319523Y-73684819D01*
X22224285Y-74018152D02*
X22224285Y-74684819D01*
X21986190Y-73637200D02*
X21748095Y-74351485D01*
X21748095Y-74351485D02*
X22367142Y-74351485D01*
X4937142Y-28018319D02*
X4603809Y-27542128D01*
X4365714Y-28018319D02*
X4365714Y-27018319D01*
X4365714Y-27018319D02*
X4746666Y-27018319D01*
X4746666Y-27018319D02*
X4841904Y-27065938D01*
X4841904Y-27065938D02*
X4889523Y-27113557D01*
X4889523Y-27113557D02*
X4937142Y-27208795D01*
X4937142Y-27208795D02*
X4937142Y-27351652D01*
X4937142Y-27351652D02*
X4889523Y-27446890D01*
X4889523Y-27446890D02*
X4841904Y-27494509D01*
X4841904Y-27494509D02*
X4746666Y-27542128D01*
X4746666Y-27542128D02*
X4365714Y-27542128D01*
X5270476Y-27018319D02*
X5889523Y-27018319D01*
X5889523Y-27018319D02*
X5556190Y-27399271D01*
X5556190Y-27399271D02*
X5699047Y-27399271D01*
X5699047Y-27399271D02*
X5794285Y-27446890D01*
X5794285Y-27446890D02*
X5841904Y-27494509D01*
X5841904Y-27494509D02*
X5889523Y-27589747D01*
X5889523Y-27589747D02*
X5889523Y-27827842D01*
X5889523Y-27827842D02*
X5841904Y-27923080D01*
X5841904Y-27923080D02*
X5794285Y-27970700D01*
X5794285Y-27970700D02*
X5699047Y-28018319D01*
X5699047Y-28018319D02*
X5413333Y-28018319D01*
X5413333Y-28018319D02*
X5318095Y-27970700D01*
X5318095Y-27970700D02*
X5270476Y-27923080D01*
X6270476Y-27113557D02*
X6318095Y-27065938D01*
X6318095Y-27065938D02*
X6413333Y-27018319D01*
X6413333Y-27018319D02*
X6651428Y-27018319D01*
X6651428Y-27018319D02*
X6746666Y-27065938D01*
X6746666Y-27065938D02*
X6794285Y-27113557D01*
X6794285Y-27113557D02*
X6841904Y-27208795D01*
X6841904Y-27208795D02*
X6841904Y-27304033D01*
X6841904Y-27304033D02*
X6794285Y-27446890D01*
X6794285Y-27446890D02*
X6222857Y-28018319D01*
X6222857Y-28018319D02*
X6841904Y-28018319D01*
X12967142Y-34744819D02*
X12633809Y-34268628D01*
X12395714Y-34744819D02*
X12395714Y-33744819D01*
X12395714Y-33744819D02*
X12776666Y-33744819D01*
X12776666Y-33744819D02*
X12871904Y-33792438D01*
X12871904Y-33792438D02*
X12919523Y-33840057D01*
X12919523Y-33840057D02*
X12967142Y-33935295D01*
X12967142Y-33935295D02*
X12967142Y-34078152D01*
X12967142Y-34078152D02*
X12919523Y-34173390D01*
X12919523Y-34173390D02*
X12871904Y-34221009D01*
X12871904Y-34221009D02*
X12776666Y-34268628D01*
X12776666Y-34268628D02*
X12395714Y-34268628D01*
X13348095Y-33840057D02*
X13395714Y-33792438D01*
X13395714Y-33792438D02*
X13490952Y-33744819D01*
X13490952Y-33744819D02*
X13729047Y-33744819D01*
X13729047Y-33744819D02*
X13824285Y-33792438D01*
X13824285Y-33792438D02*
X13871904Y-33840057D01*
X13871904Y-33840057D02*
X13919523Y-33935295D01*
X13919523Y-33935295D02*
X13919523Y-34030533D01*
X13919523Y-34030533D02*
X13871904Y-34173390D01*
X13871904Y-34173390D02*
X13300476Y-34744819D01*
X13300476Y-34744819D02*
X13919523Y-34744819D01*
X14776666Y-33744819D02*
X14586190Y-33744819D01*
X14586190Y-33744819D02*
X14490952Y-33792438D01*
X14490952Y-33792438D02*
X14443333Y-33840057D01*
X14443333Y-33840057D02*
X14348095Y-33982914D01*
X14348095Y-33982914D02*
X14300476Y-34173390D01*
X14300476Y-34173390D02*
X14300476Y-34554342D01*
X14300476Y-34554342D02*
X14348095Y-34649580D01*
X14348095Y-34649580D02*
X14395714Y-34697200D01*
X14395714Y-34697200D02*
X14490952Y-34744819D01*
X14490952Y-34744819D02*
X14681428Y-34744819D01*
X14681428Y-34744819D02*
X14776666Y-34697200D01*
X14776666Y-34697200D02*
X14824285Y-34649580D01*
X14824285Y-34649580D02*
X14871904Y-34554342D01*
X14871904Y-34554342D02*
X14871904Y-34316247D01*
X14871904Y-34316247D02*
X14824285Y-34221009D01*
X14824285Y-34221009D02*
X14776666Y-34173390D01*
X14776666Y-34173390D02*
X14681428Y-34125771D01*
X14681428Y-34125771D02*
X14490952Y-34125771D01*
X14490952Y-34125771D02*
X14395714Y-34173390D01*
X14395714Y-34173390D02*
X14348095Y-34221009D01*
X14348095Y-34221009D02*
X14300476Y-34316247D01*
X17195238Y-67134819D02*
X17766666Y-67134819D01*
X17480952Y-68134819D02*
X17480952Y-67134819D01*
X18623809Y-68134819D02*
X18052381Y-68134819D01*
X18338095Y-68134819D02*
X18338095Y-67134819D01*
X18338095Y-67134819D02*
X18242857Y-67277676D01*
X18242857Y-67277676D02*
X18147619Y-67372914D01*
X18147619Y-67372914D02*
X18052381Y-67420533D01*
X8250715Y-46694819D02*
X8250715Y-45694819D01*
X8250715Y-45694819D02*
X8488810Y-45694819D01*
X8488810Y-45694819D02*
X8631667Y-45742438D01*
X8631667Y-45742438D02*
X8726905Y-45837676D01*
X8726905Y-45837676D02*
X8774524Y-45932914D01*
X8774524Y-45932914D02*
X8822143Y-46123390D01*
X8822143Y-46123390D02*
X8822143Y-46266247D01*
X8822143Y-46266247D02*
X8774524Y-46456723D01*
X8774524Y-46456723D02*
X8726905Y-46551961D01*
X8726905Y-46551961D02*
X8631667Y-46647200D01*
X8631667Y-46647200D02*
X8488810Y-46694819D01*
X8488810Y-46694819D02*
X8250715Y-46694819D01*
X9726905Y-45694819D02*
X9250715Y-45694819D01*
X9250715Y-45694819D02*
X9203096Y-46171009D01*
X9203096Y-46171009D02*
X9250715Y-46123390D01*
X9250715Y-46123390D02*
X9345953Y-46075771D01*
X9345953Y-46075771D02*
X9584048Y-46075771D01*
X9584048Y-46075771D02*
X9679286Y-46123390D01*
X9679286Y-46123390D02*
X9726905Y-46171009D01*
X9726905Y-46171009D02*
X9774524Y-46266247D01*
X9774524Y-46266247D02*
X9774524Y-46504342D01*
X9774524Y-46504342D02*
X9726905Y-46599580D01*
X9726905Y-46599580D02*
X9679286Y-46647200D01*
X9679286Y-46647200D02*
X9584048Y-46694819D01*
X9584048Y-46694819D02*
X9345953Y-46694819D01*
X9345953Y-46694819D02*
X9250715Y-46647200D01*
X9250715Y-46647200D02*
X9203096Y-46599580D01*
X6027142Y-12699580D02*
X5979523Y-12747200D01*
X5979523Y-12747200D02*
X5836666Y-12794819D01*
X5836666Y-12794819D02*
X5741428Y-12794819D01*
X5741428Y-12794819D02*
X5598571Y-12747200D01*
X5598571Y-12747200D02*
X5503333Y-12651961D01*
X5503333Y-12651961D02*
X5455714Y-12556723D01*
X5455714Y-12556723D02*
X5408095Y-12366247D01*
X5408095Y-12366247D02*
X5408095Y-12223390D01*
X5408095Y-12223390D02*
X5455714Y-12032914D01*
X5455714Y-12032914D02*
X5503333Y-11937676D01*
X5503333Y-11937676D02*
X5598571Y-11842438D01*
X5598571Y-11842438D02*
X5741428Y-11794819D01*
X5741428Y-11794819D02*
X5836666Y-11794819D01*
X5836666Y-11794819D02*
X5979523Y-11842438D01*
X5979523Y-11842438D02*
X6027142Y-11890057D01*
X6979523Y-12794819D02*
X6408095Y-12794819D01*
X6693809Y-12794819D02*
X6693809Y-11794819D01*
X6693809Y-11794819D02*
X6598571Y-11937676D01*
X6598571Y-11937676D02*
X6503333Y-12032914D01*
X6503333Y-12032914D02*
X6408095Y-12080533D01*
X7836666Y-12128152D02*
X7836666Y-12794819D01*
X7598571Y-11747200D02*
X7360476Y-12461485D01*
X7360476Y-12461485D02*
X7979523Y-12461485D01*
X8170715Y-51434819D02*
X8170715Y-50434819D01*
X8170715Y-50434819D02*
X8408810Y-50434819D01*
X8408810Y-50434819D02*
X8551667Y-50482438D01*
X8551667Y-50482438D02*
X8646905Y-50577676D01*
X8646905Y-50577676D02*
X8694524Y-50672914D01*
X8694524Y-50672914D02*
X8742143Y-50863390D01*
X8742143Y-50863390D02*
X8742143Y-51006247D01*
X8742143Y-51006247D02*
X8694524Y-51196723D01*
X8694524Y-51196723D02*
X8646905Y-51291961D01*
X8646905Y-51291961D02*
X8551667Y-51387200D01*
X8551667Y-51387200D02*
X8408810Y-51434819D01*
X8408810Y-51434819D02*
X8170715Y-51434819D01*
X9599286Y-50434819D02*
X9408810Y-50434819D01*
X9408810Y-50434819D02*
X9313572Y-50482438D01*
X9313572Y-50482438D02*
X9265953Y-50530057D01*
X9265953Y-50530057D02*
X9170715Y-50672914D01*
X9170715Y-50672914D02*
X9123096Y-50863390D01*
X9123096Y-50863390D02*
X9123096Y-51244342D01*
X9123096Y-51244342D02*
X9170715Y-51339580D01*
X9170715Y-51339580D02*
X9218334Y-51387200D01*
X9218334Y-51387200D02*
X9313572Y-51434819D01*
X9313572Y-51434819D02*
X9504048Y-51434819D01*
X9504048Y-51434819D02*
X9599286Y-51387200D01*
X9599286Y-51387200D02*
X9646905Y-51339580D01*
X9646905Y-51339580D02*
X9694524Y-51244342D01*
X9694524Y-51244342D02*
X9694524Y-51006247D01*
X9694524Y-51006247D02*
X9646905Y-50911009D01*
X9646905Y-50911009D02*
X9599286Y-50863390D01*
X9599286Y-50863390D02*
X9504048Y-50815771D01*
X9504048Y-50815771D02*
X9313572Y-50815771D01*
X9313572Y-50815771D02*
X9218334Y-50863390D01*
X9218334Y-50863390D02*
X9170715Y-50911009D01*
X9170715Y-50911009D02*
X9123096Y-51006247D01*
X21516667Y-71366080D02*
X21469048Y-71413700D01*
X21469048Y-71413700D02*
X21326191Y-71461319D01*
X21326191Y-71461319D02*
X21230953Y-71461319D01*
X21230953Y-71461319D02*
X21088096Y-71413700D01*
X21088096Y-71413700D02*
X20992858Y-71318461D01*
X20992858Y-71318461D02*
X20945239Y-71223223D01*
X20945239Y-71223223D02*
X20897620Y-71032747D01*
X20897620Y-71032747D02*
X20897620Y-70889890D01*
X20897620Y-70889890D02*
X20945239Y-70699414D01*
X20945239Y-70699414D02*
X20992858Y-70604176D01*
X20992858Y-70604176D02*
X21088096Y-70508938D01*
X21088096Y-70508938D02*
X21230953Y-70461319D01*
X21230953Y-70461319D02*
X21326191Y-70461319D01*
X21326191Y-70461319D02*
X21469048Y-70508938D01*
X21469048Y-70508938D02*
X21516667Y-70556557D01*
X21897620Y-70556557D02*
X21945239Y-70508938D01*
X21945239Y-70508938D02*
X22040477Y-70461319D01*
X22040477Y-70461319D02*
X22278572Y-70461319D01*
X22278572Y-70461319D02*
X22373810Y-70508938D01*
X22373810Y-70508938D02*
X22421429Y-70556557D01*
X22421429Y-70556557D02*
X22469048Y-70651795D01*
X22469048Y-70651795D02*
X22469048Y-70747033D01*
X22469048Y-70747033D02*
X22421429Y-70889890D01*
X22421429Y-70889890D02*
X21850001Y-71461319D01*
X21850001Y-71461319D02*
X22469048Y-71461319D01*
X4431905Y-51934819D02*
X4431905Y-50934819D01*
X4431905Y-50934819D02*
X4670000Y-50934819D01*
X4670000Y-50934819D02*
X4812857Y-50982438D01*
X4812857Y-50982438D02*
X4908095Y-51077676D01*
X4908095Y-51077676D02*
X4955714Y-51172914D01*
X4955714Y-51172914D02*
X5003333Y-51363390D01*
X5003333Y-51363390D02*
X5003333Y-51506247D01*
X5003333Y-51506247D02*
X4955714Y-51696723D01*
X4955714Y-51696723D02*
X4908095Y-51791961D01*
X4908095Y-51791961D02*
X4812857Y-51887200D01*
X4812857Y-51887200D02*
X4670000Y-51934819D01*
X4670000Y-51934819D02*
X4431905Y-51934819D01*
X5860476Y-51268152D02*
X5860476Y-51934819D01*
X5622381Y-50887200D02*
X5384286Y-51601485D01*
X5384286Y-51601485D02*
X6003333Y-51601485D01*
X21309999Y-95386557D02*
X21214761Y-95338938D01*
X21214761Y-95338938D02*
X21119523Y-95243700D01*
X21119523Y-95243700D02*
X20976666Y-95100842D01*
X20976666Y-95100842D02*
X20881428Y-95053223D01*
X20881428Y-95053223D02*
X20786190Y-95053223D01*
X20833809Y-95291319D02*
X20738571Y-95243700D01*
X20738571Y-95243700D02*
X20643333Y-95148461D01*
X20643333Y-95148461D02*
X20595714Y-94957985D01*
X20595714Y-94957985D02*
X20595714Y-94624652D01*
X20595714Y-94624652D02*
X20643333Y-94434176D01*
X20643333Y-94434176D02*
X20738571Y-94338938D01*
X20738571Y-94338938D02*
X20833809Y-94291319D01*
X20833809Y-94291319D02*
X21024285Y-94291319D01*
X21024285Y-94291319D02*
X21119523Y-94338938D01*
X21119523Y-94338938D02*
X21214761Y-94434176D01*
X21214761Y-94434176D02*
X21262380Y-94624652D01*
X21262380Y-94624652D02*
X21262380Y-94957985D01*
X21262380Y-94957985D02*
X21214761Y-95148461D01*
X21214761Y-95148461D02*
X21119523Y-95243700D01*
X21119523Y-95243700D02*
X21024285Y-95291319D01*
X21024285Y-95291319D02*
X20833809Y-95291319D01*
X22167142Y-94291319D02*
X21690952Y-94291319D01*
X21690952Y-94291319D02*
X21643333Y-94767509D01*
X21643333Y-94767509D02*
X21690952Y-94719890D01*
X21690952Y-94719890D02*
X21786190Y-94672271D01*
X21786190Y-94672271D02*
X22024285Y-94672271D01*
X22024285Y-94672271D02*
X22119523Y-94719890D01*
X22119523Y-94719890D02*
X22167142Y-94767509D01*
X22167142Y-94767509D02*
X22214761Y-94862747D01*
X22214761Y-94862747D02*
X22214761Y-95100842D01*
X22214761Y-95100842D02*
X22167142Y-95196080D01*
X22167142Y-95196080D02*
X22119523Y-95243700D01*
X22119523Y-95243700D02*
X22024285Y-95291319D01*
X22024285Y-95291319D02*
X21786190Y-95291319D01*
X21786190Y-95291319D02*
X21690952Y-95243700D01*
X21690952Y-95243700D02*
X21643333Y-95196080D01*
X6928094Y-98511319D02*
X6594761Y-98035128D01*
X6356666Y-98511319D02*
X6356666Y-97511319D01*
X6356666Y-97511319D02*
X6737618Y-97511319D01*
X6737618Y-97511319D02*
X6832856Y-97558938D01*
X6832856Y-97558938D02*
X6880475Y-97606557D01*
X6880475Y-97606557D02*
X6928094Y-97701795D01*
X6928094Y-97701795D02*
X6928094Y-97844652D01*
X6928094Y-97844652D02*
X6880475Y-97939890D01*
X6880475Y-97939890D02*
X6832856Y-97987509D01*
X6832856Y-97987509D02*
X6737618Y-98035128D01*
X6737618Y-98035128D02*
X6356666Y-98035128D01*
X7880475Y-98511319D02*
X7309047Y-98511319D01*
X7594761Y-98511319D02*
X7594761Y-97511319D01*
X7594761Y-97511319D02*
X7499523Y-97654176D01*
X7499523Y-97654176D02*
X7404285Y-97749414D01*
X7404285Y-97749414D02*
X7309047Y-97797033D01*
X8261428Y-97606557D02*
X8309047Y-97558938D01*
X8309047Y-97558938D02*
X8404285Y-97511319D01*
X8404285Y-97511319D02*
X8642380Y-97511319D01*
X8642380Y-97511319D02*
X8737618Y-97558938D01*
X8737618Y-97558938D02*
X8785237Y-97606557D01*
X8785237Y-97606557D02*
X8832856Y-97701795D01*
X8832856Y-97701795D02*
X8832856Y-97797033D01*
X8832856Y-97797033D02*
X8785237Y-97939890D01*
X8785237Y-97939890D02*
X8213809Y-98511319D01*
X8213809Y-98511319D02*
X8832856Y-98511319D01*
X27693333Y-17614819D02*
X27360000Y-17138628D01*
X27121905Y-17614819D02*
X27121905Y-16614819D01*
X27121905Y-16614819D02*
X27502857Y-16614819D01*
X27502857Y-16614819D02*
X27598095Y-16662438D01*
X27598095Y-16662438D02*
X27645714Y-16710057D01*
X27645714Y-16710057D02*
X27693333Y-16805295D01*
X27693333Y-16805295D02*
X27693333Y-16948152D01*
X27693333Y-16948152D02*
X27645714Y-17043390D01*
X27645714Y-17043390D02*
X27598095Y-17091009D01*
X27598095Y-17091009D02*
X27502857Y-17138628D01*
X27502857Y-17138628D02*
X27121905Y-17138628D01*
X28169524Y-17614819D02*
X28360000Y-17614819D01*
X28360000Y-17614819D02*
X28455238Y-17567200D01*
X28455238Y-17567200D02*
X28502857Y-17519580D01*
X28502857Y-17519580D02*
X28598095Y-17376723D01*
X28598095Y-17376723D02*
X28645714Y-17186247D01*
X28645714Y-17186247D02*
X28645714Y-16805295D01*
X28645714Y-16805295D02*
X28598095Y-16710057D01*
X28598095Y-16710057D02*
X28550476Y-16662438D01*
X28550476Y-16662438D02*
X28455238Y-16614819D01*
X28455238Y-16614819D02*
X28264762Y-16614819D01*
X28264762Y-16614819D02*
X28169524Y-16662438D01*
X28169524Y-16662438D02*
X28121905Y-16710057D01*
X28121905Y-16710057D02*
X28074286Y-16805295D01*
X28074286Y-16805295D02*
X28074286Y-17043390D01*
X28074286Y-17043390D02*
X28121905Y-17138628D01*
X28121905Y-17138628D02*
X28169524Y-17186247D01*
X28169524Y-17186247D02*
X28264762Y-17233866D01*
X28264762Y-17233866D02*
X28455238Y-17233866D01*
X28455238Y-17233866D02*
X28550476Y-17186247D01*
X28550476Y-17186247D02*
X28598095Y-17138628D01*
X28598095Y-17138628D02*
X28645714Y-17043390D01*
X17477142Y-35754819D02*
X17143809Y-35278628D01*
X16905714Y-35754819D02*
X16905714Y-34754819D01*
X16905714Y-34754819D02*
X17286666Y-34754819D01*
X17286666Y-34754819D02*
X17381904Y-34802438D01*
X17381904Y-34802438D02*
X17429523Y-34850057D01*
X17429523Y-34850057D02*
X17477142Y-34945295D01*
X17477142Y-34945295D02*
X17477142Y-35088152D01*
X17477142Y-35088152D02*
X17429523Y-35183390D01*
X17429523Y-35183390D02*
X17381904Y-35231009D01*
X17381904Y-35231009D02*
X17286666Y-35278628D01*
X17286666Y-35278628D02*
X16905714Y-35278628D01*
X17858095Y-34850057D02*
X17905714Y-34802438D01*
X17905714Y-34802438D02*
X18000952Y-34754819D01*
X18000952Y-34754819D02*
X18239047Y-34754819D01*
X18239047Y-34754819D02*
X18334285Y-34802438D01*
X18334285Y-34802438D02*
X18381904Y-34850057D01*
X18381904Y-34850057D02*
X18429523Y-34945295D01*
X18429523Y-34945295D02*
X18429523Y-35040533D01*
X18429523Y-35040533D02*
X18381904Y-35183390D01*
X18381904Y-35183390D02*
X17810476Y-35754819D01*
X17810476Y-35754819D02*
X18429523Y-35754819D01*
X18762857Y-34754819D02*
X19429523Y-34754819D01*
X19429523Y-34754819D02*
X19000952Y-35754819D01*
X1457142Y-10036580D02*
X1409523Y-10084200D01*
X1409523Y-10084200D02*
X1266666Y-10131819D01*
X1266666Y-10131819D02*
X1171428Y-10131819D01*
X1171428Y-10131819D02*
X1028571Y-10084200D01*
X1028571Y-10084200D02*
X933333Y-9988961D01*
X933333Y-9988961D02*
X885714Y-9893723D01*
X885714Y-9893723D02*
X838095Y-9703247D01*
X838095Y-9703247D02*
X838095Y-9560390D01*
X838095Y-9560390D02*
X885714Y-9369914D01*
X885714Y-9369914D02*
X933333Y-9274676D01*
X933333Y-9274676D02*
X1028571Y-9179438D01*
X1028571Y-9179438D02*
X1171428Y-9131819D01*
X1171428Y-9131819D02*
X1266666Y-9131819D01*
X1266666Y-9131819D02*
X1409523Y-9179438D01*
X1409523Y-9179438D02*
X1457142Y-9227057D01*
X2409523Y-10131819D02*
X1838095Y-10131819D01*
X2123809Y-10131819D02*
X2123809Y-9131819D01*
X2123809Y-9131819D02*
X2028571Y-9274676D01*
X2028571Y-9274676D02*
X1933333Y-9369914D01*
X1933333Y-9369914D02*
X1838095Y-9417533D01*
X3028571Y-9131819D02*
X3123809Y-9131819D01*
X3123809Y-9131819D02*
X3219047Y-9179438D01*
X3219047Y-9179438D02*
X3266666Y-9227057D01*
X3266666Y-9227057D02*
X3314285Y-9322295D01*
X3314285Y-9322295D02*
X3361904Y-9512771D01*
X3361904Y-9512771D02*
X3361904Y-9750866D01*
X3361904Y-9750866D02*
X3314285Y-9941342D01*
X3314285Y-9941342D02*
X3266666Y-10036580D01*
X3266666Y-10036580D02*
X3219047Y-10084200D01*
X3219047Y-10084200D02*
X3123809Y-10131819D01*
X3123809Y-10131819D02*
X3028571Y-10131819D01*
X3028571Y-10131819D02*
X2933333Y-10084200D01*
X2933333Y-10084200D02*
X2885714Y-10036580D01*
X2885714Y-10036580D02*
X2838095Y-9941342D01*
X2838095Y-9941342D02*
X2790476Y-9750866D01*
X2790476Y-9750866D02*
X2790476Y-9512771D01*
X2790476Y-9512771D02*
X2838095Y-9322295D01*
X2838095Y-9322295D02*
X2885714Y-9227057D01*
X2885714Y-9227057D02*
X2933333Y-9179438D01*
X2933333Y-9179438D02*
X3028571Y-9131819D01*
X9487142Y-35234819D02*
X9153809Y-34758628D01*
X8915714Y-35234819D02*
X8915714Y-34234819D01*
X8915714Y-34234819D02*
X9296666Y-34234819D01*
X9296666Y-34234819D02*
X9391904Y-34282438D01*
X9391904Y-34282438D02*
X9439523Y-34330057D01*
X9439523Y-34330057D02*
X9487142Y-34425295D01*
X9487142Y-34425295D02*
X9487142Y-34568152D01*
X9487142Y-34568152D02*
X9439523Y-34663390D01*
X9439523Y-34663390D02*
X9391904Y-34711009D01*
X9391904Y-34711009D02*
X9296666Y-34758628D01*
X9296666Y-34758628D02*
X8915714Y-34758628D01*
X9868095Y-34330057D02*
X9915714Y-34282438D01*
X9915714Y-34282438D02*
X10010952Y-34234819D01*
X10010952Y-34234819D02*
X10249047Y-34234819D01*
X10249047Y-34234819D02*
X10344285Y-34282438D01*
X10344285Y-34282438D02*
X10391904Y-34330057D01*
X10391904Y-34330057D02*
X10439523Y-34425295D01*
X10439523Y-34425295D02*
X10439523Y-34520533D01*
X10439523Y-34520533D02*
X10391904Y-34663390D01*
X10391904Y-34663390D02*
X9820476Y-35234819D01*
X9820476Y-35234819D02*
X10439523Y-35234819D01*
X11010952Y-34663390D02*
X10915714Y-34615771D01*
X10915714Y-34615771D02*
X10868095Y-34568152D01*
X10868095Y-34568152D02*
X10820476Y-34472914D01*
X10820476Y-34472914D02*
X10820476Y-34425295D01*
X10820476Y-34425295D02*
X10868095Y-34330057D01*
X10868095Y-34330057D02*
X10915714Y-34282438D01*
X10915714Y-34282438D02*
X11010952Y-34234819D01*
X11010952Y-34234819D02*
X11201428Y-34234819D01*
X11201428Y-34234819D02*
X11296666Y-34282438D01*
X11296666Y-34282438D02*
X11344285Y-34330057D01*
X11344285Y-34330057D02*
X11391904Y-34425295D01*
X11391904Y-34425295D02*
X11391904Y-34472914D01*
X11391904Y-34472914D02*
X11344285Y-34568152D01*
X11344285Y-34568152D02*
X11296666Y-34615771D01*
X11296666Y-34615771D02*
X11201428Y-34663390D01*
X11201428Y-34663390D02*
X11010952Y-34663390D01*
X11010952Y-34663390D02*
X10915714Y-34711009D01*
X10915714Y-34711009D02*
X10868095Y-34758628D01*
X10868095Y-34758628D02*
X10820476Y-34853866D01*
X10820476Y-34853866D02*
X10820476Y-35044342D01*
X10820476Y-35044342D02*
X10868095Y-35139580D01*
X10868095Y-35139580D02*
X10915714Y-35187200D01*
X10915714Y-35187200D02*
X11010952Y-35234819D01*
X11010952Y-35234819D02*
X11201428Y-35234819D01*
X11201428Y-35234819D02*
X11296666Y-35187200D01*
X11296666Y-35187200D02*
X11344285Y-35139580D01*
X11344285Y-35139580D02*
X11391904Y-35044342D01*
X11391904Y-35044342D02*
X11391904Y-34853866D01*
X11391904Y-34853866D02*
X11344285Y-34758628D01*
X11344285Y-34758628D02*
X11296666Y-34711009D01*
X11296666Y-34711009D02*
X11201428Y-34663390D01*
X21537142Y-38864819D02*
X21203809Y-38388628D01*
X20965714Y-38864819D02*
X20965714Y-37864819D01*
X20965714Y-37864819D02*
X21346666Y-37864819D01*
X21346666Y-37864819D02*
X21441904Y-37912438D01*
X21441904Y-37912438D02*
X21489523Y-37960057D01*
X21489523Y-37960057D02*
X21537142Y-38055295D01*
X21537142Y-38055295D02*
X21537142Y-38198152D01*
X21537142Y-38198152D02*
X21489523Y-38293390D01*
X21489523Y-38293390D02*
X21441904Y-38341009D01*
X21441904Y-38341009D02*
X21346666Y-38388628D01*
X21346666Y-38388628D02*
X20965714Y-38388628D01*
X21918095Y-37960057D02*
X21965714Y-37912438D01*
X21965714Y-37912438D02*
X22060952Y-37864819D01*
X22060952Y-37864819D02*
X22299047Y-37864819D01*
X22299047Y-37864819D02*
X22394285Y-37912438D01*
X22394285Y-37912438D02*
X22441904Y-37960057D01*
X22441904Y-37960057D02*
X22489523Y-38055295D01*
X22489523Y-38055295D02*
X22489523Y-38150533D01*
X22489523Y-38150533D02*
X22441904Y-38293390D01*
X22441904Y-38293390D02*
X21870476Y-38864819D01*
X21870476Y-38864819D02*
X22489523Y-38864819D01*
X23108571Y-37864819D02*
X23203809Y-37864819D01*
X23203809Y-37864819D02*
X23299047Y-37912438D01*
X23299047Y-37912438D02*
X23346666Y-37960057D01*
X23346666Y-37960057D02*
X23394285Y-38055295D01*
X23394285Y-38055295D02*
X23441904Y-38245771D01*
X23441904Y-38245771D02*
X23441904Y-38483866D01*
X23441904Y-38483866D02*
X23394285Y-38674342D01*
X23394285Y-38674342D02*
X23346666Y-38769580D01*
X23346666Y-38769580D02*
X23299047Y-38817200D01*
X23299047Y-38817200D02*
X23203809Y-38864819D01*
X23203809Y-38864819D02*
X23108571Y-38864819D01*
X23108571Y-38864819D02*
X23013333Y-38817200D01*
X23013333Y-38817200D02*
X22965714Y-38769580D01*
X22965714Y-38769580D02*
X22918095Y-38674342D01*
X22918095Y-38674342D02*
X22870476Y-38483866D01*
X22870476Y-38483866D02*
X22870476Y-38245771D01*
X22870476Y-38245771D02*
X22918095Y-38055295D01*
X22918095Y-38055295D02*
X22965714Y-37960057D01*
X22965714Y-37960057D02*
X23013333Y-37912438D01*
X23013333Y-37912438D02*
X23108571Y-37864819D01*
X6087142Y-2619580D02*
X6039523Y-2667200D01*
X6039523Y-2667200D02*
X5896666Y-2714819D01*
X5896666Y-2714819D02*
X5801428Y-2714819D01*
X5801428Y-2714819D02*
X5658571Y-2667200D01*
X5658571Y-2667200D02*
X5563333Y-2571961D01*
X5563333Y-2571961D02*
X5515714Y-2476723D01*
X5515714Y-2476723D02*
X5468095Y-2286247D01*
X5468095Y-2286247D02*
X5468095Y-2143390D01*
X5468095Y-2143390D02*
X5515714Y-1952914D01*
X5515714Y-1952914D02*
X5563333Y-1857676D01*
X5563333Y-1857676D02*
X5658571Y-1762438D01*
X5658571Y-1762438D02*
X5801428Y-1714819D01*
X5801428Y-1714819D02*
X5896666Y-1714819D01*
X5896666Y-1714819D02*
X6039523Y-1762438D01*
X6039523Y-1762438D02*
X6087142Y-1810057D01*
X7039523Y-2714819D02*
X6468095Y-2714819D01*
X6753809Y-2714819D02*
X6753809Y-1714819D01*
X6753809Y-1714819D02*
X6658571Y-1857676D01*
X6658571Y-1857676D02*
X6563333Y-1952914D01*
X6563333Y-1952914D02*
X6468095Y-2000533D01*
X7610952Y-2143390D02*
X7515714Y-2095771D01*
X7515714Y-2095771D02*
X7468095Y-2048152D01*
X7468095Y-2048152D02*
X7420476Y-1952914D01*
X7420476Y-1952914D02*
X7420476Y-1905295D01*
X7420476Y-1905295D02*
X7468095Y-1810057D01*
X7468095Y-1810057D02*
X7515714Y-1762438D01*
X7515714Y-1762438D02*
X7610952Y-1714819D01*
X7610952Y-1714819D02*
X7801428Y-1714819D01*
X7801428Y-1714819D02*
X7896666Y-1762438D01*
X7896666Y-1762438D02*
X7944285Y-1810057D01*
X7944285Y-1810057D02*
X7991904Y-1905295D01*
X7991904Y-1905295D02*
X7991904Y-1952914D01*
X7991904Y-1952914D02*
X7944285Y-2048152D01*
X7944285Y-2048152D02*
X7896666Y-2095771D01*
X7896666Y-2095771D02*
X7801428Y-2143390D01*
X7801428Y-2143390D02*
X7610952Y-2143390D01*
X7610952Y-2143390D02*
X7515714Y-2191009D01*
X7515714Y-2191009D02*
X7468095Y-2238628D01*
X7468095Y-2238628D02*
X7420476Y-2333866D01*
X7420476Y-2333866D02*
X7420476Y-2524342D01*
X7420476Y-2524342D02*
X7468095Y-2619580D01*
X7468095Y-2619580D02*
X7515714Y-2667200D01*
X7515714Y-2667200D02*
X7610952Y-2714819D01*
X7610952Y-2714819D02*
X7801428Y-2714819D01*
X7801428Y-2714819D02*
X7896666Y-2667200D01*
X7896666Y-2667200D02*
X7944285Y-2619580D01*
X7944285Y-2619580D02*
X7991904Y-2524342D01*
X7991904Y-2524342D02*
X7991904Y-2333866D01*
X7991904Y-2333866D02*
X7944285Y-2238628D01*
X7944285Y-2238628D02*
X7896666Y-2191009D01*
X7896666Y-2191009D02*
X7801428Y-2143390D01*
X27791904Y-87464819D02*
X27458571Y-86988628D01*
X27220476Y-87464819D02*
X27220476Y-86464819D01*
X27220476Y-86464819D02*
X27601428Y-86464819D01*
X27601428Y-86464819D02*
X27696666Y-86512438D01*
X27696666Y-86512438D02*
X27744285Y-86560057D01*
X27744285Y-86560057D02*
X27791904Y-86655295D01*
X27791904Y-86655295D02*
X27791904Y-86798152D01*
X27791904Y-86798152D02*
X27744285Y-86893390D01*
X27744285Y-86893390D02*
X27696666Y-86941009D01*
X27696666Y-86941009D02*
X27601428Y-86988628D01*
X27601428Y-86988628D02*
X27220476Y-86988628D01*
X28744285Y-87464819D02*
X28172857Y-87464819D01*
X28458571Y-87464819D02*
X28458571Y-86464819D01*
X28458571Y-86464819D02*
X28363333Y-86607676D01*
X28363333Y-86607676D02*
X28268095Y-86702914D01*
X28268095Y-86702914D02*
X28172857Y-86750533D01*
X29077619Y-86464819D02*
X29696666Y-86464819D01*
X29696666Y-86464819D02*
X29363333Y-86845771D01*
X29363333Y-86845771D02*
X29506190Y-86845771D01*
X29506190Y-86845771D02*
X29601428Y-86893390D01*
X29601428Y-86893390D02*
X29649047Y-86941009D01*
X29649047Y-86941009D02*
X29696666Y-87036247D01*
X29696666Y-87036247D02*
X29696666Y-87274342D01*
X29696666Y-87274342D02*
X29649047Y-87369580D01*
X29649047Y-87369580D02*
X29601428Y-87417200D01*
X29601428Y-87417200D02*
X29506190Y-87464819D01*
X29506190Y-87464819D02*
X29220476Y-87464819D01*
X29220476Y-87464819D02*
X29125238Y-87417200D01*
X29125238Y-87417200D02*
X29077619Y-87369580D01*
X1407142Y-30341569D02*
X1073809Y-29865378D01*
X835714Y-30341569D02*
X835714Y-29341569D01*
X835714Y-29341569D02*
X1216666Y-29341569D01*
X1216666Y-29341569D02*
X1311904Y-29389188D01*
X1311904Y-29389188D02*
X1359523Y-29436807D01*
X1359523Y-29436807D02*
X1407142Y-29532045D01*
X1407142Y-29532045D02*
X1407142Y-29674902D01*
X1407142Y-29674902D02*
X1359523Y-29770140D01*
X1359523Y-29770140D02*
X1311904Y-29817759D01*
X1311904Y-29817759D02*
X1216666Y-29865378D01*
X1216666Y-29865378D02*
X835714Y-29865378D01*
X1740476Y-29341569D02*
X2359523Y-29341569D01*
X2359523Y-29341569D02*
X2026190Y-29722521D01*
X2026190Y-29722521D02*
X2169047Y-29722521D01*
X2169047Y-29722521D02*
X2264285Y-29770140D01*
X2264285Y-29770140D02*
X2311904Y-29817759D01*
X2311904Y-29817759D02*
X2359523Y-29912997D01*
X2359523Y-29912997D02*
X2359523Y-30151092D01*
X2359523Y-30151092D02*
X2311904Y-30246330D01*
X2311904Y-30246330D02*
X2264285Y-30293950D01*
X2264285Y-30293950D02*
X2169047Y-30341569D01*
X2169047Y-30341569D02*
X1883333Y-30341569D01*
X1883333Y-30341569D02*
X1788095Y-30293950D01*
X1788095Y-30293950D02*
X1740476Y-30246330D01*
X2692857Y-29341569D02*
X3311904Y-29341569D01*
X3311904Y-29341569D02*
X2978571Y-29722521D01*
X2978571Y-29722521D02*
X3121428Y-29722521D01*
X3121428Y-29722521D02*
X3216666Y-29770140D01*
X3216666Y-29770140D02*
X3264285Y-29817759D01*
X3264285Y-29817759D02*
X3311904Y-29912997D01*
X3311904Y-29912997D02*
X3311904Y-30151092D01*
X3311904Y-30151092D02*
X3264285Y-30246330D01*
X3264285Y-30246330D02*
X3216666Y-30293950D01*
X3216666Y-30293950D02*
X3121428Y-30341569D01*
X3121428Y-30341569D02*
X2835714Y-30341569D01*
X2835714Y-30341569D02*
X2740476Y-30293950D01*
X2740476Y-30293950D02*
X2692857Y-30246330D01*
X21041428Y-85119580D02*
X20993809Y-85167200D01*
X20993809Y-85167200D02*
X20850952Y-85214819D01*
X20850952Y-85214819D02*
X20755714Y-85214819D01*
X20755714Y-85214819D02*
X20612857Y-85167200D01*
X20612857Y-85167200D02*
X20517619Y-85071961D01*
X20517619Y-85071961D02*
X20470000Y-84976723D01*
X20470000Y-84976723D02*
X20422381Y-84786247D01*
X20422381Y-84786247D02*
X20422381Y-84643390D01*
X20422381Y-84643390D02*
X20470000Y-84452914D01*
X20470000Y-84452914D02*
X20517619Y-84357676D01*
X20517619Y-84357676D02*
X20612857Y-84262438D01*
X20612857Y-84262438D02*
X20755714Y-84214819D01*
X20755714Y-84214819D02*
X20850952Y-84214819D01*
X20850952Y-84214819D02*
X20993809Y-84262438D01*
X20993809Y-84262438D02*
X21041428Y-84310057D01*
X21422381Y-84310057D02*
X21470000Y-84262438D01*
X21470000Y-84262438D02*
X21565238Y-84214819D01*
X21565238Y-84214819D02*
X21803333Y-84214819D01*
X21803333Y-84214819D02*
X21898571Y-84262438D01*
X21898571Y-84262438D02*
X21946190Y-84310057D01*
X21946190Y-84310057D02*
X21993809Y-84405295D01*
X21993809Y-84405295D02*
X21993809Y-84500533D01*
X21993809Y-84500533D02*
X21946190Y-84643390D01*
X21946190Y-84643390D02*
X21374762Y-85214819D01*
X21374762Y-85214819D02*
X21993809Y-85214819D01*
X22374762Y-84310057D02*
X22422381Y-84262438D01*
X22422381Y-84262438D02*
X22517619Y-84214819D01*
X22517619Y-84214819D02*
X22755714Y-84214819D01*
X22755714Y-84214819D02*
X22850952Y-84262438D01*
X22850952Y-84262438D02*
X22898571Y-84310057D01*
X22898571Y-84310057D02*
X22946190Y-84405295D01*
X22946190Y-84405295D02*
X22946190Y-84500533D01*
X22946190Y-84500533D02*
X22898571Y-84643390D01*
X22898571Y-84643390D02*
X22327143Y-85214819D01*
X22327143Y-85214819D02*
X22946190Y-85214819D01*
X21125714Y-57074819D02*
X21125714Y-56074819D01*
X21125714Y-56074819D02*
X21363809Y-56074819D01*
X21363809Y-56074819D02*
X21506666Y-56122438D01*
X21506666Y-56122438D02*
X21601904Y-56217676D01*
X21601904Y-56217676D02*
X21649523Y-56312914D01*
X21649523Y-56312914D02*
X21697142Y-56503390D01*
X21697142Y-56503390D02*
X21697142Y-56646247D01*
X21697142Y-56646247D02*
X21649523Y-56836723D01*
X21649523Y-56836723D02*
X21601904Y-56931961D01*
X21601904Y-56931961D02*
X21506666Y-57027200D01*
X21506666Y-57027200D02*
X21363809Y-57074819D01*
X21363809Y-57074819D02*
X21125714Y-57074819D01*
X22649523Y-57074819D02*
X22078095Y-57074819D01*
X22363809Y-57074819D02*
X22363809Y-56074819D01*
X22363809Y-56074819D02*
X22268571Y-56217676D01*
X22268571Y-56217676D02*
X22173333Y-56312914D01*
X22173333Y-56312914D02*
X22078095Y-56360533D01*
X23030476Y-56170057D02*
X23078095Y-56122438D01*
X23078095Y-56122438D02*
X23173333Y-56074819D01*
X23173333Y-56074819D02*
X23411428Y-56074819D01*
X23411428Y-56074819D02*
X23506666Y-56122438D01*
X23506666Y-56122438D02*
X23554285Y-56170057D01*
X23554285Y-56170057D02*
X23601904Y-56265295D01*
X23601904Y-56265295D02*
X23601904Y-56360533D01*
X23601904Y-56360533D02*
X23554285Y-56503390D01*
X23554285Y-56503390D02*
X22982857Y-57074819D01*
X22982857Y-57074819D02*
X23601904Y-57074819D01*
X18475714Y-58974819D02*
X17904286Y-58974819D01*
X18190000Y-58974819D02*
X18190000Y-57974819D01*
X18190000Y-57974819D02*
X18094762Y-58117676D01*
X18094762Y-58117676D02*
X17999524Y-58212914D01*
X17999524Y-58212914D02*
X17904286Y-58260533D01*
X13957142Y-29199580D02*
X13909523Y-29247200D01*
X13909523Y-29247200D02*
X13766666Y-29294819D01*
X13766666Y-29294819D02*
X13671428Y-29294819D01*
X13671428Y-29294819D02*
X13528571Y-29247200D01*
X13528571Y-29247200D02*
X13433333Y-29151961D01*
X13433333Y-29151961D02*
X13385714Y-29056723D01*
X13385714Y-29056723D02*
X13338095Y-28866247D01*
X13338095Y-28866247D02*
X13338095Y-28723390D01*
X13338095Y-28723390D02*
X13385714Y-28532914D01*
X13385714Y-28532914D02*
X13433333Y-28437676D01*
X13433333Y-28437676D02*
X13528571Y-28342438D01*
X13528571Y-28342438D02*
X13671428Y-28294819D01*
X13671428Y-28294819D02*
X13766666Y-28294819D01*
X13766666Y-28294819D02*
X13909523Y-28342438D01*
X13909523Y-28342438D02*
X13957142Y-28390057D01*
X14909523Y-29294819D02*
X14338095Y-29294819D01*
X14623809Y-29294819D02*
X14623809Y-28294819D01*
X14623809Y-28294819D02*
X14528571Y-28437676D01*
X14528571Y-28437676D02*
X14433333Y-28532914D01*
X14433333Y-28532914D02*
X14338095Y-28580533D01*
X15766666Y-28294819D02*
X15576190Y-28294819D01*
X15576190Y-28294819D02*
X15480952Y-28342438D01*
X15480952Y-28342438D02*
X15433333Y-28390057D01*
X15433333Y-28390057D02*
X15338095Y-28532914D01*
X15338095Y-28532914D02*
X15290476Y-28723390D01*
X15290476Y-28723390D02*
X15290476Y-29104342D01*
X15290476Y-29104342D02*
X15338095Y-29199580D01*
X15338095Y-29199580D02*
X15385714Y-29247200D01*
X15385714Y-29247200D02*
X15480952Y-29294819D01*
X15480952Y-29294819D02*
X15671428Y-29294819D01*
X15671428Y-29294819D02*
X15766666Y-29247200D01*
X15766666Y-29247200D02*
X15814285Y-29199580D01*
X15814285Y-29199580D02*
X15861904Y-29104342D01*
X15861904Y-29104342D02*
X15861904Y-28866247D01*
X15861904Y-28866247D02*
X15814285Y-28771009D01*
X15814285Y-28771009D02*
X15766666Y-28723390D01*
X15766666Y-28723390D02*
X15671428Y-28675771D01*
X15671428Y-28675771D02*
X15480952Y-28675771D01*
X15480952Y-28675771D02*
X15385714Y-28723390D01*
X15385714Y-28723390D02*
X15338095Y-28771009D01*
X15338095Y-28771009D02*
X15290476Y-28866247D01*
X7233333Y-57239580D02*
X7185714Y-57287200D01*
X7185714Y-57287200D02*
X7042857Y-57334819D01*
X7042857Y-57334819D02*
X6947619Y-57334819D01*
X6947619Y-57334819D02*
X6804762Y-57287200D01*
X6804762Y-57287200D02*
X6709524Y-57191961D01*
X6709524Y-57191961D02*
X6661905Y-57096723D01*
X6661905Y-57096723D02*
X6614286Y-56906247D01*
X6614286Y-56906247D02*
X6614286Y-56763390D01*
X6614286Y-56763390D02*
X6661905Y-56572914D01*
X6661905Y-56572914D02*
X6709524Y-56477676D01*
X6709524Y-56477676D02*
X6804762Y-56382438D01*
X6804762Y-56382438D02*
X6947619Y-56334819D01*
X6947619Y-56334819D02*
X7042857Y-56334819D01*
X7042857Y-56334819D02*
X7185714Y-56382438D01*
X7185714Y-56382438D02*
X7233333Y-56430057D01*
X8090476Y-56334819D02*
X7900000Y-56334819D01*
X7900000Y-56334819D02*
X7804762Y-56382438D01*
X7804762Y-56382438D02*
X7757143Y-56430057D01*
X7757143Y-56430057D02*
X7661905Y-56572914D01*
X7661905Y-56572914D02*
X7614286Y-56763390D01*
X7614286Y-56763390D02*
X7614286Y-57144342D01*
X7614286Y-57144342D02*
X7661905Y-57239580D01*
X7661905Y-57239580D02*
X7709524Y-57287200D01*
X7709524Y-57287200D02*
X7804762Y-57334819D01*
X7804762Y-57334819D02*
X7995238Y-57334819D01*
X7995238Y-57334819D02*
X8090476Y-57287200D01*
X8090476Y-57287200D02*
X8138095Y-57239580D01*
X8138095Y-57239580D02*
X8185714Y-57144342D01*
X8185714Y-57144342D02*
X8185714Y-56906247D01*
X8185714Y-56906247D02*
X8138095Y-56811009D01*
X8138095Y-56811009D02*
X8090476Y-56763390D01*
X8090476Y-56763390D02*
X7995238Y-56715771D01*
X7995238Y-56715771D02*
X7804762Y-56715771D01*
X7804762Y-56715771D02*
X7709524Y-56763390D01*
X7709524Y-56763390D02*
X7661905Y-56811009D01*
X7661905Y-56811009D02*
X7614286Y-56906247D01*
X20118095Y-63564819D02*
X20118095Y-64374342D01*
X20118095Y-64374342D02*
X20165714Y-64469580D01*
X20165714Y-64469580D02*
X20213333Y-64517200D01*
X20213333Y-64517200D02*
X20308571Y-64564819D01*
X20308571Y-64564819D02*
X20499047Y-64564819D01*
X20499047Y-64564819D02*
X20594285Y-64517200D01*
X20594285Y-64517200D02*
X20641904Y-64469580D01*
X20641904Y-64469580D02*
X20689523Y-64374342D01*
X20689523Y-64374342D02*
X20689523Y-63564819D01*
X21641904Y-63564819D02*
X21165714Y-63564819D01*
X21165714Y-63564819D02*
X21118095Y-64041009D01*
X21118095Y-64041009D02*
X21165714Y-63993390D01*
X21165714Y-63993390D02*
X21260952Y-63945771D01*
X21260952Y-63945771D02*
X21499047Y-63945771D01*
X21499047Y-63945771D02*
X21594285Y-63993390D01*
X21594285Y-63993390D02*
X21641904Y-64041009D01*
X21641904Y-64041009D02*
X21689523Y-64136247D01*
X21689523Y-64136247D02*
X21689523Y-64374342D01*
X21689523Y-64374342D02*
X21641904Y-64469580D01*
X21641904Y-64469580D02*
X21594285Y-64517200D01*
X21594285Y-64517200D02*
X21499047Y-64564819D01*
X21499047Y-64564819D02*
X21260952Y-64564819D01*
X21260952Y-64564819D02*
X21165714Y-64517200D01*
X21165714Y-64517200D02*
X21118095Y-64469580D01*
X20703333Y-53469580D02*
X20655714Y-53517200D01*
X20655714Y-53517200D02*
X20512857Y-53564819D01*
X20512857Y-53564819D02*
X20417619Y-53564819D01*
X20417619Y-53564819D02*
X20274762Y-53517200D01*
X20274762Y-53517200D02*
X20179524Y-53421961D01*
X20179524Y-53421961D02*
X20131905Y-53326723D01*
X20131905Y-53326723D02*
X20084286Y-53136247D01*
X20084286Y-53136247D02*
X20084286Y-52993390D01*
X20084286Y-52993390D02*
X20131905Y-52802914D01*
X20131905Y-52802914D02*
X20179524Y-52707676D01*
X20179524Y-52707676D02*
X20274762Y-52612438D01*
X20274762Y-52612438D02*
X20417619Y-52564819D01*
X20417619Y-52564819D02*
X20512857Y-52564819D01*
X20512857Y-52564819D02*
X20655714Y-52612438D01*
X20655714Y-52612438D02*
X20703333Y-52660057D01*
X21560476Y-52898152D02*
X21560476Y-53564819D01*
X21322381Y-52517200D02*
X21084286Y-53231485D01*
X21084286Y-53231485D02*
X21703333Y-53231485D01*
X5534761Y-87400057D02*
X5439523Y-87352438D01*
X5439523Y-87352438D02*
X5344285Y-87257200D01*
X5344285Y-87257200D02*
X5201428Y-87114342D01*
X5201428Y-87114342D02*
X5106190Y-87066723D01*
X5106190Y-87066723D02*
X5010952Y-87066723D01*
X5058571Y-87304819D02*
X4963333Y-87257200D01*
X4963333Y-87257200D02*
X4868095Y-87161961D01*
X4868095Y-87161961D02*
X4820476Y-86971485D01*
X4820476Y-86971485D02*
X4820476Y-86638152D01*
X4820476Y-86638152D02*
X4868095Y-86447676D01*
X4868095Y-86447676D02*
X4963333Y-86352438D01*
X4963333Y-86352438D02*
X5058571Y-86304819D01*
X5058571Y-86304819D02*
X5249047Y-86304819D01*
X5249047Y-86304819D02*
X5344285Y-86352438D01*
X5344285Y-86352438D02*
X5439523Y-86447676D01*
X5439523Y-86447676D02*
X5487142Y-86638152D01*
X5487142Y-86638152D02*
X5487142Y-86971485D01*
X5487142Y-86971485D02*
X5439523Y-87161961D01*
X5439523Y-87161961D02*
X5344285Y-87257200D01*
X5344285Y-87257200D02*
X5249047Y-87304819D01*
X5249047Y-87304819D02*
X5058571Y-87304819D01*
X6439523Y-87304819D02*
X5868095Y-87304819D01*
X6153809Y-87304819D02*
X6153809Y-86304819D01*
X6153809Y-86304819D02*
X6058571Y-86447676D01*
X6058571Y-86447676D02*
X5963333Y-86542914D01*
X5963333Y-86542914D02*
X5868095Y-86590533D01*
X25881905Y-12554819D02*
X25881905Y-11554819D01*
X25881905Y-11554819D02*
X26120000Y-11554819D01*
X26120000Y-11554819D02*
X26262857Y-11602438D01*
X26262857Y-11602438D02*
X26358095Y-11697676D01*
X26358095Y-11697676D02*
X26405714Y-11792914D01*
X26405714Y-11792914D02*
X26453333Y-11983390D01*
X26453333Y-11983390D02*
X26453333Y-12126247D01*
X26453333Y-12126247D02*
X26405714Y-12316723D01*
X26405714Y-12316723D02*
X26358095Y-12411961D01*
X26358095Y-12411961D02*
X26262857Y-12507200D01*
X26262857Y-12507200D02*
X26120000Y-12554819D01*
X26120000Y-12554819D02*
X25881905Y-12554819D01*
X26786667Y-11554819D02*
X27453333Y-11554819D01*
X27453333Y-11554819D02*
X27024762Y-12554819D01*
X13311905Y-54224819D02*
X13311905Y-53224819D01*
X13311905Y-53224819D02*
X13550000Y-53224819D01*
X13550000Y-53224819D02*
X13692857Y-53272438D01*
X13692857Y-53272438D02*
X13788095Y-53367676D01*
X13788095Y-53367676D02*
X13835714Y-53462914D01*
X13835714Y-53462914D02*
X13883333Y-53653390D01*
X13883333Y-53653390D02*
X13883333Y-53796247D01*
X13883333Y-53796247D02*
X13835714Y-53986723D01*
X13835714Y-53986723D02*
X13788095Y-54081961D01*
X13788095Y-54081961D02*
X13692857Y-54177200D01*
X13692857Y-54177200D02*
X13550000Y-54224819D01*
X13550000Y-54224819D02*
X13311905Y-54224819D01*
X14264286Y-53320057D02*
X14311905Y-53272438D01*
X14311905Y-53272438D02*
X14407143Y-53224819D01*
X14407143Y-53224819D02*
X14645238Y-53224819D01*
X14645238Y-53224819D02*
X14740476Y-53272438D01*
X14740476Y-53272438D02*
X14788095Y-53320057D01*
X14788095Y-53320057D02*
X14835714Y-53415295D01*
X14835714Y-53415295D02*
X14835714Y-53510533D01*
X14835714Y-53510533D02*
X14788095Y-53653390D01*
X14788095Y-53653390D02*
X14216667Y-54224819D01*
X14216667Y-54224819D02*
X14835714Y-54224819D01*
X10339047Y-94739580D02*
X10291428Y-94787200D01*
X10291428Y-94787200D02*
X10148571Y-94834819D01*
X10148571Y-94834819D02*
X10053333Y-94834819D01*
X10053333Y-94834819D02*
X9910476Y-94787200D01*
X9910476Y-94787200D02*
X9815238Y-94691961D01*
X9815238Y-94691961D02*
X9767619Y-94596723D01*
X9767619Y-94596723D02*
X9720000Y-94406247D01*
X9720000Y-94406247D02*
X9720000Y-94263390D01*
X9720000Y-94263390D02*
X9767619Y-94072914D01*
X9767619Y-94072914D02*
X9815238Y-93977676D01*
X9815238Y-93977676D02*
X9910476Y-93882438D01*
X9910476Y-93882438D02*
X10053333Y-93834819D01*
X10053333Y-93834819D02*
X10148571Y-93834819D01*
X10148571Y-93834819D02*
X10291428Y-93882438D01*
X10291428Y-93882438D02*
X10339047Y-93930057D01*
X10720000Y-93930057D02*
X10767619Y-93882438D01*
X10767619Y-93882438D02*
X10862857Y-93834819D01*
X10862857Y-93834819D02*
X11100952Y-93834819D01*
X11100952Y-93834819D02*
X11196190Y-93882438D01*
X11196190Y-93882438D02*
X11243809Y-93930057D01*
X11243809Y-93930057D02*
X11291428Y-94025295D01*
X11291428Y-94025295D02*
X11291428Y-94120533D01*
X11291428Y-94120533D02*
X11243809Y-94263390D01*
X11243809Y-94263390D02*
X10672381Y-94834819D01*
X10672381Y-94834819D02*
X11291428Y-94834819D01*
X11910476Y-93834819D02*
X12005714Y-93834819D01*
X12005714Y-93834819D02*
X12100952Y-93882438D01*
X12100952Y-93882438D02*
X12148571Y-93930057D01*
X12148571Y-93930057D02*
X12196190Y-94025295D01*
X12196190Y-94025295D02*
X12243809Y-94215771D01*
X12243809Y-94215771D02*
X12243809Y-94453866D01*
X12243809Y-94453866D02*
X12196190Y-94644342D01*
X12196190Y-94644342D02*
X12148571Y-94739580D01*
X12148571Y-94739580D02*
X12100952Y-94787200D01*
X12100952Y-94787200D02*
X12005714Y-94834819D01*
X12005714Y-94834819D02*
X11910476Y-94834819D01*
X11910476Y-94834819D02*
X11815238Y-94787200D01*
X11815238Y-94787200D02*
X11767619Y-94739580D01*
X11767619Y-94739580D02*
X11720000Y-94644342D01*
X11720000Y-94644342D02*
X11672381Y-94453866D01*
X11672381Y-94453866D02*
X11672381Y-94215771D01*
X11672381Y-94215771D02*
X11720000Y-94025295D01*
X11720000Y-94025295D02*
X11767619Y-93930057D01*
X11767619Y-93930057D02*
X11815238Y-93882438D01*
X11815238Y-93882438D02*
X11910476Y-93834819D01*
X20953333Y-35424819D02*
X20620000Y-34948628D01*
X20381905Y-35424819D02*
X20381905Y-34424819D01*
X20381905Y-34424819D02*
X20762857Y-34424819D01*
X20762857Y-34424819D02*
X20858095Y-34472438D01*
X20858095Y-34472438D02*
X20905714Y-34520057D01*
X20905714Y-34520057D02*
X20953333Y-34615295D01*
X20953333Y-34615295D02*
X20953333Y-34758152D01*
X20953333Y-34758152D02*
X20905714Y-34853390D01*
X20905714Y-34853390D02*
X20858095Y-34901009D01*
X20858095Y-34901009D02*
X20762857Y-34948628D01*
X20762857Y-34948628D02*
X20381905Y-34948628D01*
X21858095Y-34424819D02*
X21381905Y-34424819D01*
X21381905Y-34424819D02*
X21334286Y-34901009D01*
X21334286Y-34901009D02*
X21381905Y-34853390D01*
X21381905Y-34853390D02*
X21477143Y-34805771D01*
X21477143Y-34805771D02*
X21715238Y-34805771D01*
X21715238Y-34805771D02*
X21810476Y-34853390D01*
X21810476Y-34853390D02*
X21858095Y-34901009D01*
X21858095Y-34901009D02*
X21905714Y-34996247D01*
X21905714Y-34996247D02*
X21905714Y-35234342D01*
X21905714Y-35234342D02*
X21858095Y-35329580D01*
X21858095Y-35329580D02*
X21810476Y-35377200D01*
X21810476Y-35377200D02*
X21715238Y-35424819D01*
X21715238Y-35424819D02*
X21477143Y-35424819D01*
X21477143Y-35424819D02*
X21381905Y-35377200D01*
X21381905Y-35377200D02*
X21334286Y-35329580D01*
X4538095Y-76564819D02*
X4538095Y-77374342D01*
X4538095Y-77374342D02*
X4585714Y-77469580D01*
X4585714Y-77469580D02*
X4633333Y-77517200D01*
X4633333Y-77517200D02*
X4728571Y-77564819D01*
X4728571Y-77564819D02*
X4919047Y-77564819D01*
X4919047Y-77564819D02*
X5014285Y-77517200D01*
X5014285Y-77517200D02*
X5061904Y-77469580D01*
X5061904Y-77469580D02*
X5109523Y-77374342D01*
X5109523Y-77374342D02*
X5109523Y-76564819D01*
X5490476Y-76564819D02*
X6109523Y-76564819D01*
X6109523Y-76564819D02*
X5776190Y-76945771D01*
X5776190Y-76945771D02*
X5919047Y-76945771D01*
X5919047Y-76945771D02*
X6014285Y-76993390D01*
X6014285Y-76993390D02*
X6061904Y-77041009D01*
X6061904Y-77041009D02*
X6109523Y-77136247D01*
X6109523Y-77136247D02*
X6109523Y-77374342D01*
X6109523Y-77374342D02*
X6061904Y-77469580D01*
X6061904Y-77469580D02*
X6014285Y-77517200D01*
X6014285Y-77517200D02*
X5919047Y-77564819D01*
X5919047Y-77564819D02*
X5633333Y-77564819D01*
X5633333Y-77564819D02*
X5538095Y-77517200D01*
X5538095Y-77517200D02*
X5490476Y-77469580D01*
X18443333Y-28644580D02*
X18395714Y-28692200D01*
X18395714Y-28692200D02*
X18252857Y-28739819D01*
X18252857Y-28739819D02*
X18157619Y-28739819D01*
X18157619Y-28739819D02*
X18014762Y-28692200D01*
X18014762Y-28692200D02*
X17919524Y-28596961D01*
X17919524Y-28596961D02*
X17871905Y-28501723D01*
X17871905Y-28501723D02*
X17824286Y-28311247D01*
X17824286Y-28311247D02*
X17824286Y-28168390D01*
X17824286Y-28168390D02*
X17871905Y-27977914D01*
X17871905Y-27977914D02*
X17919524Y-27882676D01*
X17919524Y-27882676D02*
X18014762Y-27787438D01*
X18014762Y-27787438D02*
X18157619Y-27739819D01*
X18157619Y-27739819D02*
X18252857Y-27739819D01*
X18252857Y-27739819D02*
X18395714Y-27787438D01*
X18395714Y-27787438D02*
X18443333Y-27835057D01*
X18919524Y-28739819D02*
X19110000Y-28739819D01*
X19110000Y-28739819D02*
X19205238Y-28692200D01*
X19205238Y-28692200D02*
X19252857Y-28644580D01*
X19252857Y-28644580D02*
X19348095Y-28501723D01*
X19348095Y-28501723D02*
X19395714Y-28311247D01*
X19395714Y-28311247D02*
X19395714Y-27930295D01*
X19395714Y-27930295D02*
X19348095Y-27835057D01*
X19348095Y-27835057D02*
X19300476Y-27787438D01*
X19300476Y-27787438D02*
X19205238Y-27739819D01*
X19205238Y-27739819D02*
X19014762Y-27739819D01*
X19014762Y-27739819D02*
X18919524Y-27787438D01*
X18919524Y-27787438D02*
X18871905Y-27835057D01*
X18871905Y-27835057D02*
X18824286Y-27930295D01*
X18824286Y-27930295D02*
X18824286Y-28168390D01*
X18824286Y-28168390D02*
X18871905Y-28263628D01*
X18871905Y-28263628D02*
X18919524Y-28311247D01*
X18919524Y-28311247D02*
X19014762Y-28358866D01*
X19014762Y-28358866D02*
X19205238Y-28358866D01*
X19205238Y-28358866D02*
X19300476Y-28311247D01*
X19300476Y-28311247D02*
X19348095Y-28263628D01*
X19348095Y-28263628D02*
X19395714Y-28168390D01*
X9541904Y-91871819D02*
X9208571Y-91395628D01*
X8970476Y-91871819D02*
X8970476Y-90871819D01*
X8970476Y-90871819D02*
X9351428Y-90871819D01*
X9351428Y-90871819D02*
X9446666Y-90919438D01*
X9446666Y-90919438D02*
X9494285Y-90967057D01*
X9494285Y-90967057D02*
X9541904Y-91062295D01*
X9541904Y-91062295D02*
X9541904Y-91205152D01*
X9541904Y-91205152D02*
X9494285Y-91300390D01*
X9494285Y-91300390D02*
X9446666Y-91348009D01*
X9446666Y-91348009D02*
X9351428Y-91395628D01*
X9351428Y-91395628D02*
X8970476Y-91395628D01*
X9875238Y-90871819D02*
X10494285Y-90871819D01*
X10494285Y-90871819D02*
X10160952Y-91252771D01*
X10160952Y-91252771D02*
X10303809Y-91252771D01*
X10303809Y-91252771D02*
X10399047Y-91300390D01*
X10399047Y-91300390D02*
X10446666Y-91348009D01*
X10446666Y-91348009D02*
X10494285Y-91443247D01*
X10494285Y-91443247D02*
X10494285Y-91681342D01*
X10494285Y-91681342D02*
X10446666Y-91776580D01*
X10446666Y-91776580D02*
X10399047Y-91824200D01*
X10399047Y-91824200D02*
X10303809Y-91871819D01*
X10303809Y-91871819D02*
X10018095Y-91871819D01*
X10018095Y-91871819D02*
X9922857Y-91824200D01*
X9922857Y-91824200D02*
X9875238Y-91776580D01*
X11113333Y-90871819D02*
X11208571Y-90871819D01*
X11208571Y-90871819D02*
X11303809Y-90919438D01*
X11303809Y-90919438D02*
X11351428Y-90967057D01*
X11351428Y-90967057D02*
X11399047Y-91062295D01*
X11399047Y-91062295D02*
X11446666Y-91252771D01*
X11446666Y-91252771D02*
X11446666Y-91490866D01*
X11446666Y-91490866D02*
X11399047Y-91681342D01*
X11399047Y-91681342D02*
X11351428Y-91776580D01*
X11351428Y-91776580D02*
X11303809Y-91824200D01*
X11303809Y-91824200D02*
X11208571Y-91871819D01*
X11208571Y-91871819D02*
X11113333Y-91871819D01*
X11113333Y-91871819D02*
X11018095Y-91824200D01*
X11018095Y-91824200D02*
X10970476Y-91776580D01*
X10970476Y-91776580D02*
X10922857Y-91681342D01*
X10922857Y-91681342D02*
X10875238Y-91490866D01*
X10875238Y-91490866D02*
X10875238Y-91252771D01*
X10875238Y-91252771D02*
X10922857Y-91062295D01*
X10922857Y-91062295D02*
X10970476Y-90967057D01*
X10970476Y-90967057D02*
X11018095Y-90919438D01*
X11018095Y-90919438D02*
X11113333Y-90871819D01*
X1627142Y-58244819D02*
X1293809Y-57768628D01*
X1055714Y-58244819D02*
X1055714Y-57244819D01*
X1055714Y-57244819D02*
X1436666Y-57244819D01*
X1436666Y-57244819D02*
X1531904Y-57292438D01*
X1531904Y-57292438D02*
X1579523Y-57340057D01*
X1579523Y-57340057D02*
X1627142Y-57435295D01*
X1627142Y-57435295D02*
X1627142Y-57578152D01*
X1627142Y-57578152D02*
X1579523Y-57673390D01*
X1579523Y-57673390D02*
X1531904Y-57721009D01*
X1531904Y-57721009D02*
X1436666Y-57768628D01*
X1436666Y-57768628D02*
X1055714Y-57768628D01*
X2579523Y-58244819D02*
X2008095Y-58244819D01*
X2293809Y-58244819D02*
X2293809Y-57244819D01*
X2293809Y-57244819D02*
X2198571Y-57387676D01*
X2198571Y-57387676D02*
X2103333Y-57482914D01*
X2103333Y-57482914D02*
X2008095Y-57530533D01*
X3198571Y-57244819D02*
X3293809Y-57244819D01*
X3293809Y-57244819D02*
X3389047Y-57292438D01*
X3389047Y-57292438D02*
X3436666Y-57340057D01*
X3436666Y-57340057D02*
X3484285Y-57435295D01*
X3484285Y-57435295D02*
X3531904Y-57625771D01*
X3531904Y-57625771D02*
X3531904Y-57863866D01*
X3531904Y-57863866D02*
X3484285Y-58054342D01*
X3484285Y-58054342D02*
X3436666Y-58149580D01*
X3436666Y-58149580D02*
X3389047Y-58197200D01*
X3389047Y-58197200D02*
X3293809Y-58244819D01*
X3293809Y-58244819D02*
X3198571Y-58244819D01*
X3198571Y-58244819D02*
X3103333Y-58197200D01*
X3103333Y-58197200D02*
X3055714Y-58149580D01*
X3055714Y-58149580D02*
X3008095Y-58054342D01*
X3008095Y-58054342D02*
X2960476Y-57863866D01*
X2960476Y-57863866D02*
X2960476Y-57625771D01*
X2960476Y-57625771D02*
X3008095Y-57435295D01*
X3008095Y-57435295D02*
X3055714Y-57340057D01*
X3055714Y-57340057D02*
X3103333Y-57292438D01*
X3103333Y-57292438D02*
X3198571Y-57244819D01*
X24493333Y-28644819D02*
X24160000Y-28168628D01*
X23921905Y-28644819D02*
X23921905Y-27644819D01*
X23921905Y-27644819D02*
X24302857Y-27644819D01*
X24302857Y-27644819D02*
X24398095Y-27692438D01*
X24398095Y-27692438D02*
X24445714Y-27740057D01*
X24445714Y-27740057D02*
X24493333Y-27835295D01*
X24493333Y-27835295D02*
X24493333Y-27978152D01*
X24493333Y-27978152D02*
X24445714Y-28073390D01*
X24445714Y-28073390D02*
X24398095Y-28121009D01*
X24398095Y-28121009D02*
X24302857Y-28168628D01*
X24302857Y-28168628D02*
X23921905Y-28168628D01*
X25445714Y-28644819D02*
X24874286Y-28644819D01*
X25160000Y-28644819D02*
X25160000Y-27644819D01*
X25160000Y-27644819D02*
X25064762Y-27787676D01*
X25064762Y-27787676D02*
X24969524Y-27882914D01*
X24969524Y-27882914D02*
X24874286Y-27930533D01*
X22034761Y-69450057D02*
X21939523Y-69402438D01*
X21939523Y-69402438D02*
X21844285Y-69307200D01*
X21844285Y-69307200D02*
X21701428Y-69164342D01*
X21701428Y-69164342D02*
X21606190Y-69116723D01*
X21606190Y-69116723D02*
X21510952Y-69116723D01*
X21558571Y-69354819D02*
X21463333Y-69307200D01*
X21463333Y-69307200D02*
X21368095Y-69211961D01*
X21368095Y-69211961D02*
X21320476Y-69021485D01*
X21320476Y-69021485D02*
X21320476Y-68688152D01*
X21320476Y-68688152D02*
X21368095Y-68497676D01*
X21368095Y-68497676D02*
X21463333Y-68402438D01*
X21463333Y-68402438D02*
X21558571Y-68354819D01*
X21558571Y-68354819D02*
X21749047Y-68354819D01*
X21749047Y-68354819D02*
X21844285Y-68402438D01*
X21844285Y-68402438D02*
X21939523Y-68497676D01*
X21939523Y-68497676D02*
X21987142Y-68688152D01*
X21987142Y-68688152D02*
X21987142Y-69021485D01*
X21987142Y-69021485D02*
X21939523Y-69211961D01*
X21939523Y-69211961D02*
X21844285Y-69307200D01*
X21844285Y-69307200D02*
X21749047Y-69354819D01*
X21749047Y-69354819D02*
X21558571Y-69354819D01*
X22368095Y-68450057D02*
X22415714Y-68402438D01*
X22415714Y-68402438D02*
X22510952Y-68354819D01*
X22510952Y-68354819D02*
X22749047Y-68354819D01*
X22749047Y-68354819D02*
X22844285Y-68402438D01*
X22844285Y-68402438D02*
X22891904Y-68450057D01*
X22891904Y-68450057D02*
X22939523Y-68545295D01*
X22939523Y-68545295D02*
X22939523Y-68640533D01*
X22939523Y-68640533D02*
X22891904Y-68783390D01*
X22891904Y-68783390D02*
X22320476Y-69354819D01*
X22320476Y-69354819D02*
X22939523Y-69354819D01*
X16746667Y-19777200D02*
X16889524Y-19824819D01*
X16889524Y-19824819D02*
X17127619Y-19824819D01*
X17127619Y-19824819D02*
X17222857Y-19777200D01*
X17222857Y-19777200D02*
X17270476Y-19729580D01*
X17270476Y-19729580D02*
X17318095Y-19634342D01*
X17318095Y-19634342D02*
X17318095Y-19539104D01*
X17318095Y-19539104D02*
X17270476Y-19443866D01*
X17270476Y-19443866D02*
X17222857Y-19396247D01*
X17222857Y-19396247D02*
X17127619Y-19348628D01*
X17127619Y-19348628D02*
X16937143Y-19301009D01*
X16937143Y-19301009D02*
X16841905Y-19253390D01*
X16841905Y-19253390D02*
X16794286Y-19205771D01*
X16794286Y-19205771D02*
X16746667Y-19110533D01*
X16746667Y-19110533D02*
X16746667Y-19015295D01*
X16746667Y-19015295D02*
X16794286Y-18920057D01*
X16794286Y-18920057D02*
X16841905Y-18872438D01*
X16841905Y-18872438D02*
X16937143Y-18824819D01*
X16937143Y-18824819D02*
X17175238Y-18824819D01*
X17175238Y-18824819D02*
X17318095Y-18872438D01*
X17651429Y-18824819D02*
X17889524Y-19824819D01*
X17889524Y-19824819D02*
X18080000Y-19110533D01*
X18080000Y-19110533D02*
X18270476Y-19824819D01*
X18270476Y-19824819D02*
X18508572Y-18824819D01*
X19413333Y-19824819D02*
X18841905Y-19824819D01*
X19127619Y-19824819D02*
X19127619Y-18824819D01*
X19127619Y-18824819D02*
X19032381Y-18967676D01*
X19032381Y-18967676D02*
X18937143Y-19062914D01*
X18937143Y-19062914D02*
X18841905Y-19110533D01*
X26567142Y-39274819D02*
X26233809Y-38798628D01*
X25995714Y-39274819D02*
X25995714Y-38274819D01*
X25995714Y-38274819D02*
X26376666Y-38274819D01*
X26376666Y-38274819D02*
X26471904Y-38322438D01*
X26471904Y-38322438D02*
X26519523Y-38370057D01*
X26519523Y-38370057D02*
X26567142Y-38465295D01*
X26567142Y-38465295D02*
X26567142Y-38608152D01*
X26567142Y-38608152D02*
X26519523Y-38703390D01*
X26519523Y-38703390D02*
X26471904Y-38751009D01*
X26471904Y-38751009D02*
X26376666Y-38798628D01*
X26376666Y-38798628D02*
X25995714Y-38798628D01*
X26948095Y-38370057D02*
X26995714Y-38322438D01*
X26995714Y-38322438D02*
X27090952Y-38274819D01*
X27090952Y-38274819D02*
X27329047Y-38274819D01*
X27329047Y-38274819D02*
X27424285Y-38322438D01*
X27424285Y-38322438D02*
X27471904Y-38370057D01*
X27471904Y-38370057D02*
X27519523Y-38465295D01*
X27519523Y-38465295D02*
X27519523Y-38560533D01*
X27519523Y-38560533D02*
X27471904Y-38703390D01*
X27471904Y-38703390D02*
X26900476Y-39274819D01*
X26900476Y-39274819D02*
X27519523Y-39274819D01*
X27900476Y-38370057D02*
X27948095Y-38322438D01*
X27948095Y-38322438D02*
X28043333Y-38274819D01*
X28043333Y-38274819D02*
X28281428Y-38274819D01*
X28281428Y-38274819D02*
X28376666Y-38322438D01*
X28376666Y-38322438D02*
X28424285Y-38370057D01*
X28424285Y-38370057D02*
X28471904Y-38465295D01*
X28471904Y-38465295D02*
X28471904Y-38560533D01*
X28471904Y-38560533D02*
X28424285Y-38703390D01*
X28424285Y-38703390D02*
X27852857Y-39274819D01*
X27852857Y-39274819D02*
X28471904Y-39274819D01*
X25098095Y-6614819D02*
X25098095Y-7424342D01*
X25098095Y-7424342D02*
X25145714Y-7519580D01*
X25145714Y-7519580D02*
X25193333Y-7567200D01*
X25193333Y-7567200D02*
X25288571Y-7614819D01*
X25288571Y-7614819D02*
X25479047Y-7614819D01*
X25479047Y-7614819D02*
X25574285Y-7567200D01*
X25574285Y-7567200D02*
X25621904Y-7519580D01*
X25621904Y-7519580D02*
X25669523Y-7424342D01*
X25669523Y-7424342D02*
X25669523Y-6614819D01*
X26574285Y-6614819D02*
X26383809Y-6614819D01*
X26383809Y-6614819D02*
X26288571Y-6662438D01*
X26288571Y-6662438D02*
X26240952Y-6710057D01*
X26240952Y-6710057D02*
X26145714Y-6852914D01*
X26145714Y-6852914D02*
X26098095Y-7043390D01*
X26098095Y-7043390D02*
X26098095Y-7424342D01*
X26098095Y-7424342D02*
X26145714Y-7519580D01*
X26145714Y-7519580D02*
X26193333Y-7567200D01*
X26193333Y-7567200D02*
X26288571Y-7614819D01*
X26288571Y-7614819D02*
X26479047Y-7614819D01*
X26479047Y-7614819D02*
X26574285Y-7567200D01*
X26574285Y-7567200D02*
X26621904Y-7519580D01*
X26621904Y-7519580D02*
X26669523Y-7424342D01*
X26669523Y-7424342D02*
X26669523Y-7186247D01*
X26669523Y-7186247D02*
X26621904Y-7091009D01*
X26621904Y-7091009D02*
X26574285Y-7043390D01*
X26574285Y-7043390D02*
X26479047Y-6995771D01*
X26479047Y-6995771D02*
X26288571Y-6995771D01*
X26288571Y-6995771D02*
X26193333Y-7043390D01*
X26193333Y-7043390D02*
X26145714Y-7091009D01*
X26145714Y-7091009D02*
X26098095Y-7186247D01*
X20783333Y-1431009D02*
X20450000Y-1431009D01*
X20450000Y-1954819D02*
X20450000Y-954819D01*
X20450000Y-954819D02*
X20926190Y-954819D01*
X21307143Y-1954819D02*
X21307143Y-954819D01*
X21783333Y-1954819D02*
X21783333Y-954819D01*
X21783333Y-954819D02*
X22021428Y-954819D01*
X22021428Y-954819D02*
X22164285Y-1002438D01*
X22164285Y-1002438D02*
X22259523Y-1097676D01*
X22259523Y-1097676D02*
X22307142Y-1192914D01*
X22307142Y-1192914D02*
X22354761Y-1383390D01*
X22354761Y-1383390D02*
X22354761Y-1526247D01*
X22354761Y-1526247D02*
X22307142Y-1716723D01*
X22307142Y-1716723D02*
X22259523Y-1811961D01*
X22259523Y-1811961D02*
X22164285Y-1907200D01*
X22164285Y-1907200D02*
X22021428Y-1954819D01*
X22021428Y-1954819D02*
X21783333Y-1954819D01*
X22735714Y-1050057D02*
X22783333Y-1002438D01*
X22783333Y-1002438D02*
X22878571Y-954819D01*
X22878571Y-954819D02*
X23116666Y-954819D01*
X23116666Y-954819D02*
X23211904Y-1002438D01*
X23211904Y-1002438D02*
X23259523Y-1050057D01*
X23259523Y-1050057D02*
X23307142Y-1145295D01*
X23307142Y-1145295D02*
X23307142Y-1240533D01*
X23307142Y-1240533D02*
X23259523Y-1383390D01*
X23259523Y-1383390D02*
X22688095Y-1954819D01*
X22688095Y-1954819D02*
X23307142Y-1954819D01*
X11368095Y-74044819D02*
X11368095Y-74854342D01*
X11368095Y-74854342D02*
X11415714Y-74949580D01*
X11415714Y-74949580D02*
X11463333Y-74997200D01*
X11463333Y-74997200D02*
X11558571Y-75044819D01*
X11558571Y-75044819D02*
X11749047Y-75044819D01*
X11749047Y-75044819D02*
X11844285Y-74997200D01*
X11844285Y-74997200D02*
X11891904Y-74949580D01*
X11891904Y-74949580D02*
X11939523Y-74854342D01*
X11939523Y-74854342D02*
X11939523Y-74044819D01*
X12320476Y-74044819D02*
X12987142Y-74044819D01*
X12987142Y-74044819D02*
X12558571Y-75044819D01*
X20070001Y-5074819D02*
X20070001Y-4074819D01*
X20070001Y-4074819D02*
X20308096Y-4074819D01*
X20308096Y-4074819D02*
X20450953Y-4122438D01*
X20450953Y-4122438D02*
X20546191Y-4217676D01*
X20546191Y-4217676D02*
X20593810Y-4312914D01*
X20593810Y-4312914D02*
X20641429Y-4503390D01*
X20641429Y-4503390D02*
X20641429Y-4646247D01*
X20641429Y-4646247D02*
X20593810Y-4836723D01*
X20593810Y-4836723D02*
X20546191Y-4931961D01*
X20546191Y-4931961D02*
X20450953Y-5027200D01*
X20450953Y-5027200D02*
X20308096Y-5074819D01*
X20308096Y-5074819D02*
X20070001Y-5074819D01*
X21117620Y-5074819D02*
X21308096Y-5074819D01*
X21308096Y-5074819D02*
X21403334Y-5027200D01*
X21403334Y-5027200D02*
X21450953Y-4979580D01*
X21450953Y-4979580D02*
X21546191Y-4836723D01*
X21546191Y-4836723D02*
X21593810Y-4646247D01*
X21593810Y-4646247D02*
X21593810Y-4265295D01*
X21593810Y-4265295D02*
X21546191Y-4170057D01*
X21546191Y-4170057D02*
X21498572Y-4122438D01*
X21498572Y-4122438D02*
X21403334Y-4074819D01*
X21403334Y-4074819D02*
X21212858Y-4074819D01*
X21212858Y-4074819D02*
X21117620Y-4122438D01*
X21117620Y-4122438D02*
X21070001Y-4170057D01*
X21070001Y-4170057D02*
X21022382Y-4265295D01*
X21022382Y-4265295D02*
X21022382Y-4503390D01*
X21022382Y-4503390D02*
X21070001Y-4598628D01*
X21070001Y-4598628D02*
X21117620Y-4646247D01*
X21117620Y-4646247D02*
X21212858Y-4693866D01*
X21212858Y-4693866D02*
X21403334Y-4693866D01*
X21403334Y-4693866D02*
X21498572Y-4646247D01*
X21498572Y-4646247D02*
X21546191Y-4598628D01*
X21546191Y-4598628D02*
X21593810Y-4503390D01*
X1407142Y-8176080D02*
X1359523Y-8223700D01*
X1359523Y-8223700D02*
X1216666Y-8271319D01*
X1216666Y-8271319D02*
X1121428Y-8271319D01*
X1121428Y-8271319D02*
X978571Y-8223700D01*
X978571Y-8223700D02*
X883333Y-8128461D01*
X883333Y-8128461D02*
X835714Y-8033223D01*
X835714Y-8033223D02*
X788095Y-7842747D01*
X788095Y-7842747D02*
X788095Y-7699890D01*
X788095Y-7699890D02*
X835714Y-7509414D01*
X835714Y-7509414D02*
X883333Y-7414176D01*
X883333Y-7414176D02*
X978571Y-7318938D01*
X978571Y-7318938D02*
X1121428Y-7271319D01*
X1121428Y-7271319D02*
X1216666Y-7271319D01*
X1216666Y-7271319D02*
X1359523Y-7318938D01*
X1359523Y-7318938D02*
X1407142Y-7366557D01*
X2359523Y-8271319D02*
X1788095Y-8271319D01*
X2073809Y-8271319D02*
X2073809Y-7271319D01*
X2073809Y-7271319D02*
X1978571Y-7414176D01*
X1978571Y-7414176D02*
X1883333Y-7509414D01*
X1883333Y-7509414D02*
X1788095Y-7557033D01*
X2692857Y-7271319D02*
X3359523Y-7271319D01*
X3359523Y-7271319D02*
X2930952Y-8271319D01*
X1457142Y-84939580D02*
X1409523Y-84987200D01*
X1409523Y-84987200D02*
X1266666Y-85034819D01*
X1266666Y-85034819D02*
X1171428Y-85034819D01*
X1171428Y-85034819D02*
X1028571Y-84987200D01*
X1028571Y-84987200D02*
X933333Y-84891961D01*
X933333Y-84891961D02*
X885714Y-84796723D01*
X885714Y-84796723D02*
X838095Y-84606247D01*
X838095Y-84606247D02*
X838095Y-84463390D01*
X838095Y-84463390D02*
X885714Y-84272914D01*
X885714Y-84272914D02*
X933333Y-84177676D01*
X933333Y-84177676D02*
X1028571Y-84082438D01*
X1028571Y-84082438D02*
X1171428Y-84034819D01*
X1171428Y-84034819D02*
X1266666Y-84034819D01*
X1266666Y-84034819D02*
X1409523Y-84082438D01*
X1409523Y-84082438D02*
X1457142Y-84130057D01*
X1838095Y-84130057D02*
X1885714Y-84082438D01*
X1885714Y-84082438D02*
X1980952Y-84034819D01*
X1980952Y-84034819D02*
X2219047Y-84034819D01*
X2219047Y-84034819D02*
X2314285Y-84082438D01*
X2314285Y-84082438D02*
X2361904Y-84130057D01*
X2361904Y-84130057D02*
X2409523Y-84225295D01*
X2409523Y-84225295D02*
X2409523Y-84320533D01*
X2409523Y-84320533D02*
X2361904Y-84463390D01*
X2361904Y-84463390D02*
X1790476Y-85034819D01*
X1790476Y-85034819D02*
X2409523Y-85034819D01*
X3266666Y-84368152D02*
X3266666Y-85034819D01*
X3028571Y-83987200D02*
X2790476Y-84701485D01*
X2790476Y-84701485D02*
X3409523Y-84701485D01*
X27337142Y-72214819D02*
X27003809Y-71738628D01*
X26765714Y-72214819D02*
X26765714Y-71214819D01*
X26765714Y-71214819D02*
X27146666Y-71214819D01*
X27146666Y-71214819D02*
X27241904Y-71262438D01*
X27241904Y-71262438D02*
X27289523Y-71310057D01*
X27289523Y-71310057D02*
X27337142Y-71405295D01*
X27337142Y-71405295D02*
X27337142Y-71548152D01*
X27337142Y-71548152D02*
X27289523Y-71643390D01*
X27289523Y-71643390D02*
X27241904Y-71691009D01*
X27241904Y-71691009D02*
X27146666Y-71738628D01*
X27146666Y-71738628D02*
X26765714Y-71738628D01*
X27670476Y-71214819D02*
X28289523Y-71214819D01*
X28289523Y-71214819D02*
X27956190Y-71595771D01*
X27956190Y-71595771D02*
X28099047Y-71595771D01*
X28099047Y-71595771D02*
X28194285Y-71643390D01*
X28194285Y-71643390D02*
X28241904Y-71691009D01*
X28241904Y-71691009D02*
X28289523Y-71786247D01*
X28289523Y-71786247D02*
X28289523Y-72024342D01*
X28289523Y-72024342D02*
X28241904Y-72119580D01*
X28241904Y-72119580D02*
X28194285Y-72167200D01*
X28194285Y-72167200D02*
X28099047Y-72214819D01*
X28099047Y-72214819D02*
X27813333Y-72214819D01*
X27813333Y-72214819D02*
X27718095Y-72167200D01*
X27718095Y-72167200D02*
X27670476Y-72119580D01*
X29194285Y-71214819D02*
X28718095Y-71214819D01*
X28718095Y-71214819D02*
X28670476Y-71691009D01*
X28670476Y-71691009D02*
X28718095Y-71643390D01*
X28718095Y-71643390D02*
X28813333Y-71595771D01*
X28813333Y-71595771D02*
X29051428Y-71595771D01*
X29051428Y-71595771D02*
X29146666Y-71643390D01*
X29146666Y-71643390D02*
X29194285Y-71691009D01*
X29194285Y-71691009D02*
X29241904Y-71786247D01*
X29241904Y-71786247D02*
X29241904Y-72024342D01*
X29241904Y-72024342D02*
X29194285Y-72119580D01*
X29194285Y-72119580D02*
X29146666Y-72167200D01*
X29146666Y-72167200D02*
X29051428Y-72214819D01*
X29051428Y-72214819D02*
X28813333Y-72214819D01*
X28813333Y-72214819D02*
X28718095Y-72167200D01*
X28718095Y-72167200D02*
X28670476Y-72119580D01*
X24857142Y-53659580D02*
X24809523Y-53707200D01*
X24809523Y-53707200D02*
X24666666Y-53754819D01*
X24666666Y-53754819D02*
X24571428Y-53754819D01*
X24571428Y-53754819D02*
X24428571Y-53707200D01*
X24428571Y-53707200D02*
X24333333Y-53611961D01*
X24333333Y-53611961D02*
X24285714Y-53516723D01*
X24285714Y-53516723D02*
X24238095Y-53326247D01*
X24238095Y-53326247D02*
X24238095Y-53183390D01*
X24238095Y-53183390D02*
X24285714Y-52992914D01*
X24285714Y-52992914D02*
X24333333Y-52897676D01*
X24333333Y-52897676D02*
X24428571Y-52802438D01*
X24428571Y-52802438D02*
X24571428Y-52754819D01*
X24571428Y-52754819D02*
X24666666Y-52754819D01*
X24666666Y-52754819D02*
X24809523Y-52802438D01*
X24809523Y-52802438D02*
X24857142Y-52850057D01*
X25809523Y-53754819D02*
X25238095Y-53754819D01*
X25523809Y-53754819D02*
X25523809Y-52754819D01*
X25523809Y-52754819D02*
X25428571Y-52897676D01*
X25428571Y-52897676D02*
X25333333Y-52992914D01*
X25333333Y-52992914D02*
X25238095Y-53040533D01*
X26190476Y-52850057D02*
X26238095Y-52802438D01*
X26238095Y-52802438D02*
X26333333Y-52754819D01*
X26333333Y-52754819D02*
X26571428Y-52754819D01*
X26571428Y-52754819D02*
X26666666Y-52802438D01*
X26666666Y-52802438D02*
X26714285Y-52850057D01*
X26714285Y-52850057D02*
X26761904Y-52945295D01*
X26761904Y-52945295D02*
X26761904Y-53040533D01*
X26761904Y-53040533D02*
X26714285Y-53183390D01*
X26714285Y-53183390D02*
X26142857Y-53754819D01*
X26142857Y-53754819D02*
X26761904Y-53754819D01*
X4707142Y-33714819D02*
X4373809Y-33238628D01*
X4135714Y-33714819D02*
X4135714Y-32714819D01*
X4135714Y-32714819D02*
X4516666Y-32714819D01*
X4516666Y-32714819D02*
X4611904Y-32762438D01*
X4611904Y-32762438D02*
X4659523Y-32810057D01*
X4659523Y-32810057D02*
X4707142Y-32905295D01*
X4707142Y-32905295D02*
X4707142Y-33048152D01*
X4707142Y-33048152D02*
X4659523Y-33143390D01*
X4659523Y-33143390D02*
X4611904Y-33191009D01*
X4611904Y-33191009D02*
X4516666Y-33238628D01*
X4516666Y-33238628D02*
X4135714Y-33238628D01*
X5040476Y-32714819D02*
X5659523Y-32714819D01*
X5659523Y-32714819D02*
X5326190Y-33095771D01*
X5326190Y-33095771D02*
X5469047Y-33095771D01*
X5469047Y-33095771D02*
X5564285Y-33143390D01*
X5564285Y-33143390D02*
X5611904Y-33191009D01*
X5611904Y-33191009D02*
X5659523Y-33286247D01*
X5659523Y-33286247D02*
X5659523Y-33524342D01*
X5659523Y-33524342D02*
X5611904Y-33619580D01*
X5611904Y-33619580D02*
X5564285Y-33667200D01*
X5564285Y-33667200D02*
X5469047Y-33714819D01*
X5469047Y-33714819D02*
X5183333Y-33714819D01*
X5183333Y-33714819D02*
X5088095Y-33667200D01*
X5088095Y-33667200D02*
X5040476Y-33619580D01*
X6516666Y-33048152D02*
X6516666Y-33714819D01*
X6278571Y-32667200D02*
X6040476Y-33381485D01*
X6040476Y-33381485D02*
X6659523Y-33381485D01*
X18531009Y-89828571D02*
X18578628Y-89685714D01*
X18578628Y-89685714D02*
X18626247Y-89638095D01*
X18626247Y-89638095D02*
X18721485Y-89590476D01*
X18721485Y-89590476D02*
X18864342Y-89590476D01*
X18864342Y-89590476D02*
X18959580Y-89638095D01*
X18959580Y-89638095D02*
X19007200Y-89685714D01*
X19007200Y-89685714D02*
X19054819Y-89780952D01*
X19054819Y-89780952D02*
X19054819Y-90161904D01*
X19054819Y-90161904D02*
X18054819Y-90161904D01*
X18054819Y-90161904D02*
X18054819Y-89828571D01*
X18054819Y-89828571D02*
X18102438Y-89733333D01*
X18102438Y-89733333D02*
X18150057Y-89685714D01*
X18150057Y-89685714D02*
X18245295Y-89638095D01*
X18245295Y-89638095D02*
X18340533Y-89638095D01*
X18340533Y-89638095D02*
X18435771Y-89685714D01*
X18435771Y-89685714D02*
X18483390Y-89733333D01*
X18483390Y-89733333D02*
X18531009Y-89828571D01*
X18531009Y-89828571D02*
X18531009Y-90161904D01*
X18054819Y-89257142D02*
X18054819Y-88590476D01*
X18054819Y-88590476D02*
X19054819Y-89257142D01*
X19054819Y-89257142D02*
X19054819Y-88590476D01*
X19054819Y-87685714D02*
X19054819Y-88257142D01*
X19054819Y-87971428D02*
X18054819Y-87971428D01*
X18054819Y-87971428D02*
X18197676Y-88066666D01*
X18197676Y-88066666D02*
X18292914Y-88161904D01*
X18292914Y-88161904D02*
X18340533Y-88257142D01*
X16973866Y-96380951D02*
X16973866Y-95619047D01*
X17354819Y-95999999D02*
X16592914Y-95999999D01*
D11*
%TO.C,C19*%
X2242164Y-17770000D02*
X2457836Y-17770000D01*
X2242164Y-18490000D02*
X2457836Y-18490000D01*
%TO.C,C7*%
X5508748Y-83615000D02*
X6031252Y-83615000D01*
X5508748Y-85085000D02*
X6031252Y-85085000D01*
%TO.C,Q4*%
X26570000Y-21200000D02*
X25920000Y-21200000D01*
X26570000Y-21200000D02*
X27220000Y-21200000D01*
X26570000Y-24320000D02*
X25920000Y-24320000D01*
X26570000Y-24320000D02*
X27220000Y-24320000D01*
X25407500Y-21250000D02*
X25167500Y-20920000D01*
X25647500Y-20920000D01*
X25407500Y-21250000D01*
G36*
X25407500Y-21250000D02*
G01*
X25167500Y-20920000D01*
X25647500Y-20920000D01*
X25407500Y-21250000D01*
G37*
%TO.C,R31*%
X2176359Y-75600000D02*
X2483641Y-75600000D01*
X2176359Y-76360000D02*
X2483641Y-76360000D01*
%TO.C,R7*%
X27466359Y-37120000D02*
X27773641Y-37120000D01*
X27466359Y-37880000D02*
X27773641Y-37880000D01*
%TO.C,R29*%
X27806359Y-50890000D02*
X28113641Y-50890000D01*
X27806359Y-51650000D02*
X28113641Y-51650000D01*
%TO.C,U8*%
X9750000Y-30460000D02*
X8950000Y-30460000D01*
X9750000Y-30460000D02*
X10550000Y-30460000D01*
X9750000Y-33580000D02*
X8950000Y-33580000D01*
X9750000Y-33580000D02*
X10550000Y-33580000D01*
X8450000Y-30510000D02*
X8210000Y-30180000D01*
X8690000Y-30180000D01*
X8450000Y-30510000D01*
G36*
X8450000Y-30510000D02*
G01*
X8210000Y-30180000D01*
X8690000Y-30180000D01*
X8450000Y-30510000D01*
G37*
%TO.C,R4*%
X27356359Y-77250000D02*
X27663641Y-77250000D01*
X27356359Y-78010000D02*
X27663641Y-78010000D01*
%TO.C,U1A*%
X9060000Y-17260000D02*
X9060000Y-18060000D01*
X9060000Y-18060000D02*
X9860000Y-18060000D01*
X9260000Y-1260000D02*
X22460000Y-1260000D01*
X9260000Y-6660000D02*
X22460000Y-6660000D01*
X9260000Y-17860000D02*
X9260000Y-1260000D01*
X9935000Y-1060000D02*
X9085000Y-1060000D01*
X21910000Y-1060000D02*
X22660000Y-1060000D01*
X22460000Y-1260000D02*
X22460000Y-17860000D01*
X22460000Y-17860000D02*
X9260000Y-17860000D01*
X22660000Y-1060000D02*
X22660000Y-1660000D01*
X22660000Y-17260000D02*
X22660000Y-18060000D01*
X22660000Y-18060000D02*
X21860000Y-18060000D01*
%TO.C,U4*%
X21510000Y-75070000D02*
X19560000Y-75070000D01*
X21510000Y-75070000D02*
X23460000Y-75070000D01*
X21510000Y-80190000D02*
X19560000Y-80190000D01*
X21510000Y-80190000D02*
X23460000Y-80190000D01*
X18810000Y-75165000D02*
X18570000Y-74835000D01*
X19050000Y-74835000D01*
X18810000Y-75165000D01*
G36*
X18810000Y-75165000D02*
G01*
X18570000Y-74835000D01*
X19050000Y-74835000D01*
X18810000Y-75165000D01*
G37*
%TO.C,R32*%
X5426359Y-30350000D02*
X5733641Y-30350000D01*
X5426359Y-31110000D02*
X5733641Y-31110000D01*
%TO.C,R26*%
X13456359Y-35080000D02*
X13763641Y-35080000D01*
X13456359Y-35840000D02*
X13763641Y-35840000D01*
%TO.C,T1*%
X2900000Y-61230000D02*
X2900000Y-63580000D01*
X2900000Y-63580000D02*
X2150000Y-63580000D01*
X2900000Y-71080000D02*
X2900000Y-73430000D01*
X3300000Y-60830000D02*
X15500000Y-60830000D01*
X15500000Y-73830000D02*
X3300000Y-73830000D01*
X15900000Y-61230000D02*
X15900000Y-63580000D01*
X15900000Y-71080000D02*
X15900000Y-73430000D01*
X2900000Y-61230000D02*
G75*
G02*
X3300000Y-60830000I399999J1D01*
G01*
X3300000Y-73830000D02*
G75*
G02*
X2900000Y-73430000I-1J399999D01*
G01*
X15500000Y-60830000D02*
G75*
G02*
X15900000Y-61230000I0J-400000D01*
G01*
X15900000Y-73430000D02*
G75*
G02*
X15500000Y-73830000I-400000J0D01*
G01*
%TO.C,D10*%
X1220000Y-46110000D02*
X1220000Y-50410000D01*
X1220000Y-46110000D02*
X7030000Y-46110000D01*
X1220000Y-50410000D02*
X7030000Y-50410000D01*
%TO.C,R24*%
X2732936Y-97185000D02*
X3187064Y-97185000D01*
X2732936Y-98655000D02*
X3187064Y-98655000D01*
%TO.C,D5*%
X10450000Y-44540000D02*
X10450000Y-47840000D01*
X10450000Y-44540000D02*
X15960000Y-44540000D01*
X10450000Y-47840000D02*
X15960000Y-47840000D01*
%TO.C,Q3*%
X26620000Y-93820000D02*
X25970000Y-93820000D01*
X26620000Y-93820000D02*
X27270000Y-93820000D01*
X26620000Y-96940000D02*
X25970000Y-96940000D01*
X26620000Y-96940000D02*
X27270000Y-96940000D01*
X25457500Y-93870000D02*
X25217500Y-93540000D01*
X25697500Y-93540000D01*
X25457500Y-93870000D01*
G36*
X25457500Y-93870000D02*
G01*
X25217500Y-93540000D01*
X25697500Y-93540000D01*
X25457500Y-93870000D01*
G37*
%TO.C,C14*%
X6562164Y-13140000D02*
X6777836Y-13140000D01*
X6562164Y-13860000D02*
X6777836Y-13860000D01*
%TO.C,D6*%
X10370000Y-49280000D02*
X10370000Y-52580000D01*
X10370000Y-49280000D02*
X15880000Y-49280000D01*
X10370000Y-52580000D02*
X15880000Y-52580000D01*
%TO.C,U2*%
X4140000Y-16750000D02*
X4140000Y-15250000D01*
X5860000Y-16750000D02*
X5860000Y-15250000D01*
X4400000Y-17480000D02*
X4120000Y-17200000D01*
X4400000Y-17200000D01*
X4400000Y-17480000D01*
G36*
X4400000Y-17480000D02*
G01*
X4120000Y-17200000D01*
X4400000Y-17200000D01*
X4400000Y-17480000D01*
G37*
%TO.C,C2*%
X26138748Y-66595000D02*
X26661252Y-66595000D01*
X26138748Y-68065000D02*
X26661252Y-68065000D01*
%TO.C,D4*%
X1660000Y-52330000D02*
X1660000Y-55630000D01*
X1660000Y-52330000D02*
X7170000Y-52330000D01*
X1660000Y-55630000D02*
X7170000Y-55630000D01*
%TO.C,Q5*%
X25860000Y-88880000D02*
X25210000Y-88880000D01*
X25860000Y-88880000D02*
X26510000Y-88880000D01*
X25860000Y-92000000D02*
X25210000Y-92000000D01*
X25860000Y-92000000D02*
X26510000Y-92000000D01*
X24697500Y-88930000D02*
X24457500Y-88600000D01*
X24937500Y-88600000D01*
X24697500Y-88930000D01*
G36*
X24697500Y-88930000D02*
G01*
X24457500Y-88600000D01*
X24937500Y-88600000D01*
X24697500Y-88930000D01*
G37*
%TO.C,C21*%
X25442164Y-81620000D02*
X25657836Y-81620000D01*
X25442164Y-82340000D02*
X25657836Y-82340000D01*
%TO.C,R12*%
X3486359Y-94510000D02*
X3793641Y-94510000D01*
X3486359Y-95270000D02*
X3793641Y-95270000D01*
%TO.C,R9*%
X27706359Y-17950000D02*
X28013641Y-17950000D01*
X27706359Y-18710000D02*
X28013641Y-18710000D01*
%TO.C,R27*%
X17966359Y-36090000D02*
X18273641Y-36090000D01*
X17966359Y-36850000D02*
X18273641Y-36850000D01*
%TO.C,R3*%
X6766359Y-8170000D02*
X7073641Y-8170000D01*
X6766359Y-8930000D02*
X7073641Y-8930000D01*
%TO.C,C10*%
X1838748Y-14615000D02*
X2361252Y-14615000D01*
X1838748Y-16085000D02*
X2361252Y-16085000D01*
%TO.C,R28*%
X9976359Y-35570000D02*
X10283641Y-35570000D01*
X9976359Y-36330000D02*
X10283641Y-36330000D01*
%TO.C,R20*%
X21952936Y-39325000D02*
X22407064Y-39325000D01*
X21952936Y-40795000D02*
X22407064Y-40795000D01*
%TO.C,C18*%
X6622164Y-3060000D02*
X6837836Y-3060000D01*
X6622164Y-3780000D02*
X6837836Y-3780000D01*
%TO.C,R13*%
X24826359Y-86630000D02*
X25133641Y-86630000D01*
X24826359Y-87390000D02*
X25133641Y-87390000D01*
%TO.C,R33*%
X1896359Y-31150000D02*
X2203641Y-31150000D01*
X1896359Y-31910000D02*
X2203641Y-31910000D01*
%TO.C,C22*%
X25412164Y-84400000D02*
X25627836Y-84400000D01*
X25412164Y-85120000D02*
X25627836Y-85120000D01*
%TO.C,D11*%
X11490000Y-83350000D02*
X11490000Y-86650000D01*
X11490000Y-83350000D02*
X17000000Y-83350000D01*
X11490000Y-86650000D02*
X17000000Y-86650000D01*
%TO.C,R2*%
X6766359Y-10190000D02*
X7073641Y-10190000D01*
X6766359Y-10950000D02*
X7073641Y-10950000D01*
%TO.C,R25*%
X17142936Y-32775000D02*
X17597064Y-32775000D01*
X17142936Y-34245000D02*
X17597064Y-34245000D01*
%TO.C,D12*%
X18690000Y-57370000D02*
X25990000Y-57370000D01*
X18690000Y-62870000D02*
X25990000Y-62870000D01*
X25990000Y-62870000D02*
X25990000Y-61720000D01*
%TO.C,C16*%
X14338748Y-29785000D02*
X14861252Y-29785000D01*
X14338748Y-31255000D02*
X14861252Y-31255000D01*
%TO.C,C6*%
X7138748Y-57825000D02*
X7661252Y-57825000D01*
X7138748Y-59295000D02*
X7661252Y-59295000D01*
%TO.C,U5*%
X20880000Y-64950000D02*
X20080000Y-64950000D01*
X20880000Y-64950000D02*
X21680000Y-64950000D01*
X20880000Y-68070000D02*
X20080000Y-68070000D01*
X20880000Y-68070000D02*
X21680000Y-68070000D01*
X19580000Y-65000000D02*
X19340000Y-64670000D01*
X19820000Y-64670000D01*
X19580000Y-65000000D01*
G36*
X19580000Y-65000000D02*
G01*
X19340000Y-64670000D01*
X19820000Y-64670000D01*
X19580000Y-65000000D01*
G37*
%TO.C,C4*%
X20608748Y-54055000D02*
X21131252Y-54055000D01*
X20608748Y-55525000D02*
X21131252Y-55525000D01*
%TO.C,R18*%
X11032936Y-37825000D02*
X11487064Y-37825000D01*
X11032936Y-39295000D02*
X11487064Y-39295000D01*
%TO.C,C23*%
X6122164Y-17940000D02*
X6337836Y-17940000D01*
X6122164Y-18660000D02*
X6337836Y-18660000D01*
%TO.C,J1*%
X1760000Y-22930000D02*
X1760000Y-24850000D01*
X1760000Y-28565000D02*
X1760000Y-26860000D01*
X10920000Y-24850000D02*
X10920000Y-22930000D01*
X10920000Y-26860000D02*
X10920000Y-28565000D01*
X10920000Y-28565000D02*
X1760000Y-28565000D01*
%TO.C,Q1*%
X5630000Y-87690000D02*
X4980000Y-87690000D01*
X5630000Y-87690000D02*
X6280000Y-87690000D01*
X5630000Y-90810000D02*
X4980000Y-90810000D01*
X5630000Y-90810000D02*
X6280000Y-90810000D01*
X4467500Y-87740000D02*
X4227500Y-87410000D01*
X4707500Y-87410000D01*
X4467500Y-87740000D01*
G36*
X4467500Y-87740000D02*
G01*
X4227500Y-87410000D01*
X4707500Y-87410000D01*
X4467500Y-87740000D01*
G37*
%TO.C,D3*%
X1910000Y-41330000D02*
X1910000Y-44630000D01*
X1910000Y-41330000D02*
X7420000Y-41330000D01*
X1910000Y-44630000D02*
X7420000Y-44630000D01*
%TO.C,R16*%
X16522936Y-41285000D02*
X16977064Y-41285000D01*
X16522936Y-42755000D02*
X16977064Y-42755000D01*
%TO.C,C11*%
X2992164Y-5570000D02*
X3207836Y-5570000D01*
X2992164Y-6290000D02*
X3207836Y-6290000D01*
%TO.C,R17*%
X16002936Y-38335000D02*
X16457064Y-38335000D01*
X16002936Y-39805000D02*
X16457064Y-39805000D01*
%TO.C,D7*%
X26620000Y-12940000D02*
X25970000Y-12940000D01*
X26620000Y-12940000D02*
X27270000Y-12940000D01*
X26620000Y-16060000D02*
X25970000Y-16060000D01*
X26620000Y-16060000D02*
X27270000Y-16060000D01*
X25457500Y-12990000D02*
X25217500Y-12660000D01*
X25697500Y-12660000D01*
X25457500Y-12990000D01*
G36*
X25457500Y-12990000D02*
G01*
X25217500Y-12660000D01*
X25697500Y-12660000D01*
X25457500Y-12990000D01*
G37*
%TO.C,R8*%
X24446359Y-37150000D02*
X24753641Y-37150000D01*
X24446359Y-37910000D02*
X24753641Y-37910000D01*
%TO.C,R21*%
X22472936Y-42275000D02*
X22927064Y-42275000D01*
X22472936Y-43745000D02*
X22927064Y-43745000D01*
%TO.C,R19*%
X5222936Y-36315000D02*
X5677064Y-36315000D01*
X5222936Y-37785000D02*
X5677064Y-37785000D01*
%TO.C,D2*%
X10540000Y-54620000D02*
X10540000Y-57920000D01*
X10540000Y-54620000D02*
X16050000Y-54620000D01*
X10540000Y-57920000D02*
X16050000Y-57920000D01*
%TO.C,R36*%
X26146359Y-64240000D02*
X26453641Y-64240000D01*
X26146359Y-65000000D02*
X26453641Y-65000000D01*
%TO.C,D1*%
X18750000Y-48910000D02*
X18750000Y-52210000D01*
X18750000Y-48910000D02*
X24260000Y-48910000D01*
X18750000Y-52210000D02*
X24260000Y-52210000D01*
%TO.C,C20*%
X6562164Y-94020000D02*
X6777836Y-94020000D01*
X6562164Y-94740000D02*
X6777836Y-94740000D01*
%TO.C,R5*%
X20966359Y-35760000D02*
X21273641Y-35760000D01*
X20966359Y-36520000D02*
X21273641Y-36520000D01*
%TO.C,R23*%
X26982936Y-42735000D02*
X27437064Y-42735000D01*
X26982936Y-44205000D02*
X27437064Y-44205000D01*
%TO.C,U3*%
X5300000Y-77950000D02*
X4500000Y-77950000D01*
X5300000Y-77950000D02*
X6100000Y-77950000D01*
X5300000Y-81070000D02*
X4500000Y-81070000D01*
X5300000Y-81070000D02*
X6100000Y-81070000D01*
X4000000Y-78000000D02*
X3760000Y-77670000D01*
X4240000Y-77670000D01*
X4000000Y-78000000D01*
G36*
X4000000Y-78000000D02*
G01*
X3760000Y-77670000D01*
X4240000Y-77670000D01*
X4000000Y-78000000D01*
G37*
%TO.C,C9*%
X18502164Y-29085000D02*
X18717836Y-29085000D01*
X18502164Y-29805000D02*
X18717836Y-29805000D01*
%TO.C,R15*%
X27696359Y-74610000D02*
X28003641Y-74610000D01*
X27696359Y-75370000D02*
X28003641Y-75370000D01*
%TO.C,R30*%
X6576359Y-96200000D02*
X6883641Y-96200000D01*
X6576359Y-96960000D02*
X6883641Y-96960000D01*
%TO.C,C13*%
X1892164Y-11640000D02*
X2107836Y-11640000D01*
X1892164Y-12360000D02*
X2107836Y-12360000D01*
%TO.C,C8*%
X25102164Y-25740000D02*
X25317836Y-25740000D01*
X25102164Y-26460000D02*
X25317836Y-26460000D01*
%TO.C,R10*%
X2116359Y-58580000D02*
X2423641Y-58580000D01*
X2116359Y-59340000D02*
X2423641Y-59340000D01*
%TO.C,C15*%
X18512164Y-30020000D02*
X18727836Y-30020000D01*
X18512164Y-30740000D02*
X18727836Y-30740000D01*
%TO.C,R1*%
X22482936Y-29100000D02*
X26837064Y-29100000D01*
X22482936Y-32520000D02*
X26837064Y-32520000D01*
%TO.C,Q2*%
X22130000Y-69740000D02*
X19930000Y-69740000D01*
X22130000Y-69740000D02*
X24330000Y-69740000D01*
X22130000Y-72960000D02*
X19930000Y-72960000D01*
X22130000Y-72960000D02*
X24330000Y-72960000D01*
X19230000Y-69915000D02*
X18990000Y-69585000D01*
X19470000Y-69585000D01*
X19230000Y-69915000D01*
G36*
X19230000Y-69915000D02*
G01*
X18990000Y-69585000D01*
X19470000Y-69585000D01*
X19230000Y-69915000D01*
G37*
%TO.C,R6*%
X6516359Y-5240000D02*
X6823641Y-5240000D01*
X6516359Y-6000000D02*
X6823641Y-6000000D01*
%TO.C,SW1*%
X14850000Y-20190000D02*
X21310000Y-20190000D01*
X14850000Y-20220000D02*
X14850000Y-20190000D01*
X14850000Y-22120000D02*
X14850000Y-24720000D01*
X14850000Y-26650000D02*
X14850000Y-26620000D01*
X14850000Y-26650000D02*
X21310000Y-26650000D01*
X21310000Y-20190000D02*
X21310000Y-20220000D01*
X21310000Y-22120000D02*
X21310000Y-24720000D01*
X21310000Y-26650000D02*
X21310000Y-26620000D01*
%TO.C,R22*%
X26982936Y-39735000D02*
X27437064Y-39735000D01*
X26982936Y-41205000D02*
X27437064Y-41205000D01*
%TO.C,U6*%
X25860000Y-8000000D02*
X25060000Y-8000000D01*
X25860000Y-8000000D02*
X26660000Y-8000000D01*
X25860000Y-11120000D02*
X25060000Y-11120000D01*
X25860000Y-11120000D02*
X26660000Y-11120000D01*
X24560000Y-8050000D02*
X24320000Y-7720000D01*
X24800000Y-7720000D01*
X24560000Y-8050000D01*
G36*
X24560000Y-8050000D02*
G01*
X24320000Y-7720000D01*
X24800000Y-7720000D01*
X24560000Y-8050000D01*
G37*
%TO.C,C1*%
X24778748Y-45825000D02*
X25301252Y-45825000D01*
X24778748Y-47295000D02*
X25301252Y-47295000D01*
%TO.C,C3*%
X11468748Y-40875000D02*
X11991252Y-40875000D01*
X11468748Y-42345000D02*
X11991252Y-42345000D01*
%TO.C,D8*%
X23350000Y-34130000D02*
X23350000Y-35830000D01*
X23350000Y-34130000D02*
X26010000Y-34130000D01*
X23350000Y-35830000D02*
X26010000Y-35830000D01*
%TO.C,U7*%
X12130000Y-75430000D02*
X10180000Y-75430000D01*
X12130000Y-75430000D02*
X14080000Y-75430000D01*
X12130000Y-80550000D02*
X10180000Y-80550000D01*
X12130000Y-80550000D02*
X14080000Y-80550000D01*
X9430000Y-75525000D02*
X9190000Y-75195000D01*
X9670000Y-75195000D01*
X9430000Y-75525000D01*
G36*
X9430000Y-75525000D02*
G01*
X9190000Y-75195000D01*
X9670000Y-75195000D01*
X9430000Y-75525000D01*
G37*
%TO.C,D9*%
X26620000Y-3060000D02*
X25970000Y-3060000D01*
X26620000Y-3060000D02*
X27270000Y-3060000D01*
X26620000Y-6180000D02*
X25970000Y-6180000D01*
X26620000Y-6180000D02*
X27270000Y-6180000D01*
X25457500Y-3110000D02*
X25217500Y-2780000D01*
X25697500Y-2780000D01*
X25457500Y-3110000D01*
G36*
X25457500Y-3110000D02*
G01*
X25217500Y-2780000D01*
X25697500Y-2780000D01*
X25457500Y-3110000D01*
G37*
%TO.C,C17*%
X1788748Y-3405000D02*
X2311252Y-3405000D01*
X1788748Y-4875000D02*
X2311252Y-4875000D01*
%TO.C,C5*%
X20088748Y-45495000D02*
X20611252Y-45495000D01*
X20088748Y-46965000D02*
X20611252Y-46965000D01*
%TO.C,R14*%
X5436359Y-75110000D02*
X5743641Y-75110000D01*
X5436359Y-75870000D02*
X5743641Y-75870000D01*
D12*
%TO.C,D13*%
X26680000Y-79930000D02*
G75*
G02*
X26580000Y-79930000I-50000J0D01*
G01*
X26580000Y-79930000D02*
G75*
G02*
X26680000Y-79930000I50000J0D01*
G01*
D11*
%TO.C,C24*%
X1992164Y-85380000D02*
X2207836Y-85380000D01*
X1992164Y-86100000D02*
X2207836Y-86100000D01*
%TO.C,R11*%
X4996359Y-39310000D02*
X5303641Y-39310000D01*
X4996359Y-40070000D02*
X5303641Y-40070000D01*
%TO.C,R35*%
X27826359Y-72550000D02*
X28133641Y-72550000D01*
X27826359Y-73310000D02*
X28133641Y-73310000D01*
%TO.C,C12*%
X25238748Y-54245000D02*
X25761252Y-54245000D01*
X25238748Y-55715000D02*
X25761252Y-55715000D01*
%TO.C,R34*%
X5196359Y-34050000D02*
X5503641Y-34050000D01*
X5196359Y-34810000D02*
X5503641Y-34810000D01*
%TO.C,BZ1*%
X21900000Y-94400000D02*
G75*
G02*
X15100000Y-94400000I-3400000J0D01*
G01*
X15100000Y-94400000D02*
G75*
G02*
X21900000Y-94400000I3400000J0D01*
G01*
%TD*%
M02*
